<?xml version="1.0" encoding="UTF-8"?>
<svg width="60px" height="60px" viewBox="0 0 60 60" version="1.1" xmlns="http://www.w3.org/2000/svg">
    <g stroke="none" stroke-width="1" fill="none" fill-rule="evenodd">
        <g id="Group" transform="translate(0, 8)" fill-rule="nonzero">
            <path d="M13.4134293,25.6384021 L19.4517984,42.2158202 C19.4517984,42.2158202 20.2067536,43.7668769 21.0151495,43.7668769 C21.8235453,43.7668769 33.847267,31.360106 33.847267,31.360106 L47.2180323,5.7447431 L13.6288885,21.3592188 L13.4134293,25.6384021 Z" id="Path" fill="#C8DAEA"></path>
            <path d="M21.4197715,29.8898203 L20.2606184,42.1089668 C20.2606184,42.1089668 19.7754113,45.8530418 23.5493389,42.1089668 C27.3232666,38.3648918 30.9355999,35.4777471 30.9355999,35.4777471" id="Path" fill="#A9C6D8"></path>
            <path d="M13.5224313,26.2298818 L1.10129781,22.2157285 C1.10129781,22.2157285 -0.383164636,21.6183592 0.0948322722,20.2637613 C0.193230926,19.9844281 0.391724762,19.7467424 0.98550974,19.3382596 C3.73770312,17.4355123 51.9263231,0.256097356 51.9263231,0.256097356 C51.9263231,0.256097356 53.2869389,-0.198660523 54.0893969,0.103810259 C54.4935626,0.227903297 54.7990528,0.558235678 54.888886,0.96831298 C54.9755927,1.32407063 55.0118519,1.69008444 54.9966155,2.05577747 C54.9927984,2.37213078 54.9542023,2.66534655 54.9249372,3.12515262 C54.6314378,7.82207373 45.8485097,42.8767125 45.8485097,42.8767125 C45.8485097,42.8767125 45.32301,44.9279608 43.4402875,44.9982148 C42.5054521,45.0281666 41.5984548,44.6801615 40.9273046,44.0340103 C37.2326896,40.8818357 24.4629195,32.3697442 21.6411685,30.4977067 C21.5123951,30.4106682 21.427935,30.2725806 21.4095923,30.1190923 C21.3701481,29.9217922 21.5864554,29.6773756 21.5864554,29.6773756 C21.5864554,29.6773756 43.8220064,10.0735669 44.4136707,8.01558772 C44.459477,7.85614902 44.2864311,7.77748137 44.0540066,7.84731468 C42.5771786,8.38620908 16.9757151,24.4222087 14.1501469,26.1920204 C13.9467545,26.2530564 13.7317815,26.2660228 13.5224313,26.2298818 Z" id="Path" fill="#FFFFFF"></path>
        </g>
    </g>
</svg>