<svg width="300" height="85" viewBox="0 0 300 85" fill="none" xmlns="http://www.w3.org/2000/svg">
<path d="M8.5157 25.4949L4.25785 21.2457H0V84.9829H8.5157V59.4881C12.3478 62.2925 16.6056 63.7372 21.2893 63.7372C27.1651 63.7372 32.1894 61.6976 36.3621 57.5334C40.5348 53.3693 42.5785 48.3553 42.5785 42.4915C42.5785 36.6276 40.5348 31.6137 36.3621 27.4495C32.1894 23.2853 27.1651 21.2457 21.2893 21.2457C16.5205 21.2457 12.2626 22.6904 8.5157 25.4949ZM30.3159 33.4833C32.7855 35.9478 34.0628 39.0072 34.0628 42.4915C34.0628 45.9758 32.7855 49.0352 30.3159 51.4997C27.8464 53.9642 24.7807 55.2389 21.2893 55.2389C17.7978 55.2389 14.7322 53.9642 12.2626 51.4997C9.79306 49.0352 8.5157 45.9758 8.5157 42.4915C8.5157 39.0072 9.79306 35.9478 12.2626 33.4833C14.7322 31.0188 17.7978 29.744 21.2893 29.744C24.7807 29.744 27.8464 31.0188 30.3159 33.4833Z" fill="#F47500"/>
<path d="M57.2774 27.4495C53.1047 31.6137 51.061 36.6276 51.061 42.4915C51.061 48.3553 53.1047 53.3693 57.2774 57.5334C61.4501 61.6976 66.4744 63.7372 72.3502 63.7372C78.2261 63.7372 83.2503 61.6976 87.423 57.5334C91.5957 53.3693 93.6395 48.3553 93.6395 42.4915C93.6395 36.6276 91.5957 31.6137 87.423 27.4495C83.2503 23.2853 78.2261 21.2457 72.3502 21.2457C66.4744 21.2457 61.4501 23.2853 57.2774 27.4495ZM63.3236 51.4997C60.854 49.0352 59.5767 45.9758 59.5767 42.4915C59.5767 39.0072 60.854 35.9478 63.3236 33.4833C65.7931 31.0188 68.8588 29.744 72.3502 29.744C75.8417 29.744 78.9073 31.0188 81.3769 33.4833C83.8464 35.9478 85.1238 39.0072 85.1238 42.4915C85.1238 45.9758 83.8464 49.0352 81.3769 51.4997C78.9073 53.9642 75.8417 55.2389 72.3502 55.2389C68.8588 55.2389 65.7931 53.9642 63.3236 51.4997Z" fill="#F47500"/>
<path d="M102.122 21.2457V63.7372H110.638V42.4915C110.638 39.0072 111.915 35.9478 114.385 33.4833C116.854 31.0188 119.92 29.744 123.411 29.744V21.2457C118.728 21.2457 114.47 22.6904 110.638 25.4949L106.38 21.2457H102.122Z" fill="#F47500"/>
<path d="M137 21.2457V0H128.484V45.6358C128.484 50.6498 130.272 54.984 133.764 58.4683C137.255 61.9526 141.513 63.7372 146.537 63.7372V55.2389C143.897 55.2389 141.683 54.3041 139.81 52.4345C137.936 50.5649 137 48.2703 137 45.6358V29.744H145.515V21.2457H137Z" fill="#F47500"/>
<path d="M155.012 21.2457V63.7372H163.528V42.4915C163.528 39.0072 164.806 35.9478 167.275 33.4833C169.745 31.0188 172.81 29.744 176.302 29.744V21.2457C171.618 21.2457 167.36 22.6904 163.528 25.4949L159.27 21.2457H155.012Z" fill="#F47500"/>
<path d="M213.774 59.4881L218.032 63.7372H222.29V21.2457H213.774V25.4949C209.942 22.6904 205.684 21.2457 201.001 21.2457C195.125 21.2457 190.1 23.2853 185.928 27.4495C181.755 31.6137 179.711 36.6276 179.711 42.4915C179.711 48.3553 181.755 53.3693 185.928 57.5334C190.1 61.6976 195.125 63.7372 201.001 63.7372C205.769 63.7372 210.027 62.2925 213.774 59.4881ZM191.974 51.4997C189.504 49.0352 188.227 45.9758 188.227 42.4915C188.227 39.0072 189.504 35.9478 191.974 33.4833C194.443 31.0188 197.509 29.744 201.001 29.744C204.492 29.744 207.558 31.0188 210.027 33.4833C212.497 35.9478 213.774 39.0072 213.774 42.4915C213.774 45.9758 212.497 49.0352 210.027 51.4997C207.558 53.9642 204.492 55.2389 201.001 55.2389C197.509 55.2389 194.443 53.9642 191.974 51.4997Z" fill="#F47500"/>
<path d="M239.288 21.2457V0H230.772V45.6358C230.772 50.6498 232.561 54.984 236.052 58.4683C239.543 61.9526 243.801 63.7372 248.826 63.7372V55.2389C246.186 55.2389 243.972 54.3041 242.098 52.4345C240.225 50.5649 239.288 48.2703 239.288 45.6358V29.744H247.804V21.2457H239.288Z" fill="#F47500"/>
<path d="M278.59 55.2389C275.099 55.2389 272.033 53.9642 269.563 51.4997C268.201 50.1399 267.179 48.5253 266.498 46.7406H299.539C300.986 39.3471 299.028 32.8884 293.663 27.4495C289.49 23.2853 284.466 21.2457 278.59 21.2457C272.714 21.2457 267.69 23.2853 263.517 27.4495C259.344 31.6137 257.301 36.6276 257.301 42.4915C257.301 48.3553 259.344 53.3693 263.517 57.5334C267.69 61.6976 272.714 63.7372 278.59 63.7372C284.466 63.7372 289.49 61.6976 293.663 57.5334L287.617 51.4997C285.147 53.9642 282.081 55.2389 278.59 55.2389ZM278.59 29.744C282.081 29.744 285.147 31.0188 287.617 33.4833C289.064 34.928 290.086 36.4577 290.682 38.2423H266.498C267.179 36.4577 268.201 34.928 269.563 33.4833C272.033 31.0188 275.099 29.744 278.59 29.744Z" fill="#F47500"/>
</svg>
