<?xml version="1.0" encoding="UTF-8"?>
<svg width="32px" height="32px" viewBox="0 0 32 32" version="1.1" xmlns="http://www.w3.org/2000/svg" xmlns:xlink="http://www.w3.org/1999/xlink">
    <title>Artboard</title>
    <g id="Artboard" stroke="none" stroke-width="1" fill="none" fill-rule="evenodd">
        <g id="logo_default" transform="translate(-0.0313, 0)">
            <ellipse id="Oval" fill="#CE2457" fill-rule="nonzero" cx="16.0001" cy="16" rx="16.0001" ry="16"></ellipse>
            <path d="M15.2113,6.37695 C10.2508,6.78274 6.35161,10.9371 6.35161,16.0021 C6.35161,21.3359 10.6755,25.6597 16.0092,25.6597 C21.3429,25.6597 25.6668,21.3359 25.6668,16.0021 C25.6668,10.9365 21.7667,6.78182 16.8054,6.37695 L16.5452,12.7203 C18.1266,12.9766 19.334,14.3484 19.334,16.0021 C19.334,17.8384 17.8454,19.327 16.0092,19.327 C14.1729,19.327 12.6843,17.8384 12.6843,16.0021 C12.6843,14.3489 13.8909,12.9776 15.4715,12.7206 L15.2113,6.37695 Z" id="Path" fill="#FFFFFF"></path>
            <ellipse id="Oval" fill="#FFFFFF" fill-rule="nonzero" cx="15.9987" cy="3.6158" rx="2.08456" ry="2.08455"></ellipse>
        </g>
    </g>
</svg>