<?xml version="1.0" encoding="UTF-8"?>
<svg width="13px" height="13px" viewBox="0 0 13 13" version="1.1" xmlns="http://www.w3.org/2000/svg">
    <g stroke="none" stroke-width="1" fill="none" fill-rule="evenodd">
        <path d="M7.20724677,0.456980091 C7.07676831,0.17771448 6.80104026,0 6.49823178,0 C6.19542329,0 5.9221571,0.17771448 5.78921679,0.456980091 L4.20624236,3.81578376 L0.671014855,4.35400476 C0.375591944,4.39970277 0.129406185,4.61296014 0.038317454,4.90491964 C-0.0527712769,5.19687915 0.0210844509,5.51930399 0.232804204,5.73510014 L2.79805982,8.35258055 L2.19244285,12.0515805 C2.1432057,12.3562339 2.26629858,12.6659649 2.51002248,12.8462181 C2.75374638,13.0264714 3.07624972,13.0493204 3.34213034,12.90461 L6.50069364,11.1655469 L9.65925693,12.90461 C9.92513755,13.0493204 10.2476409,13.0290102 10.4913648,12.8462181 C10.7350887,12.6634261 10.8581816,12.3562339 10.8089444,12.0515805 L10.2008656,8.35258055 L12.7661212,5.73510014 C12.977841,5.51930399 13.0541585,5.19687915 12.960608,4.90491964 C12.8670574,4.61296014 12.6233335,4.39970277 12.3279106,4.35400476 L8.7902212,3.81578376 L7.20724677,0.456980091 Z" fill="#C6C6C6" fill-rule="nonzero"></path>
    </g>
</svg>