<?xml version="1.0" encoding="UTF-8"?>
<svg width="290px" height="110px" viewBox="0 0 290 110" version="1.1" xmlns="http://www.w3.org/2000/svg" xmlns:xlink="http://www.w3.org/1999/xlink">
    <title>Light</title>
    <defs>
        <path d="M12.819426,-3.45280103e-16 L257.180574,5.17920154e-16 C261.638168,-3.00926524e-16 263.254599,0.464128056 264.884229,1.33566352 C266.513858,2.20719898 267.792801,3.48614185 268.664336,5.11577148 C269.535872,6.74540111 270,8.3618323 270,12.819426 L270,77.180574 C270,81.6381677 269.535872,83.2545989 268.664336,84.8842285 C267.792801,86.5138581 266.513858,87.792801 264.884229,88.6643365 C263.254599,89.5358719 261.638168,90 257.180574,90 L12.819426,90 C8.3618323,90 6.74540111,89.5358719 5.11577148,88.6643365 C3.48614185,87.792801 2.20719898,86.5138581 1.33566352,84.8842285 C0.464128056,83.2545989 1.00308841e-16,81.6381677 -1.72640051e-16,77.180574 L3.45280103e-16,12.819426 C-2.00617683e-16,8.3618323 0.464128056,6.74540111 1.33566352,5.11577148 C2.20719898,3.48614185 3.48614185,2.20719898 5.11577148,1.33566352 C6.74540111,0.464128056 8.3618323,2.00617683e-16 12.819426,-3.45280103e-16 Z" id="path-1"></path>
        <filter x="-5.6%" y="-16.7%" width="111.1%" height="133.3%" filterUnits="objectBoundingBox" id="filter-2">
            <feOffset dx="0" dy="0" in="SourceAlpha" result="shadowOffsetOuter1"></feOffset>
            <feGaussianBlur stdDeviation="5" in="shadowOffsetOuter1" result="shadowBlurOuter1"></feGaussianBlur>
            <feColorMatrix values="0 0 0 0 0   0 0 0 0 0   0 0 0 0 0  0 0 0 0.2 0" type="matrix" in="shadowBlurOuter1"></feColorMatrix>
        </filter>
    </defs>
    <g id="Light" stroke="none" stroke-width="1" fill="none" fill-rule="evenodd">
        <g id="Group" transform="translate(10, 10)">
            <g id="Rectangle">
                <use fill="black" fill-opacity="1" filter="url(#filter-2)" xlink:href="#path-1"></use>
                <use fill="#F8F8F8" fill-rule="evenodd" xlink:href="#path-1"></use>
            </g>
            <g id="сделано-на-portrate." transform="translate(74.5469, 74.4261)" fill-rule="nonzero">
                <path d="M2.49511719,7.6763916 C2.93457031,7.6763916 3.31136068,7.60233561 3.62548828,7.45422363 C3.93961589,7.30611165 4.19108073,7.10184733 4.37988281,6.84143066 C4.5686849,6.581014 4.69401042,6.27827962 4.75585938,5.93322754 L4.765625,5.88928223 L3.75,5.89416504 L3.74023438,5.9185791 C3.65559896,6.20503743 3.50992839,6.42150879 3.30322266,6.56799316 C3.09651693,6.71447754 2.82714844,6.78771973 2.49511719,6.78771973 C2.20540365,6.78771973 1.9547526,6.71203613 1.74316406,6.56066895 C1.53157552,6.40930176 1.3688151,6.19364421 1.25488281,5.91369629 C1.14095052,5.63374837 1.08398438,5.29846191 1.08398438,4.90783691 L1.08398438,4.89807129 C1.08398438,4.51721191 1.14013672,4.18843587 1.25244141,3.91174316 C1.36474609,3.63505046 1.52669271,3.42264811 1.73828125,3.27453613 C1.94986979,3.12642415 2.20214844,3.05236816 2.49511719,3.05236816 C2.84667969,3.05236816 3.12825521,3.13944499 3.33984375,3.31359863 C3.55143229,3.48775228 3.68652344,3.70503743 3.74511719,3.9654541 L3.75,3.97521973 L4.77050781,3.97521973 L4.765625,3.95080566 C4.71679688,3.60900879 4.59716797,3.30383301 4.40673828,3.03527832 C4.21630859,2.76672363 3.96077474,2.55513509 3.64013672,2.4005127 C3.3194987,2.2458903 2.93619792,2.1685791 2.49023438,2.1685791 C1.97591146,2.1685791 1.53238932,2.27925618 1.15966797,2.50061035 C0.786946615,2.72196452 0.500488281,3.03609212 0.300292969,3.44299316 C0.100097656,3.84989421 0,4.33492025 0,4.89807129 L0,4.90783691 C0,5.48075358 0.100911458,5.97391764 0.302734375,6.3873291 C0.504557292,6.80074056 0.791829427,7.11893717 1.16455078,7.34191895 C1.53727214,7.56490072 1.98079427,7.6763916 2.49511719,7.6763916 Z" id="Path" fill="#ADADAD"></path>
                <path d="M6.51433706,8.9654541 L6.51433706,7.57385254 L10.4631591,7.57385254 L10.4631591,8.9654541 L11.4404082,8.9654541 L11.4404082,6.72744751 L10.6112456,6.72744751 L10.6112456,2.26898193 L6.77617788,2.26898193 L6.58101797,5.12657166 C6.55823151,5.48377991 6.49862051,5.80965678 6.40218496,6.10420227 C6.30574942,6.39874776 6.16058747,6.60649618 5.96669912,6.72744751 L5.53708792,6.72744751 L5.53708792,8.9654541 L6.51433706,8.9654541 Z M9.55037832,6.72744751 L7.12987661,6.72744751 L7.12987661,6.64581299 C7.24940379,6.48066203 7.3430419,6.26962026 7.41079092,6.01268768 C7.47853994,5.75575511 7.52291759,5.47526042 7.54392385,5.17120361 L7.69376516,3.11538696 L9.55037832,3.11538696 L9.55037832,6.72744751 Z" id="Shape" fill="#ADADAD"></path>
                <path d="M14.8497987,7.6763916 C15.1915956,7.6763916 15.4935161,7.63244629 15.7555604,7.54455566 C16.0176047,7.45666504 16.242214,7.34110514 16.4293885,7.19787598 C16.616563,7.05464681 16.7671164,6.8959554 16.8810487,6.72180176 C16.994981,6.54764811 17.0747336,6.37268066 17.1203065,6.19689941 L17.1300721,6.1529541 L16.1046815,6.1529541 L16.0851502,6.1920166 C16.0460877,6.28316243 15.9736594,6.37593587 15.8678651,6.47033691 C15.7620708,6.56473796 15.6269797,6.64367676 15.4625916,6.70715332 C15.2982036,6.77062988 15.1020773,6.80236816 14.8742127,6.80236816 C14.5779888,6.80236816 14.3216411,6.737264 14.1051698,6.60705566 C13.8886984,6.47684733 13.721869,6.28804525 13.6046815,6.04064941 C13.487494,5.79325358 13.4289002,5.49540202 13.4289002,5.14709473 L13.4289002,4.72229004 C13.4289002,4.35770671 13.4883078,4.05008952 13.6071229,3.79943848 C13.725938,3.54878743 13.8886984,3.35917155 14.0954041,3.23059082 C14.3021099,3.10201009 14.5372987,3.03771973 14.8009706,3.03771973 C15.0646424,3.03771973 15.2973898,3.09956868 15.4992127,3.2232666 C15.7010357,3.34696452 15.8597271,3.5333252 15.975287,3.78234863 C16.0908469,4.03137207 16.1486268,4.34468587 16.1486268,4.72229004 L16.1486268,5.14709473 L16.6564393,4.44396973 L12.8966737,4.44396973 L12.8966737,5.20080566 L17.1837831,5.20080566 L17.1837831,4.82971191 C17.1837831,4.29585775 17.0877544,3.82954915 16.8956971,3.43078613 C16.7036398,3.03202311 16.4293885,2.72196452 16.0729432,2.50061035 C15.7164979,2.27925618 15.2908794,2.1685791 14.7960877,2.1685791 C14.3045513,2.1685791 13.8756776,2.284139 13.5094666,2.51525879 C13.1432557,2.74637858 12.8600526,3.06864421 12.6598573,3.48205566 C12.459662,3.89546712 12.3595643,4.37886556 12.3595643,4.93225098 L12.3595643,4.93713379 C12.3595643,5.49702962 12.459662,5.98205566 12.6598573,6.39221191 C12.8600526,6.80236816 13.1456971,7.11893717 13.5167909,7.34191895 C13.8878846,7.56490072 14.3322206,7.6763916 14.8497987,7.6763916 Z" id="Path" fill="#ADADAD"></path>
                <path d="M19.9354923,5.3691864 L20.1057804,3.10997009 L21.7801273,3.10997009 L21.7801273,7.57385254 L22.8410709,7.57385254 L22.8410709,2.26898193 L19.1748416,2.26898193 L18.9725864,5.284729 C18.9575311,5.54214478 18.9246356,5.77568054 18.8739002,5.9853363 C18.8231647,6.19499207 18.748244,6.36197408 18.6491382,6.48628235 C18.5500324,6.61059062 18.4184889,6.67274475 18.2545078,6.67274475 C18.1890984,6.67274475 18.1269443,6.66867574 18.0680454,6.66053772 C18.0091465,6.6523997 17.9671085,6.64507548 17.9419315,6.63856506 L17.9419315,7.56538391 C17.979519,7.57840474 18.0346032,7.59120941 18.1071842,7.60379791 C18.1797651,7.61638641 18.2666894,7.62268066 18.3679569,7.62268066 C18.701514,7.62268066 18.9776472,7.5393041 19.1963565,7.37255096 C19.4150658,7.20579783 19.5844384,6.95498149 19.7044742,6.62010193 C19.82451,6.28522237 19.901516,5.86825053 19.9354923,5.3691864 Z" id="Path" fill="#ADADAD"></path>
                <path d="M26.0310566,7.66174316 C26.2654316,7.66174316 26.481903,7.62919108 26.6804707,7.56408691 C26.8790384,7.49898275 27.0564473,7.4037679 27.2126973,7.27844238 C27.3689473,7.15311686 27.4991556,7.00093587 27.6033223,6.82189941 L27.6814473,6.82189941 L27.6814473,7.57385254 L28.7361348,7.57385254 L28.7361348,3.94592285 C28.7361348,3.5748291 28.6555684,3.25663249 28.4944355,2.99133301 C28.3333027,2.72603353 28.0973001,2.52258301 27.7864277,2.38098145 C27.4755553,2.23937988 27.0971374,2.1685791 26.6511738,2.1685791 C26.2507832,2.1685791 25.8951517,2.22880046 25.5842793,2.34924316 C25.2734069,2.46968587 25.0227559,2.6381429 24.8323262,2.85461426 C24.6418965,3.07108561 24.5255228,3.32580566 24.4832051,3.61877441 L24.4783223,3.6529541 L25.4988301,3.6529541 L25.5085957,3.63830566 C25.5704447,3.44950358 25.6949564,3.30301921 25.8821309,3.19885254 C26.0693053,3.09468587 26.3110046,3.04260254 26.6072285,3.04260254 C26.9620462,3.04260254 27.2297871,3.11991374 27.4104512,3.27453613 C27.5911152,3.42915853 27.6814473,3.6529541 27.6814473,3.94592285 L27.6814473,5.61584473 C27.6814473,5.84370931 27.6228535,6.04797363 27.505666,6.2286377 C27.3884785,6.40930176 27.2265319,6.55253092 27.0198262,6.6583252 C26.8131204,6.76411947 26.5779316,6.8170166 26.3142598,6.8170166 C26.0310566,6.8170166 25.7966816,6.74784342 25.6111348,6.60949707 C25.4255879,6.47115072 25.3328145,6.28153483 25.3328145,6.04064941 L25.3328145,6.03088379 C25.3328145,5.79325358 25.4190775,5.60852051 25.5916035,5.47668457 C25.7641296,5.34484863 26.0326842,5.26753743 26.3972676,5.24475098 L28.208791,5.12756348 L28.208791,4.38049316 L26.2507832,4.49768066 C25.8308613,4.52372233 25.4736022,4.60103353 25.1790059,4.72961426 C24.8844095,4.85819499 24.6598001,5.03479004 24.5051777,5.25939941 C24.3505553,5.48400879 24.2732441,5.75581868 24.2732441,6.0748291 L24.2732441,6.08459473 C24.2732441,6.40360514 24.3497415,6.68192546 24.5027363,6.91955566 C24.6557311,7.15718587 24.8648783,7.34029134 25.1301777,7.46887207 C25.3954772,7.5974528 25.6957702,7.66174316 26.0310566,7.66174316 Z" id="Path" fill="#ADADAD"></path>
                <polygon id="Path" fill="#ADADAD" points="33.9062572 7.57385254 34.9671245 7.57385254 34.9671245 2.26898193 33.9062572 2.26898193 33.9062572 4.41001892 31.5047526 4.41001892 31.5047526 2.26898193 30.443809 2.26898193 30.443809 7.57385254 31.5047526 7.57385254 31.5047526 5.25100708 33.9062572 5.25100708"></polygon>
                <path d="M38.9481568,7.6763916 C39.4689902,7.6763916 39.9157675,7.56571452 40.2884889,7.34436035 C40.6612102,7.12300618 40.9492962,6.80643717 41.1527467,6.39465332 C41.3561972,5.98286947 41.4579225,5.49377441 41.4579225,4.92736816 L41.4579225,4.91760254 C41.4579225,4.34794108 41.3561972,3.85721842 41.1527467,3.44543457 C40.9492962,3.03365072 40.6603964,2.71789551 40.2860475,2.49816895 C39.9116985,2.27844238 39.465735,2.1685791 38.9481568,2.1685791 C38.4338339,2.1685791 37.9886842,2.27925618 37.6127076,2.50061035 C37.2367311,2.72196452 36.9470175,3.03771973 36.743567,3.44787598 C36.5401165,3.85803223 36.4383912,4.34794108 36.4383912,4.91760254 L36.4383912,4.92736816 C36.4383912,5.49377441 36.5393027,5.98286947 36.7411256,6.39465332 C36.9429485,6.80643717 37.2318482,7.12300618 37.6078248,7.34436035 C37.9838014,7.56571452 38.4305787,7.6763916 38.9481568,7.6763916 Z M38.9481568,6.78771973 C38.6454225,6.78771973 38.388261,6.71366374 38.1766725,6.56555176 C37.9650839,6.41743978 37.8031373,6.20503743 37.6908326,5.92834473 C37.5785279,5.65165202 37.5223756,5.31799316 37.5223756,4.92736816 L37.5223756,4.91760254 C37.5223756,4.52372233 37.5785279,4.18843587 37.6908326,3.91174316 C37.8031373,3.63505046 37.9650839,3.42264811 38.1766725,3.27453613 C38.388261,3.12642415 38.6454225,3.05236816 38.9481568,3.05236816 C39.2508912,3.05236816 39.5080527,3.12642415 39.7196412,3.27453613 C39.9312298,3.42264811 40.0923626,3.63505046 40.2030396,3.91174316 C40.3137167,4.18843587 40.3690553,4.52372233 40.3690553,4.91760254 L40.3690553,4.92736816 C40.3690553,5.31799316 40.3137167,5.65165202 40.2030396,5.92834473 C40.0923626,6.20503743 39.9312298,6.41743978 39.7196412,6.56555176 C39.5080527,6.71366374 39.2508912,6.78771973 38.9481568,6.78771973 Z" id="Shape" fill="#ADADAD"></path>
                <polygon id="Path" fill="#ADADAD" points="49.2335844 7.57385254 50.2944517 7.57385254 50.2944517 2.26898193 49.2335844 2.26898193 49.2335844 4.41001892 46.8320799 4.41001892 46.8320799 2.26898193 45.7711363 2.26898193 45.7711363 7.57385254 46.8320799 7.57385254 46.8320799 5.25100708 49.2335844 5.25100708"></polygon>
                <path d="M53.4844685,7.66174316 C53.7188435,7.66174316 53.9353148,7.62919108 54.1338825,7.56408691 C54.3324502,7.49898275 54.5098591,7.4037679 54.6661091,7.27844238 C54.8223591,7.15311686 54.9525674,7.00093587 55.0567341,6.82189941 L55.1348591,6.82189941 L55.1348591,7.57385254 L56.1895466,7.57385254 L56.1895466,3.94592285 C56.1895466,3.5748291 56.1089802,3.25663249 55.9478474,2.99133301 C55.7867146,2.72603353 55.5507119,2.52258301 55.2398396,2.38098145 C54.9289672,2.23937988 54.5505492,2.1685791 54.1045856,2.1685791 C53.704195,2.1685791 53.3485635,2.22880046 53.0376911,2.34924316 C52.7268187,2.46968587 52.4761677,2.6381429 52.285738,2.85461426 C52.0953083,3.07108561 51.9789346,3.32580566 51.9366169,3.61877441 L51.9317341,3.6529541 L52.9522419,3.6529541 L52.9620075,3.63830566 C53.0238565,3.44950358 53.1483682,3.30301921 53.3355427,3.19885254 C53.5227172,3.09468587 53.7644164,3.04260254 54.0606403,3.04260254 C54.415458,3.04260254 54.6831989,3.11991374 54.863863,3.27453613 C55.0445271,3.42915853 55.1348591,3.6529541 55.1348591,3.94592285 L55.1348591,5.61584473 C55.1348591,5.84370931 55.0762653,6.04797363 54.9590778,6.2286377 C54.8418903,6.40930176 54.6799437,6.55253092 54.473238,6.6583252 C54.2665323,6.76411947 54.0313435,6.8170166 53.7676716,6.8170166 C53.4844685,6.8170166 53.2500935,6.74784342 53.0645466,6.60949707 C52.8789997,6.47115072 52.7862263,6.28153483 52.7862263,6.04064941 L52.7862263,6.03088379 C52.7862263,5.79325358 52.8724893,5.60852051 53.0450153,5.47668457 C53.2175414,5.34484863 53.4860961,5.26753743 53.8506794,5.24475098 L55.6622028,5.12756348 L55.6622028,4.38049316 L53.704195,4.49768066 C53.2842731,4.52372233 52.927014,4.60103353 52.6324177,4.72961426 C52.3378213,4.85819499 52.1132119,5.03479004 51.9585896,5.25939941 C51.8039672,5.48400879 51.726656,5.75581868 51.726656,6.0748291 L51.726656,6.08459473 C51.726656,6.40360514 51.8031534,6.68192546 51.9561481,6.91955566 C52.1091429,7.15718587 52.3182901,7.34029134 52.5835896,7.46887207 C52.848889,7.5974528 53.149182,7.66174316 53.4844685,7.66174316 Z" id="Path" fill="#ADADAD"></path>
                <path d="M60.6961787,9.34059143 L61.757046,9.34059143 L61.757046,6.73301697 L61.8387568,6.73301697 C61.9340225,6.92420959 62.0626541,7.08891551 62.2246516,7.2271347 C62.3866491,7.3653539 62.5736582,7.4727122 62.7856791,7.54920959 C62.9977,7.62570699 63.2250432,7.66395569 63.4677088,7.66395569 C63.9166733,7.66395569 64.3054545,7.55224864 64.6340525,7.32883453 C64.9626505,7.10542043 65.2167602,6.78906759 65.3963816,6.379776 C65.576003,5.97048442 65.6658137,5.48599243 65.6658137,4.92630005 L65.6658137,4.91653442 C65.6658137,4.36009725 65.5755579,3.87738546 65.3950465,3.46839905 C65.214535,3.05941264 64.9599802,2.74224599 64.6313822,2.51689911 C64.3027842,2.29155223 63.9148931,2.17887878 63.4677088,2.17887878 C63.2206182,2.17887878 62.9927536,2.21602122 62.7841151,2.29030609 C62.5754766,2.36459096 62.3912648,2.47046153 62.2314799,2.60791779 C62.0716949,2.74537404 61.9407872,2.91145325 61.8387568,3.1061554 L61.757046,3.1061554 L61.757046,2.26898193 L60.6961787,2.26898193 L60.6961787,9.34059143 Z M63.16589,6.75445557 C62.8725143,6.75445557 62.618926,6.68051402 62.4051249,6.53263092 C62.1913238,6.38474782 62.0268977,6.17380778 61.9118464,5.89981079 C61.7967951,5.6258138 61.7392695,5.30100505 61.7392695,4.92538452 L61.7392695,4.9156189 C61.7392695,4.53679403 61.7966425,4.21133677 61.9113886,3.93924713 C62.0261347,3.66715749 62.190421,3.45733643 62.4042475,3.30978394 C62.618074,3.16223145 62.8719548,3.0884552 63.16589,3.0884552 C63.46247,3.0884552 63.7161855,3.16172282 63.9270365,3.30825806 C64.1378876,3.45479329 64.3000249,3.66424561 64.4134486,3.93661499 C64.5268722,4.20898438 64.5835841,4.53562419 64.5835841,4.91653442 L64.5835841,4.92630005 C64.5835841,5.30395508 64.5268722,5.62964122 64.4134486,5.90335846 C64.3000249,6.1770757 64.1378876,6.38735453 63.9270365,6.53419495 C63.7161855,6.68103536 63.46247,6.75445557 63.16589,6.75445557 Z" id="Shape" fill="#A77300"></path>
                <path d="M69.2956626,7.67471313 C69.8160891,7.67471313 70.2632352,7.56409963 70.6371009,7.34287262 C71.0109667,7.12164561 71.2990526,6.80549622 71.5013587,6.39442444 C71.7036649,5.98335266 71.8048179,5.49367269 71.8048179,4.92538452 L71.8048179,4.9156189 C71.8048179,4.34651693 71.7032071,3.85656993 71.4999855,3.44577789 C71.2967638,3.03498586 71.0082328,2.71935781 70.6343925,2.49889374 C70.2605522,2.27842967 69.8143089,2.16819763 69.2956626,2.16819763 C68.7803225,2.16819763 68.3350583,2.27858226 67.9598701,2.4993515 C67.5846819,2.72012075 67.2953371,3.03590139 67.0918357,3.44669342 C66.8883344,3.85748545 66.7865837,4.34712728 66.7865837,4.9156189 L66.7865837,4.92538452 C66.7865837,5.49367269 66.8878893,5.98335266 67.0905006,6.39442444 C67.2931119,6.80549622 67.5820116,7.12164561 67.9571998,7.34287262 C68.332388,7.56409963 68.7785423,7.67471313 69.2956626,7.67471313 Z M69.2956626,6.78840637 C68.9928774,6.78840637 68.7357795,6.71461741 68.524369,6.56703949 C68.3129585,6.41946157 68.1514315,6.20694478 68.039788,5.92948914 C67.9281445,5.65203349 67.8723228,5.31763713 67.8723228,4.92630005 L67.8723228,4.91653442 C67.8723228,4.52372233 67.9282971,4.18874105 68.0402458,3.91159058 C68.1521944,3.6344401 68.313874,3.42229207 68.5252845,3.27514648 C68.7366951,3.1280009 68.9934878,3.0544281 69.2956626,3.0544281 C69.5984479,3.0544281 69.8554059,3.1280009 70.0665367,3.27514648 C70.2776674,3.42229207 70.4391944,3.6344401 70.5511177,3.91159058 C70.6630409,4.18874105 70.7190025,4.52372233 70.7190025,4.91653442 L70.7190025,4.92630005 C70.7190025,5.31702677 70.6631935,5.65111796 70.5515754,5.92857361 C70.4399574,6.20602926 70.278583,6.41869863 70.0674522,6.56658173 C69.8563214,6.71446482 69.5990582,6.78840637 69.2956626,6.78840637 Z" id="Shape" fill="#A77300"></path>
                <path d="M73.1822026,7.57385254 L74.2430699,7.57385254 L74.2430699,4.4052124 C74.2430699,4.14927165 74.3003921,3.92706553 74.4150364,3.73859406 C74.5296808,3.55012258 74.6892242,3.40381622 74.8936665,3.29967499 C75.0981088,3.19553375 75.3354212,3.14346313 75.6056035,3.14346313 C75.7065658,3.14346313 75.8033319,3.14857483 75.8959019,3.15879822 C75.9884719,3.16902161 76.0819829,3.18405151 76.1764348,3.20388794 L76.1764348,2.22564697 C76.1239445,2.21374512 76.0552927,2.20297496 75.9704792,2.19333649 C75.8856658,2.18369802 75.7995681,2.17887878 75.7121861,2.17887878 C75.3597589,2.17887878 75.0642979,2.25687663 74.825803,2.41287231 C74.5873082,2.568868 74.4203007,2.78818766 74.3247807,3.0708313 L74.2430699,3.0708313 L74.2430699,2.26898193 L73.1822026,2.26898193 L73.1822026,7.57385254 Z" id="Path" fill="#A77300"></path>
                <path d="M79.4159043,7.60574341 C79.5202235,7.60574341 79.6209824,7.60041555 79.7181809,7.58975983 C79.8153794,7.57910411 79.905864,7.56665548 79.9896348,7.55241394 L79.9896348,6.70623779 C79.915121,6.71274821 79.8498134,6.71778361 79.7937119,6.72134399 C79.7376104,6.72490438 79.6691239,6.72668457 79.5882523,6.72668457 C79.3267675,6.72668457 79.1387792,6.66330973 79.0242875,6.53656006 C78.9097957,6.40981038 78.8525498,6.20435079 78.8525498,5.92018127 L78.8525498,3.10821533 L79.9896348,3.10821533 L79.9896348,2.26898193 L78.8525498,2.26898193 L78.8525498,0.93536377 L77.7677262,0.93536377 L77.7677262,2.26898193 L76.9385636,2.26898193 L76.9385636,3.10821533 L77.7677262,3.10821533 L77.7677262,6.17713928 C77.7677262,6.685613 77.8970444,7.05083211 78.1556809,7.27279663 C78.4143174,7.49476115 78.8343918,7.60574341 79.4159043,7.60574341 Z" id="Path" fill="#A77300"></path>
                <path d="M81.3441837,7.57385254 L82.405051,7.57385254 L82.405051,4.4052124 C82.405051,4.14927165 82.4623732,3.92706553 82.5770175,3.73859406 C82.6916619,3.55012258 82.8512053,3.40381622 83.0556476,3.29967499 C83.26009,3.19553375 83.4974023,3.14346313 83.7675846,3.14346313 C83.8685469,3.14346313 83.965313,3.14857483 84.057883,3.15879822 C84.150453,3.16902161 84.243964,3.18405151 84.3384159,3.20388794 L84.3384159,2.22564697 C84.2859256,2.21374512 84.2172738,2.20297496 84.1324604,2.19333649 C84.0476469,2.18369802 83.9615492,2.17887878 83.8741672,2.17887878 C83.52174,2.17887878 83.226279,2.25687663 82.9877841,2.41287231 C82.7492893,2.568868 82.5822818,2.78818766 82.4867618,3.0708313 L82.405051,3.0708313 L82.405051,2.26898193 L81.3441837,2.26898193 L81.3441837,7.57385254 Z" id="Path" fill="#A77300"></path>
                <path d="M86.8853104,7.66395569 C87.1217708,7.66395569 87.3394374,7.63118744 87.5383103,7.56565094 C87.7371832,7.50011444 87.9145157,7.4041748 88.070308,7.27783203 C88.2261002,7.15148926 88.3554439,6.99943542 88.458339,6.82167053 L88.5400498,6.82167053 L88.5400498,7.57385254 L89.5937455,7.57385254 L89.5937455,3.94615173 C89.5937455,3.57500712 89.513001,3.25661977 89.3515122,2.99098969 C89.1900233,2.7253596 88.954097,2.52182007 88.6437333,2.38037109 C88.3333695,2.23892212 87.9546718,2.16819763 87.5076401,2.16819763 C87.1058762,2.16819763 86.7500031,2.22866058 86.4400208,2.34958649 C86.1300385,2.47051239 85.8799469,2.63924917 85.6897461,2.85579681 C85.4995453,3.07234446 85.3831589,3.32613627 85.3405869,3.61717224 L85.3357041,3.65272522 L86.3572037,3.65272522 L86.3630021,3.63624573 C86.4271907,3.44790141 86.5527324,3.3022054 86.7396271,3.19915771 C86.9265219,3.09611003 87.1670894,3.04458618 87.4613297,3.04458618 C87.8182328,3.04458618 88.0872452,3.12182109 88.2683671,3.27629089 C88.4494889,3.4307607 88.5400498,3.65404765 88.5400498,3.94615173 L88.5400498,5.6136322 C88.5400498,5.84159851 88.4809856,6.04606628 88.3628571,6.22703552 C88.2447286,6.40800476 88.0827566,6.55119578 87.876941,6.65660858 C87.6711253,6.76202138 87.4361781,6.81472778 87.1720994,6.81472778 C86.8876247,6.81472778 86.6526775,6.74634298 86.4672577,6.60957336 C86.281838,6.47280375 86.1891282,6.28260295 86.1891282,6.03897095 L86.1891282,6.02920532 C86.1891282,5.79203288 86.2749716,5.60735067 86.4466584,5.47515869 C86.6183452,5.34296672 86.8867854,5.26639303 87.2519791,5.24543762 L89.0669358,5.12908936 L89.0669358,4.38056946 L87.1091568,4.49867249 C86.6879125,4.52262878 86.3295853,4.59898631 86.0341752,4.72774506 C85.738765,4.8565038 85.5141048,5.0338618 85.3601944,5.25981903 C85.2062841,5.48577627 85.129329,5.75678507 85.129329,6.07284546 L85.129329,6.08261108 C85.129329,6.40401204 85.2057374,6.68340047 85.3585541,6.92077637 C85.5113709,7.15815226 85.7202892,7.34135946 85.9853089,7.47039795 C86.2503286,7.59943644 86.5503291,7.66395569 86.8853104,7.66395569 Z" id="Path" fill="#A77300"></path>
                <path d="M93.2089972,7.60574341 C93.3133165,7.60574341 93.4140754,7.60041555 93.5112739,7.58975983 C93.6084723,7.57910411 93.698957,7.56665548 93.7827277,7.55241394 L93.7827277,6.70623779 C93.708214,6.71274821 93.6429063,6.71778361 93.5868049,6.72134399 C93.5307034,6.72490438 93.4622169,6.72668457 93.3813453,6.72668457 C93.1198605,6.72668457 92.9318722,6.66330973 92.8173804,6.53656006 C92.7028886,6.40981038 92.6456428,6.20435079 92.6456428,5.92018127 L92.6456428,3.10821533 L93.7827277,3.10821533 L93.7827277,2.26898193 L92.6456428,2.26898193 L92.6456428,0.93536377 L91.5608191,0.93536377 L91.5608191,2.26898193 L90.7316566,2.26898193 L90.7316566,3.10821533 L91.5608191,3.10821533 L91.5608191,6.17713928 C91.5608191,6.685613 91.6901374,7.05083211 91.9487739,7.27279663 C92.2074103,7.49476115 92.6274848,7.60574341 93.2089972,7.60574341 Z" id="Path" fill="#A77300"></path>
                <path d="M97.3046362,7.67471313 C97.6443477,7.67471313 97.9458741,7.63109843 98.2092154,7.54386902 C98.4725567,7.45663961 98.6974585,7.34100342 98.8839209,7.19696045 C99.0703833,7.05291748 99.2206442,6.89409892 99.3347037,6.72050476 C99.4487631,6.5469106 99.5276892,6.37268066 99.5714819,6.19781494 L99.5821631,6.1542511 L98.5570776,6.15516663 L98.5393775,6.19369507 C98.4985348,6.28412882 98.4256232,6.37667338 98.3206427,6.47132874 C98.2156622,6.56598409 98.0806601,6.64511363 97.9156363,6.70871735 C97.7506125,6.77232107 97.5546515,6.80412292 97.3277533,6.80412292 C97.0314276,6.80412292 96.7748765,6.73839569 96.5581,6.60694122 C96.3413235,6.47548676 96.1743923,6.28636678 96.0573065,6.0395813 C95.9402208,5.79279582 95.8816779,5.49535116 95.8816779,5.14724731 L95.8816779,4.72351074 C95.8816779,4.3594869 95.9415559,4.05207316 96.061312,3.80126953 C96.181068,3.5504659 96.3440828,3.360672 96.5503561,3.23188782 C96.7566295,3.10310364 96.9915005,3.03871155 97.2549689,3.03871155 C97.5190985,3.03871155 97.7521511,3.10044607 97.9541266,3.2239151 C98.1561021,3.34738413 98.314323,3.53318532 98.4287894,3.78131866 C98.5432557,4.02945201 98.6004889,4.34351603 98.6004889,4.72351074 L98.6004889,5.14549255 L99.1116583,4.44297791 L95.3525794,4.44297791 L95.3525794,5.20050049 L99.638468,5.20050049 L99.638468,4.82818604 C99.638468,4.29692586 99.5424775,3.83190155 99.3504965,3.4331131 C99.1585155,3.03432465 98.8839463,2.72380829 98.5267889,2.50156403 C98.1696316,2.27931976 97.7437588,2.16819763 97.2491705,2.16819763 C96.756566,2.16819763 96.3273362,2.28360494 95.9614813,2.51441956 C95.5956264,2.74523417 95.3127285,3.06751251 95.1127875,3.48125458 C94.9128465,3.89499664 94.812876,4.3787384 94.812876,4.93247986 L94.812876,4.93736267 C94.812876,5.4964447 94.9129991,5.98086039 95.1132452,6.39060974 C95.3134914,6.80035909 95.5994284,7.11681366 95.9710562,7.33997345 C96.342684,7.56313324 96.7872107,7.67471313 97.3046362,7.67471313 Z" id="Path" fill="#A77300"></path>
                <path d="M101.830916,7.64953613 C102.034774,7.64953613 102.205265,7.58015951 102.342391,7.44140625 C102.479517,7.30265299 102.548079,7.13447571 102.548079,6.93687439 C102.548079,6.73662821 102.479517,6.56778971 102.342391,6.43035889 C102.205265,6.29292806 102.034774,6.22421265 101.830916,6.22421265 C101.630365,6.22421265 101.460713,6.29292806 101.321959,6.43035889 C101.183206,6.56778971 101.11383,6.73662821 101.11383,6.93687439 C101.11383,7.13447571 101.183206,7.30265299 101.321959,7.44140625 C101.460713,7.58015951 101.630365,7.64953613 101.830916,7.64953613 Z" id="Path" fill="#A77300"></path>
                <path d="M104.303966,7.57385254 L105.364833,7.57385254 L105.364833,2.26898193 L104.303966,2.26898193 L104.303966,7.57385254 Z M104.838328,1.32316589 C105.022604,1.32316589 105.179617,1.25822703 105.309367,1.1283493 C105.439118,0.998471578 105.503993,0.843048096 105.503993,0.662078857 C105.503993,0.477803548 105.439118,0.321388245 105.309367,0.192832947 C105.179617,0.0642776489 105.022604,0 104.838328,0 C104.657359,0 104.501185,0.0642776489 104.369807,0.192832947 C104.238429,0.321388245 104.17274,0.477803548 104.17274,0.662078857 C104.17274,0.843048096 104.238429,0.998471578 104.369807,1.1283493 C104.501185,1.25822703 104.657359,1.32316589 104.838328,1.32316589 Z" id="Shape" fill="#A77300"></path>
                <path d="M109.267225,7.67471313 C109.787652,7.67471313 110.234798,7.56409963 110.608664,7.34287262 C110.982529,7.12164561 111.270615,6.80549622 111.472921,6.39442444 C111.675227,5.98335266 111.776381,5.49367269 111.776381,4.92538452 L111.776381,4.9156189 C111.776381,4.34651693 111.67477,3.85656993 111.471548,3.44577789 C111.268326,3.03498586 110.979795,2.71935781 110.605955,2.49889374 C110.232115,2.27842967 109.785872,2.16819763 109.267225,2.16819763 C108.751885,2.16819763 108.306621,2.27858226 107.931433,2.4993515 C107.556245,2.72012075 107.2669,3.03590139 107.063398,3.44669342 C106.859897,3.85748545 106.758146,4.34712728 106.758146,4.9156189 L106.758146,4.92538452 C106.758146,5.49367269 106.859452,5.98335266 107.062063,6.39442444 C107.264675,6.80549622 107.553574,7.12164561 107.928762,7.34287262 C108.303951,7.56409963 108.750105,7.67471313 109.267225,7.67471313 Z M109.267225,6.78840637 C108.96444,6.78840637 108.707342,6.71461741 108.495932,6.56703949 C108.284521,6.41946157 108.122994,6.20694478 108.011351,5.92948914 C107.899707,5.65203349 107.843885,5.31763713 107.843885,4.92630005 L107.843885,4.91653442 C107.843885,4.52372233 107.89986,4.18874105 108.011808,3.91159058 C108.123757,3.6344401 108.285437,3.42229207 108.496847,3.27514648 C108.708258,3.1280009 108.96505,3.0544281 109.267225,3.0544281 C109.570011,3.0544281 109.826969,3.1280009 110.038099,3.27514648 C110.24923,3.42229207 110.410757,3.6344401 110.52268,3.91159058 C110.634604,4.18874105 110.690565,4.52372233 110.690565,4.91653442 L110.690565,4.92630005 C110.690565,5.31702677 110.634756,5.65111796 110.523138,5.92857361 C110.41152,6.20602926 110.250146,6.41869863 110.039015,6.56658173 C109.827884,6.71446482 109.570621,6.78840637 109.267225,6.78840637 Z" id="Shape" fill="#A77300"></path>
            </g>
            <g id="20367-отзывов" transform="translate(109.9758, 46.8958)" fill="#696969" fill-rule="nonzero">
                <path d="M0.0871582031,10.1041565 L6.73884583,10.1041565 L6.73884583,8.79368591 L1.79112244,8.79368591 L2.1847229,9.057724 L2.1847229,8.36750793 L1.78556824,9.057724 L4.27267456,6.57627869 C4.87138875,5.98276265 5.33815511,5.47626241 5.67297363,5.05677795 C6.00779215,4.6372935 6.24306234,4.25229136 6.37878418,3.90177155 C6.51450602,3.55125173 6.58236694,3.18957011 6.58236694,2.81672668 L6.58236694,2.79931641 C6.58236694,2.25358073 6.44425964,1.77063243 6.16804504,1.3504715 C5.89183044,0.930310567 5.51291656,0.600191752 5.03130341,0.360115051 C4.54969025,0.12003835 4.00258382,0 3.38998413,0 C2.72846476,0 2.14324443,0.130826314 1.63432312,0.392478943 C1.12540181,0.654131571 0.726710002,1.01627604 0.438247681,1.47891235 C0.14978536,1.94154867 0.00370279948,2.47332764 0,3.07424927 L0.0111083984,3.08984375 L1.4552002,3.09539795 L1.46075439,3.07296753 C1.46075439,2.71315511 1.5377655,2.39838155 1.69178772,2.12864685 C1.84580994,1.85891215 2.06153361,1.64836884 2.33895874,1.49701691 C2.61638387,1.34566498 2.93810018,1.26998901 3.30410767,1.26998901 C3.66477458,1.26998901 3.97470601,1.34263865 4.23390198,1.48793793 C4.49309794,1.6332372 4.69267527,1.83174642 4.83263397,2.08346558 C4.97259267,2.33518473 5.04257202,2.62208049 5.04257202,2.94415283 L5.04257202,2.96166992 C5.04257202,3.22784424 4.99367015,3.47710673 4.89586639,3.7094574 C4.79806264,3.94180806 4.62732442,4.20556132 4.38365173,4.50071716 C4.13997904,4.79587301 3.80056763,5.17006938 3.36541748,5.62330627 L0.0871582031,9.05847168 L0.0871582031,10.1041565 Z" id="Path"></path>
                <path d="M12.071301,10.3440552 C12.8313718,10.3440552 13.4830823,10.1342239 14.0264325,9.71456146 C14.5697827,9.29489899 14.9878608,8.69841003 15.2806668,7.9250946 C15.5734728,7.15177917 15.7198758,6.23522949 15.7198758,5.17544556 L15.7198758,5.16177368 C15.7198758,4.10198975 15.5734728,3.18657939 15.2806668,2.4155426 C14.9878608,1.64450582 14.5697827,1.04915619 14.0264325,0.629493713 C13.4830823,0.209831238 12.8313718,0 12.071301,0 C11.3112302,0 10.6602317,0.209831238 10.1183057,0.629493713 C9.57637962,1.04915619 9.15974347,1.64450582 8.86839724,2.4155426 C8.577051,3.18657939 8.43137789,4.10198975 8.43137789,5.16177368 L8.43137789,5.17544556 C8.43137789,6.23522949 8.577051,7.15177917 8.86839724,7.9250946 C9.15974347,8.69841003 9.57637962,9.29489899 10.1183057,9.71456146 C10.6602317,10.1342239 11.3112302,10.3440552 12.071301,10.3440552 Z M12.071301,9.06658936 C11.6319496,9.06658936 11.2562935,8.909434 10.9443326,8.59512329 C10.6323717,8.28081258 10.3937904,7.83314768 10.2285886,7.2521286 C10.0633868,6.67110952 9.98078585,5.97888184 9.98078585,5.17544556 L9.98078585,5.16177368 C9.98078585,4.35748291 10.0633868,3.66596731 10.2285886,3.08722687 C10.3937904,2.50848643 10.6323717,2.06311798 10.9443326,1.75112152 C11.2562935,1.43912506 11.6319496,1.28312683 12.071301,1.28312683 C12.5143552,1.28312683 12.8918627,1.43912506 13.2038236,1.75112152 C13.5157844,2.06311798 13.7550956,2.50848643 13.9217572,3.08722687 C14.0884188,3.66596731 14.1717496,4.35748291 14.1717496,5.16177368 L14.1717496,5.17544556 C14.1717496,5.97888184 14.0884188,6.67110952 13.9217572,7.2521286 C13.7550956,7.83314768 13.5157844,8.28081258 13.2038236,8.59512329 C12.8918627,8.909434 12.5143552,9.06658936 12.071301,9.06658936 Z" id="Shape"></path>
                <path d="M20.9768686,10.2882996 C21.6778371,10.2882996 22.2966674,10.1636861 22.8333597,9.91445923 C23.370052,9.66523234 23.7908894,9.32081858 24.0958719,8.88121796 C24.4008544,8.44161733 24.5533457,7.93958537 24.5533457,7.37512207 L24.5533457,7.3614502 C24.5533457,6.67130534 24.3318186,6.11673991 23.8887644,5.69775391 C23.4457102,5.2787679 22.8616292,5.03797913 22.1365213,4.97538757 L22.1365213,4.94302368 C22.5374918,4.85892741 22.8945805,4.71373494 23.2077875,4.50744629 C23.5209945,4.30115763 23.7673019,4.04140981 23.9467096,3.72820282 C24.1261174,3.41499583 24.2158213,3.05477397 24.2158213,2.64753723 L24.2158213,2.63386536 C24.2158213,2.12337748 24.081844,1.67535655 23.8138895,1.28980255 C23.545935,0.904248556 23.1681604,0.602185567 22.6805658,0.383613586 C22.1929712,0.165041606 21.6201232,0.0557556152 20.9620218,0.0557556152 C20.3192301,0.0557556152 19.7527908,0.170542399 19.2627039,0.400115967 C18.772617,0.629689535 18.3807789,0.951263428 18.0871897,1.36483765 C17.7936004,1.77841187 17.6207081,2.26369222 17.5685129,2.82067871 L17.561677,2.89533997 L19.006196,2.89533997 L19.013032,2.82826233 C19.046998,2.51729838 19.1484512,2.24834696 19.3173914,2.02140808 C19.4863316,1.7944692 19.711882,1.61983236 19.9940424,1.49749756 C20.2762028,1.37516276 20.5988626,1.31399536 20.9620218,1.31399536 C21.3346516,1.31399536 21.6518997,1.37382762 21.9137659,1.49349213 C22.1756322,1.61315664 22.3748891,1.78581746 22.5115366,2.01147461 C22.6481841,2.23713175 22.7165079,2.51017761 22.7165079,2.83061218 L22.7165079,2.84428406 C22.7165079,3.14898173 22.6374318,3.42005157 22.4792795,3.65749359 C22.3211273,3.89493561 22.1000096,4.08123271 21.8159266,4.21638489 C21.5318435,4.35153707 21.2022053,4.41911316 20.8270121,4.41911316 L19.6744089,4.41911316 L19.6744089,5.61743164 L20.8716593,5.61743164 C21.5292622,5.61743164 22.0469777,5.76655833 22.4248056,6.06481171 C22.8026336,6.36306508 22.9915476,6.79061381 22.9915476,7.34745789 L22.9915476,7.36112976 C22.9915476,7.68241882 22.9075047,7.9667511 22.739419,8.21412659 C22.5713332,8.46150208 22.3362767,8.65516917 22.0342493,8.79512787 C21.7322219,8.93508657 21.3793701,9.00506592 20.9756937,9.00506592 C20.5682433,9.00506592 20.2093744,8.94037374 19.899087,8.81098938 C19.5887995,8.68160502 19.3418334,8.50262451 19.1581888,8.27404785 C18.9745442,8.04547119 18.8671986,7.78235881 18.8361521,7.48471069 L18.8280344,7.41389465 L17.355958,7.41389465 L17.3627939,7.49710083 C17.4091501,8.04169718 17.5849441,8.52389781 17.8901758,8.9437027 C18.1954075,9.36350759 18.6105661,9.69255829 19.1356516,9.9308548 C19.660737,10.1691513 20.2744761,10.2882996 20.9768686,10.2882996 Z" id="Path"></path>
                <path d="M29.9656591,10.3453369 C30.6594356,10.3453369 31.2748658,10.1964951 31.8119497,9.89881134 C32.3490337,9.60112762 32.7709926,9.1939443 33.0778265,8.67726135 C33.3846604,8.16057841 33.5380774,7.57115682 33.5380774,6.90899658 L33.5380774,6.89532471 C33.5380774,6.26520793 33.4000413,5.70366414 33.1239691,5.21069336 C32.8478969,4.71772257 32.4670782,4.32914225 31.981513,4.04495239 C31.4959478,3.76076253 30.9391038,3.6186676 30.3109808,3.6186676 C29.8647223,3.6186676 29.4686473,3.68805949 29.122756,3.82684326 C28.7768647,3.96562703 28.4864976,4.14871979 28.2516546,4.37612152 C28.0168117,4.60352325 27.838294,4.84913635 27.7161016,5.11296082 L27.4768438,5.11296082 L27.4768438,6.91166687 L27.8826208,6.91166687 L27.8826208,6.90354919 C27.8826208,6.5077769 27.9748526,6.1555659 28.1593161,5.8469162 C28.3437796,5.5382665 28.5936473,5.29596456 28.9089193,5.12001038 C29.2241913,4.94405619 29.5778621,4.8560791 29.9699316,4.8560791 C30.3682674,4.8560791 30.7218669,4.94562276 31.0307302,5.12471008 C31.3395936,5.3037974 31.5821091,5.54992676 31.7582769,5.86309814 C31.9344447,6.17626953 32.0225286,6.53490702 32.0225286,6.93901062 L32.0225286,6.9526825 C32.0225286,7.3438975 31.9302969,7.6989034 31.7458334,8.0177002 C31.5613699,8.33649699 31.3126415,8.58935547 30.9996481,8.77627563 C30.6866547,8.9631958 30.3374345,9.05665588 29.9519873,9.05665588 C29.5673234,9.05665588 29.2182811,8.9613266 28.9048605,8.77066803 C28.5914399,8.58000946 28.3427114,8.32259369 28.1586752,7.99842072 C27.9746389,7.67424774 27.8826208,7.31199646 27.8826208,6.91166687 L27.5823736,5.26730347 C27.5823736,5.20100911 27.5823736,5.13604991 27.5823736,5.07242584 C27.5823736,5.00880178 27.5846523,4.94612122 27.5892096,4.88438416 C27.6165533,4.22877502 27.7152294,3.63006083 27.8852377,3.08824158 C28.055246,2.54642232 28.3145666,2.11310577 28.6631994,1.78829193 C29.0118322,1.46347809 29.4625057,1.30107117 30.0152197,1.30107117 C30.3236202,1.30107117 30.5992473,1.35157522 30.8421011,1.45258331 C31.0849549,1.55359141 31.2921871,1.69508108 31.4637976,1.87705231 C31.6354081,2.05902354 31.7671779,2.27604675 31.859107,2.52812195 L31.885169,2.59829712 L33.4094763,2.59829712 L33.3914251,2.51818848 C33.2853969,2.0197347 33.0770788,1.5822525 32.7664709,1.20574188 C32.455863,0.829231262 32.066268,0.534342448 31.5976858,0.321075439 C31.1291037,0.107808431 30.6036444,0.00117492676 30.0213079,0.00117492676 C29.2079026,0.00117492676 28.5102987,0.211326599 27.9284964,0.631629944 C27.346694,1.05193329 26.8999726,1.65803528 26.5883322,2.44993591 C26.2766918,3.24183655 26.1208715,4.19459534 26.1208715,5.30821228 L26.1208715,5.32188416 C26.1208715,6.22899882 26.226704,7.00105031 26.4383688,7.63803864 C26.6500336,8.27502696 26.9372498,8.79284922 27.3000174,9.19150543 C27.6627849,9.59016164 28.0738846,9.88213094 28.5333166,10.0674133 C28.9927486,10.2526957 29.4701961,10.3453369 29.9656591,10.3453369 Z" id="Path"></path>
                <polygon id="Path" points="35.7408514 10.1041565 37.3524237 10.1041565 41.643363 1.572052 41.643363 0.238616943 34.9207525 0.238616943 34.9207525 1.53851318 40.0890417 1.53851318 40.0890417 1.64169312"></polygon>
                <path d="M50.2058287,10.2477112 C50.9349953,10.2477112 51.5604836,10.0927633 52.0822935,9.78286743 C52.6041034,9.4729716 53.0074237,9.02977498 53.2922544,8.45327759 C53.5770852,7.87678019 53.7195005,7.19204712 53.7195005,6.39907837 L53.7195005,6.38540649 C53.7195005,5.58788045 53.5770852,4.90086873 53.2922544,4.32437134 C53.0074237,3.74787394 52.6029641,3.30581665 52.0788755,2.99819946 C51.554787,2.69058228 50.930438,2.53677368 50.2058287,2.53677368 C49.4857766,2.53677368 48.8625669,2.6917216 48.3361998,3.00161743 C47.8098326,3.31151326 47.4042336,3.75357056 47.1194029,4.32778931 C46.8345722,4.90200806 46.6921568,5.58788045 46.6921568,6.38540649 L46.6921568,6.39907837 C46.6921568,7.19204712 46.8334328,7.87678019 47.1159849,8.45327759 C47.398537,9.02977498 47.8029966,9.4729716 48.3293638,9.78286743 C48.855731,10.0927633 49.4812193,10.2477112 50.2058287,10.2477112 Z M50.2058287,9.00357056 C49.7820005,9.00357056 49.4219745,8.89989217 49.1257505,8.6925354 C48.8295266,8.48517863 48.6028013,8.18781535 48.4455748,7.80044556 C48.2883482,7.41307576 48.2097349,6.94595337 48.2097349,6.39907837 L48.2097349,6.38540649 C48.2097349,5.8339742 48.2883482,5.36457316 48.4455748,4.97720337 C48.6028013,4.58983358 48.8295266,4.2924703 49.1257505,4.08511353 C49.4219745,3.87775675 49.7820005,3.77407837 50.2058287,3.77407837 C50.6296568,3.77407837 50.9896828,3.87775675 51.2859068,4.08511353 C51.5821308,4.2924703 51.8077167,4.58983358 51.9626646,4.97720337 C52.1176125,5.36457316 52.1950865,5.8339742 52.1950865,6.38540649 L52.1950865,6.39907837 C52.1950865,6.94595337 52.1176125,7.41307576 51.9626646,7.80044556 C51.8077167,8.18781535 51.5821308,8.48517863 51.2859068,8.6925354 C50.9896828,8.89989217 50.6296568,9.00357056 50.2058287,9.00357056 Z" id="Shape"></path>
                <polygon id="Path" points="60.5595336 2.67733765 54.4005675 2.67733765 54.4005675 3.85472107 56.7374969 3.85472107 56.7374969 10.1041565 58.2227111 10.1041565 58.2227111 3.85472107 60.5595336 3.85472107"></polygon>
                <path d="M64.6706724,10.2509155 C65.2841978,10.2509155 65.8188073,10.1526133 66.2745008,9.95600891 C66.7301944,9.7594045 67.0837049,9.48603821 67.3350325,9.13591003 C67.58636,8.78578186 67.7120237,8.38075256 67.7120237,7.92082214 L67.7120237,7.90715027 C67.7120237,7.63043722 67.6559833,7.381869 67.5439024,7.16144562 C67.4318215,6.94102224 67.2627745,6.75540161 67.0367613,6.60458374 C66.8107481,6.45376587 66.5292641,6.34460449 66.1923094,6.27709961 L66.1923094,6.16270447 C66.5786111,6.07191467 66.8861214,5.88134511 67.1148405,5.59099579 C67.3435596,5.30064646 67.4579191,4.96321106 67.4579191,4.57868958 L67.4579191,4.5650177 C67.4579191,4.15550232 67.3485975,3.79836019 67.1299543,3.49359131 C66.9113111,3.18882243 66.5973209,2.95212809 66.1879835,2.7835083 C65.7786462,2.61488851 65.286156,2.53057861 64.7105131,2.53057861 C64.1473316,2.53057861 63.6571557,2.61650848 63.2399855,2.78836823 C62.8228153,2.96022797 62.4908628,3.20213826 62.2441282,3.51409912 C61.9973936,3.82605998 61.8444039,4.1923879 61.7851591,4.61308289 L61.7783232,4.66339111 L63.2036161,4.66339111 L63.2104521,4.6280365 C63.2654956,4.34598287 63.4248584,4.12212372 63.6885405,3.95645905 C63.9522225,3.79079437 64.283267,3.70796204 64.681674,3.70796204 C65.1255115,3.70796204 65.4578733,3.80412801 65.6787596,3.99645996 C65.8996458,4.18879191 66.0100889,4.43007914 66.0100889,4.72032166 L66.0100889,4.73399353 C66.0100889,5.07251485 65.8963703,5.33110555 65.6689329,5.50976562 C65.4414956,5.6884257 65.1020842,5.77775574 64.6506987,5.77775574 L63.5498991,5.77775574 L63.5498991,6.85740662 L64.6557188,6.85740662 C65.1739683,6.85740662 65.5679604,6.94486745 65.8376951,7.11978912 C66.1074298,7.2947108 66.2422972,7.56307475 66.2422972,7.92488098 L66.2422972,7.93855286 C66.2422972,8.26966858 66.1027835,8.54161072 65.8237562,8.75437927 C65.5447289,8.96714783 65.1566292,9.0735321 64.6594572,9.0735321 C64.2395455,9.0735321 63.8875837,8.99030813 63.6035719,8.82386017 C63.3195601,8.65741221 63.1379627,8.42796326 63.0587797,8.13551331 L63.0451078,8.08328247 L61.5782652,8.08328247 L61.5851011,8.14053345 C61.6385781,8.58714803 61.8060408,8.96723684 62.0874891,9.28079987 C62.3689375,9.59436289 62.7327553,9.8344396 63.1789427,10.00103 C63.62513,10.1676203 64.1223733,10.2509155 64.6706724,10.2509155 Z" id="Path"></path>
                <path d="M69.4689531,10.1041565 L72.4141741,10.1041565 C73.2740068,10.1041565 73.9591672,9.87314097 74.469655,9.41110992 C74.9801429,8.94907888 75.2353868,8.32834371 75.2353868,7.54890442 L75.2353868,7.53523254 C75.2353868,6.75579325 74.9801429,6.13484446 74.469655,5.67238617 C73.9591672,5.20992788 73.2740068,4.97869873 72.4141741,4.97869873 L70.9542742,4.97869873 L70.9542742,2.67733765 L69.4689531,2.67733765 L69.4689531,10.1041565 Z M72.2876024,6.15351868 C72.7322232,6.15351868 73.0858761,6.27854156 73.3485613,6.52858734 C73.6112464,6.77863312 73.742589,7.11293538 73.742589,7.53149414 L73.742589,7.54516602 C73.742589,7.95995076 73.6121721,8.29432424 73.3513384,8.54828644 C73.0905046,8.80224864 72.735926,8.92922974 72.2876024,8.92922974 L70.9542742,8.92922974 L70.9542742,6.15351868 L72.2876024,6.15351868 Z M76.4866838,10.1041565 L77.9718981,10.1041565 L77.9718981,2.67733765 L76.4866838,2.67733765 L76.4866838,10.1041565 Z" id="Shape"></path>
                <path d="M80.081681,10.1041565 L83.4750831,10.1041565 C84.0187538,10.1041565 84.4852709,10.0155919 84.8746345,9.83846283 C85.2639981,9.66133372 85.5629102,9.41356659 85.7713706,9.09516144 C85.9798311,8.77675629 86.0840614,8.40649414 86.0840614,7.984375 L86.0840614,7.97070312 C86.0840614,7.67440796 86.0184613,7.40825144 85.8872612,7.17223358 C85.756061,6.93621572 85.5721494,6.74103546 85.3355262,6.58669281 C85.0989031,6.43235016 84.8187721,6.33677165 84.4951332,6.29995728 L84.4951332,6.18556213 C84.8598589,6.11599223 85.160747,5.92925008 85.3977973,5.62533569 C85.6348477,5.32142131 85.7533729,4.98008728 85.7533729,4.60133362 L85.7533729,4.58766174 C85.7533729,4.00974019 85.5502886,3.54687246 85.14412,3.19905853 C84.7379514,2.85124461 84.1703549,2.67733765 83.4413307,2.67733765 L80.081681,2.67733765 L80.081681,10.1041565 Z M81.5543983,9.01072693 L81.5543983,6.8591156 L83.092591,6.8591156 C83.5836392,6.8591156 83.9519254,6.94506327 84.1974494,7.11695862 C84.4429735,7.28885396 84.5657356,7.55570475 84.5657356,7.91751099 L84.5657356,7.93118286 C84.5657356,8.27362061 84.4578559,8.53915405 84.2420967,8.7277832 C84.0263374,8.91641235 83.7045855,9.01072693 83.2768409,9.01072693 L81.5543983,9.01072693 Z M81.5543983,5.78704834 L81.5543983,3.77076721 L83.1375587,3.77076721 C83.5305539,3.77076721 83.8200487,3.86196645 84.0060432,4.04436493 C84.1920377,4.22676341 84.2850349,4.46685791 84.2850349,4.76464844 L84.2850349,4.77832031 C84.2850349,5.10288493 84.1781878,5.35214742 83.9644935,5.52610779 C83.7507993,5.70006816 83.4213925,5.78704834 82.9762733,5.78704834 L81.5543983,5.78704834 Z" id="Shape"></path>
                <path d="M90.9440374,10.2477112 C91.6732041,10.2477112 92.2986924,10.0927633 92.8205023,9.78286743 C93.3423122,9.4729716 93.7456325,9.02977498 94.0304632,8.45327759 C94.3152939,7.87678019 94.4577093,7.19204712 94.4577093,6.39907837 L94.4577093,6.38540649 C94.4577093,5.58788045 94.3152939,4.90086873 94.0304632,4.32437134 C93.7456325,3.74787394 93.3411729,3.30581665 92.8170843,2.99819946 C92.2929958,2.69058228 91.6686468,2.53677368 90.9440374,2.53677368 C90.2239854,2.53677368 89.6007757,2.6917216 89.0744085,3.00161743 C88.5480413,3.31151326 88.1424424,3.75357056 87.8576117,4.32778931 C87.5727809,4.90200806 87.4303656,5.58788045 87.4303656,6.38540649 L87.4303656,6.39907837 C87.4303656,7.19204712 87.5716416,7.87678019 87.8541937,8.45327759 C88.1367458,9.02977498 88.5412054,9.4729716 89.0675726,9.78286743 C89.5939398,10.0927633 90.2194281,10.2477112 90.9440374,10.2477112 Z M90.9440374,9.00357056 C90.5202093,9.00357056 90.1601833,8.89989217 89.8639593,8.6925354 C89.5677354,8.48517863 89.3410101,8.18781535 89.1837835,7.80044556 C89.026557,7.41307576 88.9479437,6.94595337 88.9479437,6.39907837 L88.9479437,6.38540649 C88.9479437,5.8339742 89.026557,5.36457316 89.1837835,4.97720337 C89.3410101,4.58983358 89.5677354,4.2924703 89.8639593,4.08511353 C90.1601833,3.87775675 90.5202093,3.77407837 90.9440374,3.77407837 C91.3678656,3.77407837 91.7278916,3.87775675 92.0241156,4.08511353 C92.3203395,4.2924703 92.5459255,4.58983358 92.7008734,4.97720337 C92.8558213,5.36457316 92.9332952,5.8339742 92.9332952,6.38540649 L92.9332952,6.39907837 C92.9332952,6.94595337 92.8558213,7.41307576 92.7008734,7.80044556 C92.5459255,8.18781535 92.3203395,8.48517863 92.0241156,8.6925354 C91.7278916,8.89989217 91.3678656,9.00357056 90.9440374,9.00357056 Z" id="Shape"></path>
                <path d="M96.2005162,10.1041565 L99.5939183,10.1041565 C100.137589,10.1041565 100.604106,10.0155919 100.99347,9.83846283 C101.382833,9.66133372 101.681745,9.41356659 101.890206,9.09516144 C102.098666,8.77675629 102.202897,8.40649414 102.202897,7.984375 L102.202897,7.97070312 C102.202897,7.67440796 102.137297,7.40825144 102.006096,7.17223358 C101.874896,6.93621572 101.690985,6.74103546 101.454361,6.58669281 C101.217738,6.43235016 100.937607,6.33677165 100.613968,6.29995728 L100.613968,6.18556213 C100.978694,6.11599223 101.279582,5.92925008 101.516633,5.62533569 C101.753683,5.32142131 101.872208,4.98008728 101.872208,4.60133362 L101.872208,4.58766174 C101.872208,4.00974019 101.669124,3.54687246 101.262955,3.19905853 C100.856787,2.85124461 100.28919,2.67733765 99.5601659,2.67733765 L96.2005162,2.67733765 L96.2005162,10.1041565 Z M97.6732335,9.01072693 L97.6732335,6.8591156 L99.2114263,6.8591156 C99.7024744,6.8591156 100.070761,6.94506327 100.316285,7.11695862 C100.561809,7.28885396 100.684571,7.55570475 100.684571,7.91751099 L100.684571,7.93118286 C100.684571,8.27362061 100.576691,8.53915405 100.360932,8.7277832 C100.145173,8.91641235 99.8234207,9.01072693 99.3956761,9.01072693 L97.6732335,9.01072693 Z M97.6732335,5.78704834 L97.6732335,3.77076721 L99.2563939,3.77076721 C99.6493891,3.77076721 99.9388839,3.86196645 100.124878,4.04436493 C100.310873,4.22676341 100.40387,4.46685791 100.40387,4.76464844 L100.40387,4.77832031 C100.40387,5.10288493 100.297023,5.35214742 100.083329,5.52610779 C99.8696345,5.70006816 99.5402277,5.78704834 99.0951085,5.78704834 L97.6732335,5.78704834 Z" id="Shape"></path>
            </g>
            <polygon id="star" fill="#F0B726" fill-rule="nonzero" points="203 21 205.5 26.3 211 27.1 207 31.2 207.9 37 203 34.3 198.1 37 199 31.2 195 27.1 200.5 26.3"></polygon>
            <polygon id="star" fill="#F0B726" fill-rule="nonzero" points="181 21 183.5 26.3 189 27.1 185 31.2 185.9 37 181 34.3 176.1 37 177 31.2 173 27.1 178.5 26.3"></polygon>
            <polygon id="star" fill="#F0B726" fill-rule="nonzero" points="159 21 161.5 26.3 167 27.1 163 31.2 163.9 37 159 34.3 154.1 37 155 31.2 151 27.1 156.5 26.3"></polygon>
            <polygon id="star" fill="#F0B726" fill-rule="nonzero" points="137 21 139.5 26.3 145 27.1 141 31.2 141.9 37 137 34.3 132.1 37 133 31.2 129 27.1 134.5 26.3"></polygon>
            <polygon id="star" fill="#F0B726" fill-rule="nonzero" points="115 21 117.5 26.3 123 27.1 119 31.2 119.9 37 115 34.3 110.1 37 111 31.2 107 27.1 112.5 26.3"></polygon>
            <g id="4.9" transform="translate(22.9245, 20.7428)" fill="#000000" fill-rule="nonzero">
                <path d="M18.3383789,37.2571716 L23.8084717,37.2571716 L23.8084717,29.970459 L28.8623962,29.970459 L28.8623962,25.1811523 L23.8084717,25.1811523 L23.8084717,0.618499756 L15.5648499,0.618499756 C14.5325623,2.24323527 13.4960429,3.86869812 12.4552917,5.49488831 C11.4145406,7.12107849 10.3772939,8.7473348 9.34355164,10.3736572 C8.30980937,11.9999797 7.27256266,13.6255086 6.23181152,15.2502441 C5.19106038,16.8749797 4.15030924,18.5004425 3.10955811,20.1266327 C2.06880697,21.7528229 1.0322876,23.3782857 0,25.0030212 L0,29.970459 L18.3383789,29.970459 L18.3383789,37.2571716 Z M5.3062439,25.260498 L5.3062439,25.1216431 C6.16767375,23.7849325 7.02824402,22.4517263 7.88795471,21.1220245 C8.74766541,19.7923228 9.61160787,18.4583232 10.4797821,17.1200256 C11.3479563,15.7817281 12.2119649,14.4477285 13.0718079,13.1180267 C13.9316508,11.788325 14.7914276,10.4586233 15.6511383,9.12892151 C16.510849,7.79921977 17.3714193,6.46601359 18.2328491,5.12930298 L18.3943176,5.12930298 L18.3943176,25.260498 L5.3062439,25.260498 Z" id="Shape"></path>
                <path d="M36.491188,37.6404114 C37.4277318,37.6404114 38.2187424,37.3176727 38.8642197,36.6721954 C39.509697,36.0267181 39.8324356,35.2357076 39.8324356,34.2991638 C39.8324356,33.36262 39.509697,32.5715434 38.8642197,31.9259338 C38.2187424,31.2803243 37.4277318,30.9575195 36.491188,30.9575195 C35.5546443,30.9575195 34.7635676,31.2803243 34.1179581,31.9259338 C33.4723485,32.5715434 33.1495438,33.36262 33.1495438,34.2991638 C33.1495438,35.2357076 33.4723485,36.0267181 34.1179581,36.6721954 C34.7635676,37.3176727 35.5546443,37.6404114 36.491188,37.6404114 Z" id="Path"></path>
                <path d="M58.9983034,0 C56.4156008,0 54.1183443,0.541269938 52.106534,1.62380981 C50.0947237,2.70634969 48.5081402,4.19295756 47.3467836,6.08363342 C46.185427,7.97430929 45.6047487,10.1385295 45.6047487,12.5762939 L45.6047487,12.6270752 C45.6047487,14.9336548 46.124397,16.9947917 47.1636934,18.8104858 C48.2029899,20.62618 49.6331962,22.0541382 51.4543123,23.0943604 C53.2754285,24.1345825 55.3517071,24.6546936 57.6831484,24.6546936 C59.3420026,24.6546936 60.8465293,24.3919271 62.1967287,23.866394 C63.5469281,23.340861 64.6990277,22.634552 65.6530275,21.747467 C66.6070274,20.8603821 67.3278831,19.8659159 67.8155947,18.7640686 L68.3535585,18.7640686 L68.3535585,12.5477295 L66.8205996,12.5477295 L66.8205996,12.5778809 C66.8205996,14.0203857 66.4780245,15.3044637 65.7928743,16.4301147 C65.1077242,17.5557658 64.1754122,18.4384206 62.9959383,19.0780792 C61.8164644,19.7177378 60.4816713,20.0375671 58.991559,20.0375671 C57.5107037,20.0375671 56.1890027,19.7142995 55.0264559,19.0677643 C53.8639091,18.421229 52.9504417,17.5273997 52.2860537,16.3862762 C51.6216656,15.2451528 51.2894716,13.9379985 51.2894716,12.4648132 L51.2894716,12.414032 C51.2894716,10.9948018 51.6362123,9.71006266 52.3296938,8.55981445 C53.0231752,7.40956624 53.9589256,6.49656169 55.1369448,5.82080078 C56.314964,5.14503988 57.625226,4.80715942 59.0677309,4.80715942 C60.5271629,4.80715942 61.842384,5.15198263 63.0133944,5.84162903 C64.1844047,6.53127543 65.1116915,7.45889282 65.7952547,8.6244812 C66.4788179,9.79006958 66.8205996,11.097819 66.8205996,12.5477295 L67.9358034,18.5934753 C67.9358034,18.793691 67.93501,18.9905345 67.933423,19.1840057 C67.9318361,19.377477 67.9225791,19.5743205 67.905652,19.7745361 C67.8286867,22.1816203 67.47216,24.3951009 66.836072,26.414978 C66.1999839,28.4348551 65.2318341,30.0521851 63.9316225,31.2669678 C62.6314109,32.4817505 60.9286521,33.0891418 58.8233461,33.0891418 C57.6638409,33.0891418 56.626991,32.9057872 55.7127962,32.5390778 C54.7986015,32.1723684 54.0243858,31.6534475 53.3901491,30.9823151 C52.7559125,30.3111827 52.265027,29.5258586 51.9174929,28.6263428 L51.8202944,28.3704529 L46.1030397,28.3704529 L46.1700869,28.6679993 C46.563906,30.4855448 47.3411633,32.0843608 48.5018587,33.464447 C49.6625541,34.8445333 51.1226473,35.9247589 52.8821383,36.7051239 C54.6416292,37.4854889 56.6082786,37.8756714 58.7820864,37.8756714 C61.8495913,37.8756714 64.4730908,37.1062826 66.652585,35.5675049 C68.8320793,34.0287272 70.5048189,31.8079071 71.670804,28.9050446 C72.8367891,26.002182 73.4197817,22.5143433 73.4197817,18.4415283 L73.4197817,18.3907471 C73.4197817,15.0971069 73.0262931,12.2865499 72.239316,9.95907593 C71.4523389,7.63160197 70.3805768,5.73285929 69.0240297,4.2628479 C67.6674827,2.79283651 66.1286389,1.71485901 64.4074984,1.02891541 C62.6863578,0.342971802 60.8832928,0 58.9983034,0 Z" id="Path"></path>
            </g>
        </g>
    </g>
</svg>