<?xml version="1.0" encoding="UTF-8"?>
<svg width="260px" height="100px" viewBox="0 0 260 100" version="1.1" xmlns="http://www.w3.org/2000/svg" xmlns:xlink="http://www.w3.org/1999/xlink">
    <title>Dark</title>
    <defs>
        <path d="M22.819426,10 L237.180574,10 C241.638168,10 243.254599,10.4641281 244.884229,11.3356635 C246.513858,12.207199 247.792801,13.4861419 248.664336,15.1157715 C249.535872,16.7454011 250,18.3618323 250,22.819426 L250,77.180574 C250,81.6381677 249.535872,83.2545989 248.664336,84.8842285 C247.792801,86.5138581 246.513858,87.792801 244.884229,88.6643365 C243.254599,89.5358719 241.638168,90 237.180574,90 L22.819426,90 C18.3618323,90 16.7454011,89.5358719 15.1157715,88.6643365 C13.4861419,87.792801 12.207199,86.5138581 11.3356635,84.8842285 C10.4641281,83.2545989 10,81.6381677 10,77.180574 L10,22.819426 C10,18.3618323 10.4641281,16.7454011 11.3356635,15.1157715 C12.207199,13.4861419 13.4861419,12.207199 15.1157715,11.3356635 C16.7454011,10.4641281 18.3618323,10 22.819426,10 Z" id="path-1"></path>
        <filter x="-3.1%" y="-9.4%" width="106.2%" height="118.8%" filterUnits="objectBoundingBox" id="filter-2">
            <feOffset dx="0" dy="0" in="SourceAlpha" result="shadowOffsetOuter1"></feOffset>
            <feGaussianBlur stdDeviation="2.5" in="shadowOffsetOuter1" result="shadowBlurOuter1"></feGaussianBlur>
            <feColorMatrix values="0 0 0 0 0   0 0 0 0 0   0 0 0 0 0  0 0 0 0.05 0" type="matrix" in="shadowBlurOuter1"></feColorMatrix>
        </filter>
    </defs>
    <g id="Dark" stroke="none" stroke-width="1" fill="none" fill-rule="evenodd">
        <g id="Rectangle">
            <use fill="black" fill-opacity="1" filter="url(#filter-2)" xlink:href="#path-1"></use>
            <use fill="#2B2B2B" fill-rule="evenodd" xlink:href="#path-1"></use>
        </g>
        <g id="работает-на-portrate" transform="translate(121.5737, 67.7588)" fill-rule="nonzero">
            <path d="M0,2.01171875 L0.8984375,2.01171875 L0.8984375,2.72949219 L0.91796875,2.72949219 C0.9765625,2.60904948 1.05061849,2.49511719 1.14013672,2.38769531 C1.22965495,2.28027344 1.33707682,2.1866862 1.46240234,2.10693359 C1.58772786,2.02718099 1.73258464,1.96451823 1.89697266,1.91894531 C2.06136068,1.8733724 2.24934896,1.85058594 2.4609375,1.85058594 C2.74088542,1.85058594 3.0094401,1.90429688 3.26660156,2.01171875 C3.52376302,2.11914062 3.7516276,2.28027344 3.95019531,2.49511719 C4.14876302,2.70996094 4.30664062,2.97932943 4.42382812,3.30322266 C4.54101562,3.62711589 4.59960938,4.00390625 4.59960938,4.43359375 C4.59960938,4.97070312 4.54508464,5.42724609 4.43603516,5.80322266 C4.32698568,6.17919922 4.17236328,6.4860026 3.97216797,6.72363281 C3.77197266,6.96126302 3.53027344,7.13378906 3.24707031,7.24121094 C2.96386719,7.34863281 2.64811198,7.40234375 2.29980469,7.40234375 C2.12727865,7.40234375 1.96614583,7.37955729 1.81640625,7.33398438 C1.66666667,7.28841146 1.53238932,7.22900391 1.41357422,7.15576172 C1.29475911,7.08251953 1.19303385,7.00113932 1.10839844,6.91162109 C1.02376302,6.82210286 0.960286458,6.73502604 0.91796875,6.65039062 L0.8984375,6.65039062 L0.8984375,9.30175781 L0,9.30175781 L0,2.01171875 Z M0.87890625,4.65332031 C0.87890625,4.93652344 0.906575521,5.19775391 0.961914062,5.43701172 C1.0172526,5.67626953 1.10270182,5.88378906 1.21826172,6.05957031 C1.33382161,6.23535156 1.47867839,6.37288411 1.65283203,6.47216797 C1.82698568,6.57145182 2.0328776,6.62109375 2.27050781,6.62109375 C2.51790365,6.62109375 2.73193359,6.57145182 2.91259766,6.47216797 C3.09326172,6.37288411 3.2421875,6.23535156 3.359375,6.05957031 C3.4765625,5.88378906 3.56282552,5.67626953 3.61816406,5.43701172 C3.6735026,5.19775391 3.70117188,4.93652344 3.70117188,4.65332031 C3.70117188,4.35709635 3.6735026,4.08528646 3.61816406,3.83789062 C3.56282552,3.59049479 3.4765625,3.37727865 3.359375,3.19824219 C3.2421875,3.01920573 3.09326172,2.88004557 2.91259766,2.78076172 C2.73193359,2.68147786 2.51790365,2.63183594 2.27050781,2.63183594 C2.0328776,2.63183594 1.82698568,2.68147786 1.65283203,2.78076172 C1.47867839,2.88004557 1.33382161,3.01920573 1.21826172,3.19824219 C1.10270182,3.37727865 1.0172526,3.59049479 0.961914062,3.83789062 C0.906575521,4.08528646 0.87890625,4.35709635 0.87890625,4.65332031 Z" id="Shape" fill="#ADADAD"></path>
            <path d="M5.60058594,3.57910156 C5.61035156,3.26009115 5.67057292,2.99072266 5.78125,2.77099609 C5.89192708,2.55126953 6.04166667,2.37304688 6.23046875,2.23632812 C6.41927083,2.09960938 6.64306641,2.00113932 6.90185547,1.94091797 C7.16064453,1.88069661 7.44303385,1.85058594 7.74902344,1.85058594 C8.00292969,1.85058594 8.24951172,1.8766276 8.48876953,1.92871094 C8.72802734,1.98079427 8.94042969,2.06461589 9.12597656,2.18017578 C9.31152344,2.29573568 9.46044922,2.44547526 9.57275391,2.62939453 C9.68505859,2.8133138 9.74121094,3.03710938 9.74121094,3.30078125 L9.74121094,6.34277344 C9.74121094,6.42740885 9.7639974,6.49983724 9.80957031,6.56005859 C9.85514323,6.62027995 9.92838542,6.65039062 10.0292969,6.65039062 C10.0748698,6.65039062 10.1220703,6.64632161 10.1708984,6.63818359 C10.2197266,6.63004557 10.2701823,6.62109375 10.3222656,6.61132812 L10.3222656,7.23144531 C10.2473958,7.25097656 10.1733398,7.26888021 10.1000977,7.28515625 C10.0268555,7.30143229 9.93977865,7.30957031 9.83886719,7.30957031 C9.68261719,7.30957031 9.54833984,7.29654948 9.43603516,7.27050781 C9.32373047,7.24446615 9.22932943,7.20133464 9.15283203,7.14111328 C9.07633464,7.08089193 9.01692708,7.00276693 8.97460938,6.90673828 C8.93229167,6.81070964 8.9046224,6.69270833 8.89160156,6.55273438 C8.78092448,6.67317708 8.66373698,6.78466797 8.54003906,6.88720703 C8.41634115,6.98974609 8.27799479,7.07926432 8.125,7.15576172 C7.97200521,7.23225911 7.80110677,7.29248047 7.61230469,7.33642578 C7.4235026,7.38037109 7.21028646,7.40234375 6.97265625,7.40234375 C6.77083333,7.40234375 6.57470703,7.36979167 6.38427734,7.3046875 C6.19384766,7.23958333 6.02294922,7.14355469 5.87158203,7.01660156 C5.72021484,6.88964844 5.59895833,6.73258464 5.5078125,6.54541016 C5.41666667,6.35823568 5.37109375,6.14095052 5.37109375,5.89355469 C5.37109375,5.6233724 5.41666667,5.3898112 5.5078125,5.19287109 C5.59895833,4.99593099 5.71777344,4.83154297 5.86425781,4.69970703 C6.01074219,4.56787109 6.17838542,4.46614583 6.3671875,4.39453125 C6.55598958,4.32291667 6.74804688,4.27571615 6.94335938,4.25292969 L8.41308594,4.07226562 C8.5530599,4.05598958 8.66292318,4.00146484 8.74267578,3.90869141 C8.82242839,3.81591797 8.86230469,3.66699219 8.86230469,3.46191406 C8.86230469,3.14615885 8.75895182,2.91910807 8.55224609,2.78076172 C8.34554036,2.64241536 8.0485026,2.57324219 7.66113281,2.57324219 C7.2639974,2.57324219 6.96777344,2.6570638 6.77246094,2.82470703 C6.57714844,2.99235026 6.46647135,3.2438151 6.44042969,3.57910156 L5.60058594,3.57910156 Z M8.84277344,4.58007812 C8.77115885,4.63216146 8.68245443,4.67529297 8.57666016,4.70947266 C8.47086589,4.74365234 8.35449219,4.77213542 8.22753906,4.79492188 C8.10058594,4.81770833 7.96549479,4.83805339 7.82226562,4.85595703 C7.67903646,4.87386068 7.53580729,4.89257812 7.39257812,4.91210938 C7.22981771,4.93489583 7.08007812,4.96744792 6.94335938,5.00976562 C6.80664062,5.05208333 6.68782552,5.10742188 6.58691406,5.17578125 C6.4860026,5.24414062 6.4078776,5.32633464 6.35253906,5.42236328 C6.29720052,5.51839193 6.26953125,5.63151042 6.26953125,5.76171875 C6.26953125,5.91145833 6.29313151,6.04329427 6.34033203,6.15722656 C6.38753255,6.27115885 6.45263672,6.3671875 6.53564453,6.4453125 C6.61865234,6.5234375 6.71875,6.58203125 6.8359375,6.62109375 C6.953125,6.66015625 7.08170573,6.6796875 7.22167969,6.6796875 C7.30957031,6.6796875 7.41048177,6.66910807 7.52441406,6.64794922 C7.63834635,6.62679036 7.75553385,6.59505208 7.87597656,6.55273438 C7.99641927,6.51041667 8.11442057,6.45589193 8.22998047,6.38916016 C8.34554036,6.32242839 8.44889323,6.24186198 8.54003906,6.14746094 C8.6311849,6.0530599 8.70442708,5.94563802 8.75976562,5.82519531 C8.81510417,5.7047526 8.84277344,5.56966146 8.84277344,5.41992188 L8.84277344,4.58007812 Z" id="Shape" fill="#ADADAD"></path>
            <path d="M15.234375,0 C15.2278646,0.048828125 15.2189128,0.108235677 15.2075195,0.178222656 C15.1961263,0.248209635 15.1741536,0.322265625 15.1416016,0.400390625 C15.1090495,0.478515625 15.0642904,0.557454427 15.0073242,0.637207031 C14.9503581,0.716959635 14.8746745,0.791015625 14.7802734,0.859375 C14.7281901,0.895182292 14.6809896,0.926106771 14.6386719,0.952148438 C14.5963542,0.978190104 14.5426432,1.00097656 14.4775391,1.02050781 C14.4124349,1.04003906 14.3294271,1.0563151 14.2285156,1.06933594 C14.1276042,1.08235677 13.992513,1.09049479 13.8232422,1.09375 L13.4521484,1.10351562 C13.1982422,1.11002604 12.9695638,1.16129557 12.7661133,1.25732422 C12.5626628,1.35335286 12.3836263,1.48681641 12.2290039,1.65771484 C12.0743815,1.82861328 11.9466146,2.03450521 11.8457031,2.27539062 C11.7447917,2.51627604 11.6699219,2.78483073 11.6210938,3.08105469 C11.6894531,2.95084635 11.7740885,2.82307943 11.875,2.69775391 C11.9759115,2.57242839 12.101237,2.4601237 12.2509766,2.36083984 C12.4007161,2.26155599 12.5764974,2.18180339 12.7783203,2.12158203 C12.9801432,2.06136068 13.2145182,2.03125 13.4814453,2.03125 C13.7841797,2.03125 14.0714518,2.08496094 14.3432617,2.19238281 C14.6150716,2.29980469 14.8527018,2.4609375 15.0561523,2.67578125 C15.2596029,2.890625 15.4215495,3.15755208 15.5419922,3.4765625 C15.6624349,3.79557292 15.7226562,4.16666667 15.7226562,4.58984375 C15.7226562,4.72330729 15.7128906,4.88525391 15.6933594,5.07568359 C15.6738281,5.26611328 15.6347656,5.46549479 15.5761719,5.67382812 C15.5175781,5.88216146 15.4337565,6.08968099 15.324707,6.29638672 C15.2156576,6.50309245 15.0708008,6.68782552 14.8901367,6.85058594 C14.7094727,7.01334635 14.4897461,7.14599609 14.230957,7.24853516 C13.972168,7.35107422 13.6621094,7.40234375 13.3007812,7.40234375 C13.1510417,7.40234375 12.9923503,7.39013672 12.824707,7.36572266 C12.6570638,7.34130859 12.4894206,7.29654948 12.3217773,7.23144531 C12.1541341,7.16634115 11.9913737,7.07519531 11.8334961,6.95800781 C11.6756185,6.84082031 11.5315755,6.69108073 11.4013672,6.50878906 C11.336263,6.41764323 11.2719727,6.31266276 11.2084961,6.19384766 C11.1450195,6.07503255 11.0872396,5.93098958 11.0351562,5.76171875 C10.9830729,5.59244792 10.941569,5.3922526 10.9106445,5.16113281 C10.8797201,4.93001302 10.8642578,4.65657552 10.8642578,4.34082031 C10.8642578,4.13248698 10.8740234,3.89648438 10.8935547,3.6328125 C10.9130859,3.36914062 10.9472656,3.10058594 10.9960938,2.82714844 C11.0449219,2.55371094 11.110026,2.28922526 11.1914062,2.03369141 C11.2727865,1.77815755 11.3769531,1.55436198 11.5039062,1.36230469 C11.640625,1.15397135 11.7838542,0.984700521 11.9335938,0.854492188 C12.0833333,0.724283854 12.2428385,0.621744792 12.4121094,0.546875 C12.5813802,0.472005208 12.7636719,0.418294271 12.9589844,0.385742188 C13.1542969,0.353190104 13.3658854,0.33203125 13.59375,0.322265625 L13.9111328,0.3125 C14.0152995,0.309244792 14.1040039,0.303548177 14.1772461,0.295410156 C14.2504883,0.287272135 14.3115234,0.2734375 14.3603516,0.25390625 C14.4091797,0.234375 14.4482422,0.205078125 14.4775391,0.166015625 C14.5068359,0.126953125 14.53125,0.0716145833 14.5507812,0 L15.234375,0 Z M11.7626953,4.72167969 C11.7626953,4.81933594 11.7683919,4.93489583 11.7797852,5.06835938 C11.7911784,5.20182292 11.8147786,5.34098307 11.8505859,5.48583984 C11.8863932,5.63069661 11.9384766,5.77473958 12.0068359,5.91796875 C12.0751953,6.06119792 12.1655273,6.18896484 12.277832,6.30126953 C12.3901367,6.41357422 12.5292969,6.50472005 12.6953125,6.57470703 C12.8613281,6.64469401 13.0598958,6.6796875 13.2910156,6.6796875 C13.5481771,6.6796875 13.7646484,6.63818359 13.9404297,6.55517578 C14.1162109,6.47216797 14.2610677,6.36474609 14.375,6.23291016 C14.4889323,6.10107422 14.5760091,5.95540365 14.6362305,5.79589844 C14.6964518,5.63639323 14.7403971,5.48095703 14.7680664,5.32958984 C14.7957357,5.17822266 14.8120117,5.0398763 14.8168945,4.91455078 C14.8217773,4.78922526 14.8242188,4.69401042 14.8242188,4.62890625 C14.8242188,4.39127604 14.7973633,4.15852865 14.7436523,3.93066406 C14.6899414,3.70279948 14.6036784,3.50097656 14.4848633,3.32519531 C14.3660482,3.14941406 14.2114258,3.0078125 14.0209961,2.90039062 C13.8305664,2.79296875 13.5970052,2.73925781 13.3203125,2.73925781 C13.0501302,2.73925781 12.8173828,2.79215495 12.6220703,2.89794922 C12.4267578,3.00374349 12.265625,3.14697266 12.1386719,3.32763672 C12.0117188,3.50830078 11.9173177,3.71826172 11.8554688,3.95751953 C11.7936198,4.19677734 11.7626953,4.4514974 11.7626953,4.72167969 Z" id="Shape" fill="#ADADAD"></path>
            <path d="M20.3857422,4.61914062 C20.3857422,4.32942708 20.3531901,4.0633138 20.2880859,3.82080078 C20.2229818,3.57828776 20.1253255,3.36914062 19.9951172,3.19335938 C19.8649089,3.01757812 19.7045898,2.88004557 19.5141602,2.78076172 C19.3237305,2.68147786 19.1031901,2.63183594 18.8525391,2.63183594 C18.601888,2.63183594 18.3821615,2.68147786 18.1933594,2.78076172 C18.0045573,2.88004557 17.8450521,3.01757812 17.7148438,3.19335938 C17.5846354,3.36914062 17.4869792,3.57828776 17.421875,3.82080078 C17.3567708,4.0633138 17.3242188,4.32942708 17.3242188,4.61914062 C17.3242188,4.91210938 17.3567708,5.18147786 17.421875,5.42724609 C17.4869792,5.67301432 17.5846354,5.88378906 17.7148438,6.05957031 C17.8450521,6.23535156 18.0045573,6.37288411 18.1933594,6.47216797 C18.3821615,6.57145182 18.601888,6.62109375 18.8525391,6.62109375 C19.1031901,6.62109375 19.3237305,6.57145182 19.5141602,6.47216797 C19.7045898,6.37288411 19.8649089,6.23535156 19.9951172,6.05957031 C20.1253255,5.88378906 20.2229818,5.67301432 20.2880859,5.42724609 C20.3531901,5.18147786 20.3857422,4.91210938 20.3857422,4.61914062 Z M21.2841797,4.61914062 C21.2841797,5.04882812 21.2288411,5.43538411 21.1181641,5.77880859 C21.007487,6.12223307 20.8479818,6.41438802 20.6396484,6.65527344 C20.4313151,6.89615885 20.1765951,7.08089193 19.8754883,7.20947266 C19.5743815,7.33805339 19.2333984,7.40234375 18.8525391,7.40234375 C18.4716797,7.40234375 18.1315104,7.33805339 17.8320312,7.20947266 C17.5325521,7.08089193 17.2786458,6.89615885 17.0703125,6.65527344 C16.8619792,6.41438802 16.702474,6.12223307 16.5917969,5.77880859 C16.4811198,5.43538411 16.4257812,5.04882812 16.4257812,4.61914062 C16.4257812,4.19596354 16.4811198,3.81347656 16.5917969,3.47167969 C16.702474,3.12988281 16.8619792,2.83854167 17.0703125,2.59765625 C17.2786458,2.35677083 17.5325521,2.17203776 17.8320312,2.04345703 C18.1315104,1.9148763 18.4716797,1.85058594 18.8525391,1.85058594 C19.2333984,1.85058594 19.5743815,1.9148763 19.8754883,2.04345703 C20.1765951,2.17203776 20.4313151,2.35677083 20.6396484,2.59765625 C20.8479818,2.83854167 21.007487,3.12988281 21.1181641,3.47167969 C21.2288411,3.81347656 21.2841797,4.19596354 21.2841797,4.61914062 Z" id="Shape" fill="#ADADAD"></path>
            <polygon id="Path" fill="#ADADAD" points="23.6865234 2.79296875 21.8847656 2.79296875 21.8847656 2.01171875 26.3867188 2.01171875 26.3867188 2.79296875 24.5849609 2.79296875 24.5849609 7.24121094 23.6865234 7.24121094"></polygon>
            <path d="M27.2851562,3.57910156 C27.2949219,3.26009115 27.3551432,2.99072266 27.4658203,2.77099609 C27.5764974,2.55126953 27.726237,2.37304688 27.9150391,2.23632812 C28.1038411,2.09960938 28.3276367,2.00113932 28.5864258,1.94091797 C28.8452148,1.88069661 29.1276042,1.85058594 29.4335938,1.85058594 C29.6875,1.85058594 29.934082,1.8766276 30.1733398,1.92871094 C30.4125977,1.98079427 30.625,2.06461589 30.8105469,2.18017578 C30.9960938,2.29573568 31.1450195,2.44547526 31.2573242,2.62939453 C31.3696289,2.8133138 31.4257812,3.03710938 31.4257812,3.30078125 L31.4257812,6.34277344 C31.4257812,6.42740885 31.4485677,6.49983724 31.4941406,6.56005859 C31.5397135,6.62027995 31.6129557,6.65039062 31.7138672,6.65039062 C31.7594401,6.65039062 31.8066406,6.64632161 31.8554688,6.63818359 C31.9042969,6.63004557 31.9547526,6.62109375 32.0068359,6.61132812 L32.0068359,7.23144531 C31.9319661,7.25097656 31.8579102,7.26888021 31.784668,7.28515625 C31.7114258,7.30143229 31.624349,7.30957031 31.5234375,7.30957031 C31.3671875,7.30957031 31.2329102,7.29654948 31.1206055,7.27050781 C31.0083008,7.24446615 30.9138997,7.20133464 30.8374023,7.14111328 C30.7609049,7.08089193 30.7014974,7.00276693 30.6591797,6.90673828 C30.616862,6.81070964 30.5891927,6.69270833 30.5761719,6.55273438 C30.4654948,6.67317708 30.3483073,6.78466797 30.2246094,6.88720703 C30.1009115,6.98974609 29.9625651,7.07926432 29.8095703,7.15576172 C29.6565755,7.23225911 29.4856771,7.29248047 29.296875,7.33642578 C29.1080729,7.38037109 28.8948568,7.40234375 28.6572266,7.40234375 C28.4554036,7.40234375 28.2592773,7.36979167 28.0688477,7.3046875 C27.878418,7.23958333 27.7075195,7.14355469 27.5561523,7.01660156 C27.4047852,6.88964844 27.2835286,6.73258464 27.1923828,6.54541016 C27.101237,6.35823568 27.0556641,6.14095052 27.0556641,5.89355469 C27.0556641,5.6233724 27.101237,5.3898112 27.1923828,5.19287109 C27.2835286,4.99593099 27.4023438,4.83154297 27.5488281,4.69970703 C27.6953125,4.56787109 27.8629557,4.46614583 28.0517578,4.39453125 C28.2405599,4.32291667 28.4326172,4.27571615 28.6279297,4.25292969 L30.0976562,4.07226562 C30.2376302,4.05598958 30.3474935,4.00146484 30.4272461,3.90869141 C30.5069987,3.81591797 30.546875,3.66699219 30.546875,3.46191406 C30.546875,3.14615885 30.4435221,2.91910807 30.2368164,2.78076172 C30.0301107,2.64241536 29.7330729,2.57324219 29.3457031,2.57324219 C28.9485677,2.57324219 28.6523438,2.6570638 28.4570312,2.82470703 C28.2617188,2.99235026 28.1510417,3.2438151 28.125,3.57910156 L27.2851562,3.57910156 Z M30.5273438,4.58007812 C30.4557292,4.63216146 30.3670247,4.67529297 30.2612305,4.70947266 C30.1554362,4.74365234 30.0390625,4.77213542 29.9121094,4.79492188 C29.7851562,4.81770833 29.6500651,4.83805339 29.5068359,4.85595703 C29.3636068,4.87386068 29.2203776,4.89257812 29.0771484,4.91210938 C28.914388,4.93489583 28.7646484,4.96744792 28.6279297,5.00976562 C28.4912109,5.05208333 28.3723958,5.10742188 28.2714844,5.17578125 C28.1705729,5.24414062 28.0924479,5.32633464 28.0371094,5.42236328 C27.9817708,5.51839193 27.9541016,5.63151042 27.9541016,5.76171875 C27.9541016,5.91145833 27.9777018,6.04329427 28.0249023,6.15722656 C28.0721029,6.27115885 28.137207,6.3671875 28.2202148,6.4453125 C28.3032227,6.5234375 28.4033203,6.58203125 28.5205078,6.62109375 C28.6376953,6.66015625 28.766276,6.6796875 28.90625,6.6796875 C28.9941406,6.6796875 29.0950521,6.66910807 29.2089844,6.64794922 C29.3229167,6.62679036 29.4401042,6.59505208 29.5605469,6.55273438 C29.6809896,6.51041667 29.7989909,6.45589193 29.9145508,6.38916016 C30.0301107,6.32242839 30.1334635,6.24186198 30.2246094,6.14746094 C30.3157552,6.0530599 30.3889974,5.94563802 30.4443359,5.82519531 C30.4996745,5.7047526 30.5273438,5.56966146 30.5273438,5.41992188 L30.5273438,4.58007812 Z" id="Shape" fill="#ADADAD"></path>
            <path d="M37.3095703,5.57128906 C37.273763,5.79915365 37.195638,6.02213542 37.0751953,6.24023438 C36.9547526,6.45833333 36.796875,6.65364583 36.6015625,6.82617188 C36.40625,6.99869792 36.175944,7.13785807 35.9106445,7.24365234 C35.6453451,7.34944661 35.3515625,7.40234375 35.0292969,7.40234375 C34.6777344,7.40234375 34.3530273,7.3445638 34.0551758,7.22900391 C33.7573242,7.11344401 33.5001628,6.93929036 33.2836914,6.70654297 C33.0672201,6.47379557 32.8971354,6.18164062 32.7734375,5.83007812 C32.6497396,5.47851562 32.5878906,5.06510417 32.5878906,4.58984375 C32.5878906,4.27083333 32.6228841,3.98193359 32.6928711,3.72314453 C32.7628581,3.46435547 32.8572591,3.23323568 32.9760742,3.02978516 C33.0948893,2.82633464 33.2324219,2.65055339 33.3886719,2.50244141 C33.5449219,2.35432943 33.7101237,2.23225911 33.8842773,2.13623047 C34.058431,2.04020182 34.2366536,1.96858724 34.4189453,1.92138672 C34.601237,1.8741862 34.7770182,1.85058594 34.9462891,1.85058594 C35.304362,1.85058594 35.6315104,1.90429688 35.9277344,2.01171875 C36.2239583,2.11914062 36.4786784,2.28271484 36.6918945,2.50244141 C36.9051107,2.72216797 37.0711263,2.99723307 37.1899414,3.32763672 C37.3087565,3.65804036 37.3681641,4.04622396 37.3681641,4.4921875 L37.3681641,4.94140625 L33.5449219,4.94140625 C33.5481771,5.1953125 33.5839844,5.42561849 33.6523438,5.63232422 C33.7207031,5.83902995 33.8183594,6.015625 33.9453125,6.16210938 C34.0722656,6.30859375 34.2260742,6.42171224 34.4067383,6.50146484 C34.5874023,6.58121745 34.7916667,6.62109375 35.0195312,6.62109375 C35.250651,6.62109375 35.4459635,6.58854167 35.6054688,6.5234375 C35.764974,6.45833333 35.8984375,6.37532552 36.0058594,6.27441406 C36.1132812,6.1735026 36.2003581,6.06119792 36.2670898,5.9375 C36.3338216,5.81380208 36.389974,5.69173177 36.4355469,5.57128906 L37.3095703,5.57128906 Z M36.4648438,4.22363281 C36.4583333,3.96972656 36.4200846,3.74348958 36.3500977,3.54492188 C36.2801107,3.34635417 36.1824544,3.17952474 36.0571289,3.04443359 C35.9318034,2.90934245 35.78125,2.80680339 35.6054688,2.73681641 C35.4296875,2.66682943 35.234375,2.63183594 35.0195312,2.63183594 C34.8144531,2.63183594 34.625651,2.67171224 34.453125,2.75146484 C34.280599,2.83121745 34.1292318,2.94189453 33.9990234,3.08349609 C33.8688151,3.22509766 33.7646484,3.39274089 33.6865234,3.58642578 C33.6083984,3.78011068 33.5611979,3.99251302 33.5449219,4.22363281 L36.4648438,4.22363281 Z" id="Shape" fill="#ADADAD"></path>
            <polygon id="Path" fill="#ADADAD" points="39.8095703 2.79296875 38.0078125 2.79296875 38.0078125 2.01171875 42.5097656 2.01171875 42.5097656 2.79296875 40.7080078 2.79296875 40.7080078 7.24121094 39.8095703 7.24121094"></polygon>
            <polygon id="Path" fill="#ADADAD" points="46.1962891 2.01171875 47.0947266 2.01171875 47.0947266 4.12109375 49.5361328 4.12109375 49.5361328 2.01171875 50.4394531 2.01171875 50.4394531 7.24121094 49.5361328 7.24121094 49.5361328 4.90234375 47.0947266 4.90234375 47.0947266 7.24121094 46.1962891 7.24121094"></polygon>
            <path d="M51.7480469,3.57910156 C51.7578125,3.26009115 51.8180339,2.99072266 51.9287109,2.77099609 C52.039388,2.55126953 52.1891276,2.37304688 52.3779297,2.23632812 C52.5667318,2.09960938 52.7905273,2.00113932 53.0493164,1.94091797 C53.3081055,1.88069661 53.5904948,1.85058594 53.8964844,1.85058594 C54.1503906,1.85058594 54.3969727,1.8766276 54.6362305,1.92871094 C54.8754883,1.98079427 55.0878906,2.06461589 55.2734375,2.18017578 C55.4589844,2.29573568 55.6079102,2.44547526 55.7202148,2.62939453 C55.8325195,2.8133138 55.8886719,3.03710938 55.8886719,3.30078125 L55.8886719,6.34277344 C55.8886719,6.42740885 55.9114583,6.49983724 55.9570312,6.56005859 C56.0026042,6.62027995 56.0758464,6.65039062 56.1767578,6.65039062 C56.2223307,6.65039062 56.2695312,6.64632161 56.3183594,6.63818359 C56.3671875,6.63004557 56.4176432,6.62109375 56.4697266,6.61132812 L56.4697266,7.23144531 C56.3948568,7.25097656 56.3208008,7.26888021 56.2475586,7.28515625 C56.1743164,7.30143229 56.0872396,7.30957031 55.9863281,7.30957031 C55.8300781,7.30957031 55.6958008,7.29654948 55.5834961,7.27050781 C55.4711914,7.24446615 55.3767904,7.20133464 55.300293,7.14111328 C55.2237956,7.08089193 55.164388,7.00276693 55.1220703,6.90673828 C55.0797526,6.81070964 55.0520833,6.69270833 55.0390625,6.55273438 C54.9283854,6.67317708 54.8111979,6.78466797 54.6875,6.88720703 C54.5638021,6.98974609 54.4254557,7.07926432 54.2724609,7.15576172 C54.1194661,7.23225911 53.9485677,7.29248047 53.7597656,7.33642578 C53.5709635,7.38037109 53.3577474,7.40234375 53.1201172,7.40234375 C52.9182943,7.40234375 52.722168,7.36979167 52.5317383,7.3046875 C52.3413086,7.23958333 52.1704102,7.14355469 52.019043,7.01660156 C51.8676758,6.88964844 51.7464193,6.73258464 51.6552734,6.54541016 C51.5641276,6.35823568 51.5185547,6.14095052 51.5185547,5.89355469 C51.5185547,5.6233724 51.5641276,5.3898112 51.6552734,5.19287109 C51.7464193,4.99593099 51.8652344,4.83154297 52.0117188,4.69970703 C52.1582031,4.56787109 52.3258464,4.46614583 52.5146484,4.39453125 C52.7034505,4.32291667 52.8955078,4.27571615 53.0908203,4.25292969 L54.5605469,4.07226562 C54.7005208,4.05598958 54.8103841,4.00146484 54.8901367,3.90869141 C54.9698893,3.81591797 55.0097656,3.66699219 55.0097656,3.46191406 C55.0097656,3.14615885 54.9064128,2.91910807 54.699707,2.78076172 C54.4930013,2.64241536 54.1959635,2.57324219 53.8085938,2.57324219 C53.4114583,2.57324219 53.1152344,2.6570638 52.9199219,2.82470703 C52.7246094,2.99235026 52.6139323,3.2438151 52.5878906,3.57910156 L51.7480469,3.57910156 Z M54.9902344,4.58007812 C54.9186198,4.63216146 54.8299154,4.67529297 54.7241211,4.70947266 C54.6183268,4.74365234 54.5019531,4.77213542 54.375,4.79492188 C54.2480469,4.81770833 54.1129557,4.83805339 53.9697266,4.85595703 C53.8264974,4.87386068 53.6832682,4.89257812 53.5400391,4.91210938 C53.3772786,4.93489583 53.2275391,4.96744792 53.0908203,5.00976562 C52.9541016,5.05208333 52.8352865,5.10742188 52.734375,5.17578125 C52.6334635,5.24414062 52.5553385,5.32633464 52.5,5.42236328 C52.4446615,5.51839193 52.4169922,5.63151042 52.4169922,5.76171875 C52.4169922,5.91145833 52.4405924,6.04329427 52.487793,6.15722656 C52.5349935,6.27115885 52.6000977,6.3671875 52.6831055,6.4453125 C52.7661133,6.5234375 52.8662109,6.58203125 52.9833984,6.62109375 C53.1005859,6.66015625 53.2291667,6.6796875 53.3691406,6.6796875 C53.4570312,6.6796875 53.5579427,6.66910807 53.671875,6.64794922 C53.7858073,6.62679036 53.9029948,6.59505208 54.0234375,6.55273438 C54.1438802,6.51041667 54.2618815,6.45589193 54.3774414,6.38916016 C54.4930013,6.32242839 54.5963542,6.24186198 54.6875,6.14746094 C54.7786458,6.0530599 54.851888,5.94563802 54.9072266,5.82519531 C54.9625651,5.7047526 54.9902344,5.56966146 54.9902344,5.41992188 L54.9902344,4.58007812 Z" id="Shape" fill="#ADADAD"></path>
            <path d="M62.2900391,6.65039062 C62.7001953,6.65039062 63.0411784,6.47867839 63.3129883,6.13525391 C63.5847982,5.79182943 63.7207031,5.27832031 63.7207031,4.59472656 C63.7207031,4.1780599 63.6604818,3.81998698 63.5400391,3.52050781 C63.3121745,2.94433594 62.8955078,2.65625 62.2900391,2.65625 C61.6813151,2.65625 61.2646484,2.96061198 61.0400391,3.56933594 C60.9195964,3.89485677 60.859375,4.30826823 60.859375,4.80957031 C60.859375,5.21321615 60.9195964,5.55664062 61.0400391,5.83984375 C61.2679036,6.38020833 61.6845703,6.65039062 62.2900391,6.65039062 Z M60.0146484,2.03613281 L60.8691406,2.03613281 L60.8691406,2.72949219 C61.0449219,2.49186198 61.2369792,2.30794271 61.4453125,2.17773438 C61.7415365,1.98242188 62.0898438,1.88476562 62.4902344,1.88476562 C63.0826823,1.88476562 63.585612,2.11181641 63.9990234,2.56591797 C64.4124349,3.02001953 64.6191406,3.66861979 64.6191406,4.51171875 C64.6191406,5.65104167 64.3212891,6.46484375 63.7255859,6.953125 C63.3479818,7.26236979 62.9085286,7.41699219 62.4072266,7.41699219 C62.0133464,7.41699219 61.6829427,7.33072917 61.4160156,7.15820312 C61.2597656,7.06054688 61.085612,6.89290365 60.8935547,6.65527344 L60.8935547,9.32617188 L60.0146484,9.32617188 L60.0146484,2.03613281 Z" id="Shape" fill="#A77300"></path>
            <path d="M67.7197266,6.67480469 C68.3024089,6.67480469 68.7019857,6.45426432 68.918457,6.01318359 C69.1349284,5.57210286 69.2431641,5.08138021 69.2431641,4.54101562 C69.2431641,4.05273438 69.1650391,3.65559896 69.0087891,3.34960938 C68.7613932,2.86783854 68.3349609,2.62695312 67.7294922,2.62695312 C67.1923828,2.62695312 66.8017578,2.83203125 66.5576172,3.2421875 C66.3134766,3.65234375 66.1914062,4.14713542 66.1914062,4.7265625 C66.1914062,5.28320312 66.3134766,5.74707031 66.5576172,6.11816406 C66.8017578,6.48925781 67.1891276,6.67480469 67.7197266,6.67480469 Z M67.7539062,1.86035156 C68.4277344,1.86035156 68.9973958,2.08496094 69.4628906,2.53417969 C69.9283854,2.98339844 70.1611328,3.64420573 70.1611328,4.51660156 C70.1611328,5.35970052 69.9560547,6.0563151 69.5458984,6.60644531 C69.1357422,7.15657552 68.499349,7.43164062 67.6367188,7.43164062 C66.9173177,7.43164062 66.3460286,7.1883138 65.9228516,6.70166016 C65.4996745,6.21500651 65.2880859,5.56152344 65.2880859,4.74121094 C65.2880859,3.86230469 65.5110677,3.1624349 65.9570312,2.64160156 C66.4029948,2.12076823 67.0019531,1.86035156 67.7539062,1.86035156 Z" id="Shape" fill="#A77300"></path>
            <path d="M71.2304688,2.01171875 L72.0654297,2.01171875 L72.0654297,2.91503906 C72.1337891,2.73925781 72.3014323,2.52522786 72.5683594,2.27294922 C72.8352865,2.02067057 73.1429036,1.89453125 73.4912109,1.89453125 C73.507487,1.89453125 73.5351562,1.89615885 73.5742188,1.89941406 C73.6132812,1.90266927 73.680013,1.90917969 73.7744141,1.91894531 L73.7744141,2.84667969 C73.7223307,2.83691406 73.6743164,2.83040365 73.6303711,2.82714844 C73.5864258,2.82389323 73.5384115,2.82226562 73.4863281,2.82226562 C73.0436198,2.82226562 72.7034505,2.96468099 72.4658203,3.24951172 C72.2281901,3.53434245 72.109375,3.86230469 72.109375,4.23339844 L72.109375,7.24121094 L71.2304688,7.24121094 L71.2304688,2.01171875 Z" id="Path" fill="#A77300"></path>
            <path d="M74.7119141,0.551757812 L75.6005859,0.551757812 L75.6005859,2.01171875 L76.4355469,2.01171875 L76.4355469,2.72949219 L75.6005859,2.72949219 L75.6005859,6.14257812 C75.6005859,6.32486979 75.6624349,6.4469401 75.7861328,6.50878906 C75.8544922,6.54459635 75.9684245,6.5625 76.1279297,6.5625 C76.1702474,6.5625 76.2158203,6.5616862 76.2646484,6.56005859 C76.3134766,6.55843099 76.3704427,6.55436198 76.4355469,6.54785156 L76.4355469,7.24121094 C76.3346354,7.27050781 76.2296549,7.29166667 76.1206055,7.3046875 C76.011556,7.31770833 75.8935547,7.32421875 75.7666016,7.32421875 C75.3564453,7.32421875 75.078125,7.21923828 74.9316406,7.00927734 C74.7851562,6.79931641 74.7119141,6.52669271 74.7119141,6.19140625 L74.7119141,2.72949219 L74.0039062,2.72949219 L74.0039062,2.01171875 L74.7119141,2.01171875 L74.7119141,0.551757812 Z" id="Path" fill="#A77300"></path>
            <path d="M77.3388672,2.01171875 L78.1738281,2.01171875 L78.1738281,2.91503906 C78.2421875,2.73925781 78.4098307,2.52522786 78.6767578,2.27294922 C78.9436849,2.02067057 79.2513021,1.89453125 79.5996094,1.89453125 C79.6158854,1.89453125 79.6435547,1.89615885 79.6826172,1.89941406 C79.7216797,1.90266927 79.7884115,1.90917969 79.8828125,1.91894531 L79.8828125,2.84667969 C79.8307292,2.83691406 79.7827148,2.83040365 79.7387695,2.82714844 C79.6948242,2.82389323 79.6468099,2.82226562 79.5947266,2.82226562 C79.1520182,2.82226562 78.811849,2.96468099 78.5742188,3.24951172 C78.3365885,3.53434245 78.2177734,3.86230469 78.2177734,4.23339844 L78.2177734,7.24121094 L77.3388672,7.24121094 L77.3388672,2.01171875 Z" id="Path" fill="#A77300"></path>
            <path d="M81.3183594,5.84960938 C81.3183594,6.10351562 81.4111328,6.30371094 81.5966797,6.45019531 C81.7822266,6.59667969 82.0019531,6.66992188 82.2558594,6.66992188 C82.5651042,6.66992188 82.8645833,6.59830729 83.1542969,6.45507812 C83.6425781,6.21744792 83.8867188,5.82845052 83.8867188,5.28808594 L83.8867188,4.58007812 C83.7792969,4.6484375 83.6409505,4.70540365 83.4716797,4.75097656 C83.3024089,4.79654948 83.1363932,4.82910156 82.9736328,4.84863281 L82.4414062,4.91699219 C82.1223958,4.9593099 81.883138,5.02604167 81.7236328,5.1171875 C81.4534505,5.27018229 81.3183594,5.51432292 81.3183594,5.84960938 Z M83.4472656,4.07226562 C83.6490885,4.04622396 83.7841797,3.96158854 83.8525391,3.81835938 C83.8916016,3.74023438 83.9111328,3.62792969 83.9111328,3.48144531 C83.9111328,3.18196615 83.8045247,2.96468099 83.5913086,2.82958984 C83.3780924,2.6944987 83.0729167,2.62695312 82.6757812,2.62695312 C82.2167969,2.62695312 81.891276,2.75065104 81.6992188,2.99804688 C81.5917969,3.13476562 81.5218099,3.33821615 81.4892578,3.60839844 L80.6689453,3.60839844 C80.6852214,2.96386719 80.8943685,2.51546224 81.2963867,2.26318359 C81.6984049,2.01090495 82.1647135,1.88476562 82.6953125,1.88476562 C83.3105469,1.88476562 83.8102214,2.00195312 84.1943359,2.23632812 C84.5751953,2.47070312 84.765625,2.83528646 84.765625,3.33007812 L84.765625,6.34277344 C84.765625,6.43391927 84.7843424,6.50716146 84.8217773,6.5625 C84.8592122,6.61783854 84.938151,6.64550781 85.0585938,6.64550781 C85.0976562,6.64550781 85.1416016,6.64306641 85.1904297,6.63818359 C85.2392578,6.63330078 85.2913411,6.62597656 85.3466797,6.61621094 L85.3466797,7.265625 C85.2099609,7.3046875 85.1057943,7.32910156 85.0341797,7.33886719 C84.9625651,7.34863281 84.8649089,7.35351562 84.7412109,7.35351562 C84.4384766,7.35351562 84.21875,7.24609375 84.0820312,7.03125 C84.0104167,6.91731771 83.9599609,6.7561849 83.9306641,6.54785156 C83.7516276,6.78222656 83.4944661,6.98567708 83.1591797,7.15820312 C82.8238932,7.33072917 82.4544271,7.41699219 82.0507812,7.41699219 C81.5657552,7.41699219 81.1694336,7.26969401 80.8618164,6.97509766 C80.5541992,6.6805013 80.4003906,6.31184896 80.4003906,5.86914062 C80.4003906,5.38411458 80.5517578,5.00813802 80.8544922,4.74121094 C81.1572266,4.47428385 81.554362,4.30989583 82.0458984,4.24804688 L83.4472656,4.07226562 Z" id="Shape" fill="#A77300"></path>
            <path d="M86.3818359,0.551757812 L87.2705078,0.551757812 L87.2705078,2.01171875 L88.1054688,2.01171875 L88.1054688,2.72949219 L87.2705078,2.72949219 L87.2705078,6.14257812 C87.2705078,6.32486979 87.3323568,6.4469401 87.4560547,6.50878906 C87.5244141,6.54459635 87.6383464,6.5625 87.7978516,6.5625 C87.8401693,6.5625 87.8857422,6.5616862 87.9345703,6.56005859 C87.9833984,6.55843099 88.0403646,6.55436198 88.1054688,6.54785156 L88.1054688,7.24121094 C88.0045573,7.27050781 87.8995768,7.29166667 87.7905273,7.3046875 C87.6814779,7.31770833 87.5634766,7.32421875 87.4365234,7.32421875 C87.0263672,7.32421875 86.7480469,7.21923828 86.6015625,7.00927734 C86.4550781,6.79931641 86.3818359,6.52669271 86.3818359,6.19140625 L86.3818359,2.72949219 L85.6738281,2.72949219 L85.6738281,2.01171875 L86.3818359,2.01171875 L86.3818359,0.551757812 Z" id="Path" fill="#A77300"></path>
            <path d="M91.1621094,1.89453125 C91.5332031,1.89453125 91.8929036,1.98160807 92.2412109,2.15576172 C92.5895182,2.32991536 92.8548177,2.55533854 93.0371094,2.83203125 C93.2128906,3.09570312 93.3300781,3.40332031 93.3886719,3.75488281 C93.4407552,3.99576823 93.4667969,4.37988281 93.4667969,4.90722656 L89.6337891,4.90722656 C89.6500651,5.43782552 89.7753906,5.86344401 90.0097656,6.18408203 C90.2441406,6.50472005 90.6070964,6.66503906 91.0986328,6.66503906 C91.5576172,6.66503906 91.9238281,6.51367188 92.1972656,6.2109375 C92.3535156,6.03515625 92.4641927,5.83170573 92.5292969,5.60058594 L93.3935547,5.60058594 C93.3707682,5.79264323 93.2950846,6.00667318 93.1665039,6.24267578 C93.0379232,6.47867839 92.8938802,6.67154948 92.734375,6.82128906 C92.4674479,7.08170573 92.1370443,7.25748698 91.7431641,7.34863281 C91.5315755,7.40071615 91.2923177,7.42675781 91.0253906,7.42675781 C90.374349,7.42675781 89.8225911,7.18994141 89.3701172,6.71630859 C88.9176432,6.24267578 88.6914062,5.57942708 88.6914062,4.7265625 C88.6914062,3.88671875 88.9192708,3.2047526 89.375,2.68066406 C89.8307292,2.15657552 90.4264323,1.89453125 91.1621094,1.89453125 Z M92.5634766,4.20898438 C92.5276693,3.828125 92.4446615,3.52376302 92.3144531,3.29589844 C92.0735677,2.87272135 91.6715495,2.66113281 91.1083984,2.66113281 C90.7047526,2.66113281 90.3662109,2.80680339 90.0927734,3.09814453 C89.8193359,3.38948568 89.6744792,3.75976562 89.6582031,4.20898438 L92.5634766,4.20898438 Z" id="Shape" fill="#A77300"></path>
            <polygon id="Path" fill="#A77300" points="94.7558594 6.17675781 95.7763672 6.17675781 95.7763672 7.24121094 94.7558594 7.24121094"></polygon>
            <path d="M97.3242188,2.03613281 L98.2177734,2.03613281 L98.2177734,7.24121094 L97.3242188,7.24121094 L97.3242188,2.03613281 Z M97.3242188,0.068359375 L98.2177734,0.068359375 L98.2177734,1.06445312 L97.3242188,1.06445312 L97.3242188,0.068359375 Z" id="Shape" fill="#A77300"></path>
            <path d="M101.621094,6.67480469 C102.203776,6.67480469 102.603353,6.45426432 102.819824,6.01318359 C103.036296,5.57210286 103.144531,5.08138021 103.144531,4.54101562 C103.144531,4.05273438 103.066406,3.65559896 102.910156,3.34960938 C102.66276,2.86783854 102.236328,2.62695312 101.630859,2.62695312 C101.09375,2.62695312 100.703125,2.83203125 100.458984,3.2421875 C100.214844,3.65234375 100.092773,4.14713542 100.092773,4.7265625 C100.092773,5.28320312 100.214844,5.74707031 100.458984,6.11816406 C100.703125,6.48925781 101.090495,6.67480469 101.621094,6.67480469 Z M101.655273,1.86035156 C102.329102,1.86035156 102.898763,2.08496094 103.364258,2.53417969 C103.829753,2.98339844 104.0625,3.64420573 104.0625,4.51660156 C104.0625,5.35970052 103.857422,6.0563151 103.447266,6.60644531 C103.037109,7.15657552 102.400716,7.43164062 101.538086,7.43164062 C100.818685,7.43164062 100.247396,7.1883138 99.8242188,6.70166016 C99.4010417,6.21500651 99.1894531,5.56152344 99.1894531,4.74121094 C99.1894531,3.86230469 99.4124349,3.1624349 99.8583984,2.64160156 C100.304362,2.12076823 100.90332,1.86035156 101.655273,1.86035156 Z" id="Shape" fill="#A77300"></path>
        </g>
        <g id="500-отзывов" transform="translate(121.1279, 48.6094)" fill="#ADADAD" fill-rule="nonzero">
            <path d="M1.09570312,6.25195312 C1.16601562,6.85351562 1.4453125,7.26953125 1.93359375,7.5 C2.18359375,7.6171875 2.47265625,7.67578125 2.80078125,7.67578125 C3.42578125,7.67578125 3.88867188,7.4765625 4.18945312,7.078125 C4.49023438,6.6796875 4.640625,6.23828125 4.640625,5.75390625 C4.640625,5.16796875 4.46191406,4.71484375 4.10449219,4.39453125 C3.74707031,4.07421875 3.31835938,3.9140625 2.81835938,3.9140625 C2.45507812,3.9140625 2.14355469,3.984375 1.88378906,4.125 C1.62402344,4.265625 1.40234375,4.4609375 1.21875,4.7109375 L0.3046875,4.65820312 L0.943359375,0.140625 L5.30273438,0.140625 L5.30273438,1.16015625 L1.734375,1.16015625 L1.37695312,3.4921875 C1.57226562,3.34375 1.7578125,3.23242188 1.93359375,3.15820312 C2.24609375,3.02929688 2.60742188,2.96484375 3.01757812,2.96484375 C3.78710938,2.96484375 4.43945312,3.21289062 4.97460938,3.70898438 C5.50976562,4.20507812 5.77734375,4.83398438 5.77734375,5.59570312 C5.77734375,6.38867188 5.53222656,7.08789062 5.04199219,7.69335938 C4.55175781,8.29882812 3.76953125,8.6015625 2.6953125,8.6015625 C2.01171875,8.6015625 1.40722656,8.40917969 0.881835938,8.02441406 C0.356445312,7.63964844 0.0625,7.04882812 0,6.25195312 L1.09570312,6.25195312 Z" id="Path"></path>
            <path d="M9.53320312,0 C10.6191406,0 11.4042969,0.447265625 11.8886719,1.34179688 C12.2636719,2.03320312 12.4511719,2.98046875 12.4511719,4.18359375 C12.4511719,5.32421875 12.28125,6.26757812 11.9414062,7.01367187 C11.4492188,8.08398438 10.6445312,8.61914062 9.52734375,8.61914062 C8.51953125,8.61914062 7.76953125,8.18164062 7.27734375,7.30664062 C6.8671875,6.57617188 6.66210938,5.59570312 6.66210938,4.36523438 C6.66210938,3.41210938 6.78515625,2.59375 7.03125,1.91015625 C7.4921875,0.63671875 8.32617188,0 9.53320312,0 Z M9.52148438,7.65820312 C10.0683594,7.65820312 10.5039062,7.41601562 10.828125,6.93164062 C11.1523438,6.44726562 11.3144531,5.54492188 11.3144531,4.22460938 C11.3144531,3.27148438 11.1972656,2.48730469 10.9628906,1.87207031 C10.7285156,1.25683594 10.2734375,0.94921875 9.59765625,0.94921875 C8.9765625,0.94921875 8.52246094,1.24121094 8.23535156,1.82519531 C7.94824219,2.40917969 7.8046875,3.26953125 7.8046875,4.40625 C7.8046875,5.26171875 7.89648438,5.94921875 8.08007812,6.46875 C8.36132812,7.26171875 8.84179688,7.65820312 9.52148438,7.65820312 Z" id="Shape"></path>
            <path d="M16.2070312,0 C17.2929688,0 18.078125,0.447265625 18.5625,1.34179688 C18.9375,2.03320312 19.125,2.98046875 19.125,4.18359375 C19.125,5.32421875 18.9550781,6.26757812 18.6152344,7.01367187 C18.1230469,8.08398438 17.3183594,8.61914062 16.2011719,8.61914062 C15.1933594,8.61914062 14.4433594,8.18164062 13.9511719,7.30664062 C13.5410156,6.57617188 13.3359375,5.59570312 13.3359375,4.36523438 C13.3359375,3.41210938 13.4589844,2.59375 13.7050781,1.91015625 C14.1660156,0.63671875 15,0 16.2070312,0 Z M16.1953125,7.65820312 C16.7421875,7.65820312 17.1777344,7.41601562 17.5019531,6.93164062 C17.8261719,6.44726562 17.9882812,5.54492188 17.9882812,4.22460938 C17.9882812,3.27148438 17.8710938,2.48730469 17.6367188,1.87207031 C17.4023438,1.25683594 16.9472656,0.94921875 16.2714844,0.94921875 C15.6503906,0.94921875 15.1962891,1.24121094 14.9091797,1.82519531 C14.6220703,2.40917969 14.4785156,3.26953125 14.4785156,4.40625 C14.4785156,5.26171875 14.5703125,5.94921875 14.7539062,6.46875 C15.0351562,7.26171875 15.515625,7.65820312 16.1953125,7.65820312 Z" id="Shape"></path>
            <path d="M28.1425781,5.24414062 C28.1425781,4.89648438 28.1035156,4.57714844 28.0253906,4.28613281 C27.9472656,3.99511719 27.8300781,3.74414062 27.6738281,3.53320312 C27.5175781,3.32226562 27.3251953,3.15722656 27.0966797,3.03808594 C26.8681641,2.91894531 26.6035156,2.859375 26.3027344,2.859375 C26.0019531,2.859375 25.7382812,2.91894531 25.5117188,3.03808594 C25.2851562,3.15722656 25.09375,3.32226562 24.9375,3.53320312 C24.78125,3.74414062 24.6640625,3.99511719 24.5859375,4.28613281 C24.5078125,4.57714844 24.46875,4.89648438 24.46875,5.24414062 C24.46875,5.59570312 24.5078125,5.91894531 24.5859375,6.21386719 C24.6640625,6.50878906 24.78125,6.76171875 24.9375,6.97265625 C25.09375,7.18359375 25.2851562,7.34863281 25.5117188,7.46777344 C25.7382812,7.58691406 26.0019531,7.64648438 26.3027344,7.64648438 C26.6035156,7.64648438 26.8681641,7.58691406 27.0966797,7.46777344 C27.3251953,7.34863281 27.5175781,7.18359375 27.6738281,6.97265625 C27.8300781,6.76171875 27.9472656,6.50878906 28.0253906,6.21386719 C28.1035156,5.91894531 28.1425781,5.59570312 28.1425781,5.24414062 Z M29.2207031,5.24414062 C29.2207031,5.75976562 29.1542969,6.22363281 29.0214844,6.63574219 C28.8886719,7.04785156 28.6972656,7.3984375 28.4472656,7.6875 C28.1972656,7.9765625 27.8916016,8.19824219 27.5302734,8.35253906 C27.1689453,8.50683594 26.7597656,8.58398438 26.3027344,8.58398438 C25.8457031,8.58398438 25.4375,8.50683594 25.078125,8.35253906 C24.71875,8.19824219 24.4140625,7.9765625 24.1640625,7.6875 C23.9140625,7.3984375 23.7226562,7.04785156 23.5898438,6.63574219 C23.4570312,6.22363281 23.390625,5.75976562 23.390625,5.24414062 C23.390625,4.73632812 23.4570312,4.27734375 23.5898438,3.8671875 C23.7226562,3.45703125 23.9140625,3.10742188 24.1640625,2.81835938 C24.4140625,2.52929688 24.71875,2.30761719 25.078125,2.15332031 C25.4375,1.99902344 25.8457031,1.921875 26.3027344,1.921875 C26.7597656,1.921875 27.1689453,1.99902344 27.5302734,2.15332031 C27.8916016,2.30761719 28.1972656,2.52929688 28.4472656,2.81835938 C28.6972656,3.10742188 28.8886719,3.45703125 29.0214844,3.8671875 C29.1542969,4.27734375 29.2207031,4.73632812 29.2207031,5.24414062 Z" id="Shape"></path>
            <polygon id="Path" points="32.1035156 3.05273438 29.9414062 3.05273438 29.9414062 2.11523438 35.34375 2.11523438 35.34375 3.05273438 33.1816406 3.05273438 33.1816406 8.390625 32.1035156 8.390625"></polygon>
            <path d="M38.0566406,4.76367188 L38.6015625,4.76367188 C38.7460938,4.76367188 38.8964844,4.74609375 39.0527344,4.7109375 C39.2089844,4.67578125 39.3515625,4.62011719 39.4804688,4.54394531 C39.609375,4.46777344 39.7158203,4.36914062 39.7998047,4.24804688 C39.8837891,4.12695312 39.9257812,3.98046875 39.9257812,3.80859375 C39.9257812,3.68359375 39.8994141,3.56347656 39.8466797,3.44824219 C39.7939453,3.33300781 39.7158203,3.23144531 39.6123047,3.14355469 C39.5087891,3.05566406 39.3789062,2.98632812 39.2226562,2.93554688 C39.0664062,2.88476562 38.8847656,2.859375 38.6777344,2.859375 C38.5683594,2.859375 38.4394531,2.875 38.2910156,2.90625 C38.1425781,2.9375 37.9970703,2.99511719 37.8544922,3.07910156 C37.7119141,3.16308594 37.5849609,3.28222656 37.4736328,3.43652344 C37.3623047,3.59082031 37.2910156,3.79101562 37.2597656,4.03710938 L36.2519531,4.03710938 C36.2792969,3.75585938 36.3359375,3.50878906 36.421875,3.29589844 C36.5078125,3.08300781 36.6152344,2.8984375 36.7441406,2.7421875 C36.8730469,2.5859375 37.0185547,2.45507812 37.1806641,2.34960938 C37.3427734,2.24414062 37.5107422,2.16015625 37.6845703,2.09765625 C37.8583984,2.03515625 38.0332031,1.99023438 38.2089844,1.96289062 C38.3847656,1.93554688 38.5527344,1.921875 38.7128906,1.921875 C38.9941406,1.921875 39.2714844,1.95800781 39.5449219,2.03027344 C39.8183594,2.10253906 40.0634766,2.21191406 40.2802734,2.35839844 C40.4970703,2.50488281 40.671875,2.68945312 40.8046875,2.91210938 C40.9375,3.13476562 41.0039062,3.39453125 41.0039062,3.69140625 C41.0039062,3.8828125 40.9765625,4.05175781 40.921875,4.19824219 C40.8671875,4.34472656 40.7958984,4.47265625 40.7080078,4.58203125 C40.6201172,4.69140625 40.5214844,4.78417969 40.4121094,4.86035156 C40.3027344,4.93652344 40.1953125,5 40.0898438,5.05078125 L40.0898438,5.08007812 C40.1992188,5.09960938 40.3203125,5.13964844 40.453125,5.20019531 C40.5859375,5.26074219 40.7089844,5.34667969 40.8222656,5.45800781 C40.9355469,5.56933594 41.0302734,5.71191406 41.1064453,5.88574219 C41.1826172,6.05957031 41.2207031,6.27148438 41.2207031,6.52148438 C41.2207031,6.87304688 41.1455078,7.17773438 40.9951172,7.43554688 C40.8447266,7.69335938 40.6484375,7.90722656 40.40625,8.07714844 C40.1640625,8.24707031 39.890625,8.37402344 39.5859375,8.45800781 C39.28125,8.54199219 38.9746094,8.58398438 38.6660156,8.58398438 C38.2675781,8.58398438 37.9072266,8.53320312 37.5849609,8.43164062 C37.2626953,8.33007812 36.984375,8.18554688 36.75,7.99804688 C36.515625,7.81054688 36.3291016,7.5859375 36.1904297,7.32421875 C36.0517578,7.0625 35.96875,6.7734375 35.9414062,6.45703125 L37.0253906,6.45703125 C37.0527344,6.6875 37.1191406,6.87890625 37.2246094,7.03125 C37.3300781,7.18359375 37.4570312,7.3046875 37.6054688,7.39453125 C37.7539062,7.484375 37.9189453,7.54882812 38.1005859,7.58789062 C38.2822266,7.62695312 38.4667969,7.64648438 38.6542969,7.64648438 C39.1503906,7.64648438 39.5224609,7.546875 39.7705078,7.34765625 C40.0185547,7.1484375 40.1425781,6.88085938 40.1425781,6.54492188 C40.1425781,6.40039062 40.1201172,6.27148438 40.0751953,6.15820312 C40.0302734,6.04492188 39.9550781,5.94824219 39.8496094,5.86816406 C39.7441406,5.78808594 39.6044922,5.72753906 39.4306641,5.68652344 C39.2568359,5.64550781 39.0410156,5.625 38.7832031,5.625 C38.7324219,5.625 38.6748047,5.62597656 38.6103516,5.62792969 C38.5458984,5.62988281 38.4814453,5.6328125 38.4169922,5.63671875 C38.3525391,5.640625 38.2890625,5.64550781 38.2265625,5.65136719 C38.1640625,5.65722656 38.1074219,5.66210938 38.0566406,5.66601562 L38.0566406,4.76367188 Z" id="Path"></path>
            <path d="M48.4335938,2.11523438 L49.5117188,2.11523438 L49.5117188,8.390625 L48.4335938,8.390625 L48.4335938,2.11523438 Z M42.4335938,2.11523438 L43.5117188,2.11523438 L43.5117188,4.4765625 L45.3984375,4.4765625 C45.7382812,4.4765625 46.0439453,4.52246094 46.3154297,4.61425781 C46.5869141,4.70605469 46.8164062,4.83691406 47.0039062,5.00683594 C47.1914062,5.17675781 47.3349609,5.38183594 47.4345703,5.62207031 C47.5341797,5.86230469 47.5839844,6.1328125 47.5839844,6.43359375 C47.5839844,6.73828125 47.5341797,7.01074219 47.4345703,7.25097656 C47.3349609,7.49121094 47.1914062,7.69628906 47.0039062,7.86621094 C46.8164062,8.03613281 46.5869141,8.16601562 46.3154297,8.25585938 C46.0439453,8.34570312 45.7382812,8.390625 45.3984375,8.390625 L42.4335938,8.390625 L42.4335938,2.11523438 Z M43.5117188,7.52929688 L45.1816406,7.52929688 C45.3691406,7.52929688 45.5439453,7.50976562 45.7060547,7.47070312 C45.8681641,7.43164062 46.0078125,7.36816406 46.125,7.28027344 C46.2421875,7.19238281 46.3339844,7.07910156 46.4003906,6.94042969 C46.4667969,6.80175781 46.5,6.6328125 46.5,6.43359375 C46.5,6.23828125 46.4658203,6.07226562 46.3974609,5.93554688 C46.3291016,5.79882812 46.2333984,5.68652344 46.1103516,5.59863281 C45.9873047,5.51074219 45.8388672,5.44628906 45.6650391,5.40527344 C45.4912109,5.36425781 45.2988281,5.34375 45.0878906,5.34375 L43.5117188,5.34375 L43.5117188,7.52929688 Z" id="Shape"></path>
            <path d="M51.0996094,2.11523438 L53.7714844,2.11523438 C54.5371094,2.11523438 55.1103516,2.2578125 55.4912109,2.54296875 C55.8720703,2.828125 56.0625,3.2421875 56.0625,3.78515625 C56.0625,4.07421875 55.9921875,4.31835938 55.8515625,4.51757812 C55.7109375,4.71679688 55.5253906,4.89257812 55.2949219,5.04492188 C55.6269531,5.16992188 55.890625,5.34960938 56.0859375,5.58398438 C56.28125,5.81835938 56.3789062,6.12109375 56.3789062,6.4921875 C56.3789062,6.78515625 56.3300781,7.04882812 56.2324219,7.28320312 C56.1347656,7.51757812 55.9863281,7.71679688 55.7871094,7.88085938 C55.5878906,8.04492188 55.3349609,8.17089844 55.0283203,8.25878906 C54.7216797,8.34667969 54.359375,8.390625 53.9414062,8.390625 L51.0996094,8.390625 L51.0996094,2.11523438 Z M52.1777344,7.52929688 L53.8183594,7.52929688 C54.1035156,7.52929688 54.3408203,7.50683594 54.5302734,7.46191406 C54.7197266,7.41699219 54.8710938,7.3515625 54.984375,7.265625 C55.0976562,7.1796875 55.1777344,7.07617188 55.2246094,6.95507812 C55.2714844,6.83398438 55.2949219,6.69726562 55.2949219,6.54492188 C55.2949219,6.39257812 55.2714844,6.25488281 55.2246094,6.13183594 C55.1777344,6.00878906 55.0976562,5.90527344 54.984375,5.82128906 C54.8710938,5.73730469 54.7197266,5.67285156 54.5302734,5.62792969 C54.3408203,5.58300781 54.1035156,5.56054688 53.8183594,5.56054688 L52.1777344,5.56054688 L52.1777344,7.52929688 Z M52.1777344,4.76953125 L53.8066406,4.76953125 C54.1699219,4.76953125 54.4570312,4.69726562 54.6679688,4.55273438 C54.8789062,4.40820312 54.984375,4.18359375 54.984375,3.87890625 C54.984375,3.70703125 54.9550781,3.56347656 54.8964844,3.44824219 C54.8378906,3.33300781 54.7597656,3.24023438 54.6621094,3.16992188 C54.5644531,3.09960938 54.4541016,3.04980469 54.3310547,3.02050781 C54.2080078,2.99121094 54.0820312,2.9765625 53.953125,2.9765625 L52.1777344,2.9765625 L52.1777344,4.76953125 Z" id="Shape"></path>
            <path d="M62.0566406,5.24414062 C62.0566406,4.89648438 62.0175781,4.57714844 61.9394531,4.28613281 C61.8613281,3.99511719 61.7441406,3.74414062 61.5878906,3.53320312 C61.4316406,3.32226562 61.2392578,3.15722656 61.0107422,3.03808594 C60.7822266,2.91894531 60.5175781,2.859375 60.2167969,2.859375 C59.9160156,2.859375 59.6523438,2.91894531 59.4257812,3.03808594 C59.1992188,3.15722656 59.0078125,3.32226562 58.8515625,3.53320312 C58.6953125,3.74414062 58.578125,3.99511719 58.5,4.28613281 C58.421875,4.57714844 58.3828125,4.89648438 58.3828125,5.24414062 C58.3828125,5.59570312 58.421875,5.91894531 58.5,6.21386719 C58.578125,6.50878906 58.6953125,6.76171875 58.8515625,6.97265625 C59.0078125,7.18359375 59.1992188,7.34863281 59.4257812,7.46777344 C59.6523438,7.58691406 59.9160156,7.64648438 60.2167969,7.64648438 C60.5175781,7.64648438 60.7822266,7.58691406 61.0107422,7.46777344 C61.2392578,7.34863281 61.4316406,7.18359375 61.5878906,6.97265625 C61.7441406,6.76171875 61.8613281,6.50878906 61.9394531,6.21386719 C62.0175781,5.91894531 62.0566406,5.59570312 62.0566406,5.24414062 Z M63.1347656,5.24414062 C63.1347656,5.75976562 63.0683594,6.22363281 62.9355469,6.63574219 C62.8027344,7.04785156 62.6113281,7.3984375 62.3613281,7.6875 C62.1113281,7.9765625 61.8056641,8.19824219 61.4443359,8.35253906 C61.0830078,8.50683594 60.6738281,8.58398438 60.2167969,8.58398438 C59.7597656,8.58398438 59.3515625,8.50683594 58.9921875,8.35253906 C58.6328125,8.19824219 58.328125,7.9765625 58.078125,7.6875 C57.828125,7.3984375 57.6367188,7.04785156 57.5039062,6.63574219 C57.3710938,6.22363281 57.3046875,5.75976562 57.3046875,5.24414062 C57.3046875,4.73632812 57.3710938,4.27734375 57.5039062,3.8671875 C57.6367188,3.45703125 57.828125,3.10742188 58.078125,2.81835938 C58.328125,2.52929688 58.6328125,2.30761719 58.9921875,2.15332031 C59.3515625,1.99902344 59.7597656,1.921875 60.2167969,1.921875 C60.6738281,1.921875 61.0830078,1.99902344 61.4443359,2.15332031 C61.8056641,2.30761719 62.1113281,2.52929688 62.3613281,2.81835938 C62.6113281,3.10742188 62.8027344,3.45703125 62.9355469,3.8671875 C63.0683594,4.27734375 63.1347656,4.73632812 63.1347656,5.24414062 Z" id="Shape"></path>
            <path d="M64.3476562,2.11523438 L67.0195312,2.11523438 C67.7851562,2.11523438 68.3583984,2.2578125 68.7392578,2.54296875 C69.1201172,2.828125 69.3105469,3.2421875 69.3105469,3.78515625 C69.3105469,4.07421875 69.2402344,4.31835938 69.0996094,4.51757812 C68.9589844,4.71679688 68.7734375,4.89257812 68.5429688,5.04492188 C68.875,5.16992188 69.1386719,5.34960938 69.3339844,5.58398438 C69.5292969,5.81835938 69.6269531,6.12109375 69.6269531,6.4921875 C69.6269531,6.78515625 69.578125,7.04882812 69.4804688,7.28320312 C69.3828125,7.51757812 69.234375,7.71679688 69.0351562,7.88085938 C68.8359375,8.04492188 68.5830078,8.17089844 68.2763672,8.25878906 C67.9697266,8.34667969 67.6074219,8.390625 67.1894531,8.390625 L64.3476562,8.390625 L64.3476562,2.11523438 Z M65.4257812,7.52929688 L67.0664062,7.52929688 C67.3515625,7.52929688 67.5888672,7.50683594 67.7783203,7.46191406 C67.9677734,7.41699219 68.1191406,7.3515625 68.2324219,7.265625 C68.3457031,7.1796875 68.4257812,7.07617188 68.4726562,6.95507812 C68.5195312,6.83398438 68.5429688,6.69726562 68.5429688,6.54492188 C68.5429688,6.39257812 68.5195312,6.25488281 68.4726562,6.13183594 C68.4257812,6.00878906 68.3457031,5.90527344 68.2324219,5.82128906 C68.1191406,5.73730469 67.9677734,5.67285156 67.7783203,5.62792969 C67.5888672,5.58300781 67.3515625,5.56054688 67.0664062,5.56054688 L65.4257812,5.56054688 L65.4257812,7.52929688 Z M65.4257812,4.76953125 L67.0546875,4.76953125 C67.4179688,4.76953125 67.7050781,4.69726562 67.9160156,4.55273438 C68.1269531,4.40820312 68.2324219,4.18359375 68.2324219,3.87890625 C68.2324219,3.70703125 68.203125,3.56347656 68.1445312,3.44824219 C68.0859375,3.33300781 68.0078125,3.24023438 67.9101562,3.16992188 C67.8125,3.09960938 67.7021484,3.04980469 67.5791016,3.02050781 C67.4560547,2.99121094 67.3300781,2.9765625 67.2011719,2.9765625 L65.4257812,2.9765625 L65.4257812,4.76953125 Z" id="Shape"></path>
        </g>
        <path d="M127.207247,28.4569801 C127.076768,28.1777145 126.80104,28 126.498232,28 C126.195423,28 125.922157,28.1777145 125.789217,28.4569801 L124.206242,31.8157838 L120.671015,32.3540048 C120.375592,32.3997028 120.129406,32.6129601 120.038317,32.9049196 C119.947229,33.1968791 120.021084,33.519304 120.232804,33.7351001 L122.79806,36.3525806 L122.192443,40.0515805 C122.143206,40.3562339 122.266299,40.6659649 122.510022,40.8462181 C122.753746,41.0264714 123.07625,41.0493204 123.34213,40.90461 L126.500694,39.1655469 L129.659257,40.90461 C129.925138,41.0493204 130.247641,41.0290102 130.491365,40.8462181 C130.735089,40.6634261 130.858182,40.3562339 130.808944,40.0515805 L130.200866,36.3525806 L132.766121,33.7351001 C132.977841,33.519304 133.054159,33.1968791 132.960608,32.9049196 C132.867057,32.6129601 132.623333,32.3997028 132.327911,32.3540048 L128.790221,31.8157838 L127.207247,28.4569801 Z" id="star" fill="#FFBE19" fill-rule="nonzero"></path>
        <path d="M145.207247,28.4569801 C145.076768,28.1777145 144.80104,28 144.498232,28 C144.195423,28 143.922157,28.1777145 143.789217,28.4569801 L142.206242,31.8157838 L138.671015,32.3540048 C138.375592,32.3997028 138.129406,32.6129601 138.038317,32.9049196 C137.947229,33.1968791 138.021084,33.519304 138.232804,33.7351001 L140.79806,36.3525806 L140.192443,40.0515805 C140.143206,40.3562339 140.266299,40.6659649 140.510022,40.8462181 C140.753746,41.0264714 141.07625,41.0493204 141.34213,40.90461 L144.500694,39.1655469 L147.659257,40.90461 C147.925138,41.0493204 148.247641,41.0290102 148.491365,40.8462181 C148.735089,40.6634261 148.858182,40.3562339 148.808944,40.0515805 L148.200866,36.3525806 L150.766121,33.7351001 C150.977841,33.519304 151.054159,33.1968791 150.960608,32.9049196 C150.867057,32.6129601 150.623333,32.3997028 150.327911,32.3540048 L146.790221,31.8157838 L145.207247,28.4569801 Z" id="star" fill="#FFBE19" fill-rule="nonzero"></path>
        <path d="M163.207247,28.4569801 C163.076768,28.1777145 162.80104,28 162.498232,28 C162.195423,28 161.922157,28.1777145 161.789217,28.4569801 L160.206242,31.8157838 L156.671015,32.3540048 C156.375592,32.3997028 156.129406,32.6129601 156.038317,32.9049196 C155.947229,33.1968791 156.021084,33.519304 156.232804,33.7351001 L158.79806,36.3525806 L158.192443,40.0515805 C158.143206,40.3562339 158.266299,40.6659649 158.510022,40.8462181 C158.753746,41.0264714 159.07625,41.0493204 159.34213,40.90461 L162.500694,39.1655469 L165.659257,40.90461 C165.925138,41.0493204 166.247641,41.0290102 166.491365,40.8462181 C166.735089,40.6634261 166.858182,40.3562339 166.808944,40.0515805 L166.200866,36.3525806 L168.766121,33.7351001 C168.977841,33.519304 169.054159,33.1968791 168.960608,32.9049196 C168.867057,32.6129601 168.623333,32.3997028 168.327911,32.3540048 L164.790221,31.8157838 L163.207247,28.4569801 Z" id="star" fill="#FFBE19" fill-rule="nonzero"></path>
        <path d="M181.207247,28.4569801 C181.076768,28.1777145 180.80104,28 180.498232,28 C180.195423,28 179.922157,28.1777145 179.789217,28.4569801 L178.206242,31.8157838 L174.671015,32.3540048 C174.375592,32.3997028 174.129406,32.6129601 174.038317,32.9049196 C173.947229,33.1968791 174.021084,33.519304 174.232804,33.7351001 L176.79806,36.3525806 L176.192443,40.0515805 C176.143206,40.3562339 176.266299,40.6659649 176.510022,40.8462181 C176.753746,41.0264714 177.07625,41.0493204 177.34213,40.90461 L180.500694,39.1655469 L183.659257,40.90461 C183.925138,41.0493204 184.247641,41.0290102 184.491365,40.8462181 C184.735089,40.6634261 184.858182,40.3562339 184.808944,40.0515805 L184.200866,36.3525806 L186.766121,33.7351001 C186.977841,33.519304 187.054159,33.1968791 186.960608,32.9049196 C186.867057,32.6129601 186.623333,32.3997028 186.327911,32.3540048 L182.790221,31.8157838 L181.207247,28.4569801 Z" id="star" fill="#FFBE19" fill-rule="nonzero"></path>
        <path d="M199.207247,28.4569801 C199.076768,28.1777145 198.80104,28 198.498232,28 C198.195423,28 197.922157,28.1777145 197.789217,28.4569801 L196.206242,31.8157838 L192.671015,32.3540048 C192.375592,32.3997028 192.129406,32.6129601 192.038317,32.9049196 C191.947229,33.1968791 192.021084,33.519304 192.232804,33.7351001 L194.79806,36.3525806 L194.192443,40.0515805 C194.143206,40.3562339 194.266299,40.6659649 194.510022,40.8462181 C194.753746,41.0264714 195.07625,41.0493204 195.34213,40.90461 L198.500694,39.1655469 L201.659257,40.90461 C201.925138,41.0493204 202.247641,41.0290102 202.491365,40.8462181 C202.735089,40.6634261 202.858182,40.3562339 202.808944,40.0515805 L202.200866,36.3525806 L204.766121,33.7351001 C204.977841,33.519304 205.054159,33.1968791 204.960608,32.9049196 C204.867057,32.6129601 204.623333,32.3997028 204.327911,32.3540048 L200.790221,31.8157838 L199.207247,28.4569801 Z" id="star" fill="#FFBE19" fill-rule="nonzero"></path>
        <g id="5.0" transform="translate(33.1836, 33.4375)" fill="#F6F6F6" fill-rule="nonzero">
            <path d="M4.3828125,25.0078125 C4.6640625,27.4140625 5.78125,29.078125 7.734375,30 C8.734375,30.46875 9.890625,30.703125 11.203125,30.703125 C13.703125,30.703125 15.5546875,29.90625 16.7578125,28.3125 C17.9609375,26.71875 18.5625,24.953125 18.5625,23.015625 C18.5625,20.671875 17.8476562,18.859375 16.4179688,17.578125 C14.9882812,16.296875 13.2734375,15.65625 11.2734375,15.65625 C9.8203125,15.65625 8.57421875,15.9375 7.53515625,16.5 C6.49609375,17.0625 5.609375,17.84375 4.875,18.84375 L1.21875,18.6328125 L3.7734375,0.5625 L21.2109375,0.5625 L21.2109375,4.640625 L6.9375,4.640625 L5.5078125,13.96875 C6.2890625,13.375 7.03125,12.9296875 7.734375,12.6328125 C8.984375,12.1171875 10.4296875,11.859375 12.0703125,11.859375 C15.1484375,11.859375 17.7578125,12.8515625 19.8984375,14.8359375 C22.0390625,16.8203125 23.109375,19.3359375 23.109375,22.3828125 C23.109375,25.5546875 22.1289062,28.3515625 20.1679688,30.7734375 C18.2070312,33.1953125 15.078125,34.40625 10.78125,34.40625 C8.046875,34.40625 5.62890625,33.6367188 3.52734375,32.0976562 C1.42578125,30.5585938 0.25,28.1953125 0,25.0078125 L4.3828125,25.0078125 Z" id="Path"></path>
            <polygon id="Path" points="29.25 28.453125 34.1484375 28.453125 34.1484375 33.5625 29.25 33.5625"></polygon>
            <path d="M51.46875,0 C55.8125,0 58.953125,1.7890625 60.890625,5.3671875 C62.390625,8.1328125 63.140625,11.921875 63.140625,16.734375 C63.140625,21.296875 62.4609375,25.0703125 61.1015625,28.0546875 C59.1328125,32.3359375 55.9140625,34.4765625 51.4453125,34.4765625 C47.4140625,34.4765625 44.4140625,32.7265625 42.4453125,29.2265625 C40.8046875,26.3046875 39.984375,22.3828125 39.984375,17.4609375 C39.984375,13.6484375 40.4765625,10.375 41.4609375,7.640625 C43.3046875,2.546875 46.640625,0 51.46875,0 Z M51.421875,30.6328125 C53.609375,30.6328125 55.3515625,29.6640625 56.6484375,27.7265625 C57.9453125,25.7890625 58.59375,22.1796875 58.59375,16.8984375 C58.59375,13.0859375 58.125,9.94921875 57.1875,7.48828125 C56.25,5.02734375 54.4296875,3.796875 51.7265625,3.796875 C49.2421875,3.796875 47.4257812,4.96484375 46.2773438,7.30078125 C45.1289062,9.63671875 44.5546875,13.078125 44.5546875,17.625 C44.5546875,21.046875 44.921875,23.796875 45.65625,25.875 C46.78125,29.046875 48.703125,30.6328125 51.421875,30.6328125 Z" id="Shape"></path>
        </g>
    </g>
</svg>