<?xml version="1.0" encoding="UTF-8"?>
<svg width="70px" height="10px" viewBox="0 0 70 10" version="1.1" xmlns="http://www.w3.org/2000/svg">
    <defs>
        <linearGradient x1="0%" y1="0%" x2="100%" y2="0%" id="floatGradient">
            <stop stop-color="#FFBE19" offset="0%"></stop>
            <stop stop-color="#FFBE19" offset="70%"></stop>
            <stop stop-color="#C6C6C6" offset="70.5%"></stop>
            <stop stop-color="#C6C6C6" offset="100%"></stop>
        </linearGradient>
    </defs>
    <path d="M5.54403597,0.351523147 C5.44366793,0.136703446 5.23156943,0 4.99863983,0 C4.76571023,0 4.55550546,0.136703446 4.45324369,0.351523147 L3.23557105,2.93521828 L0.516165273,3.34923443 C0.28891688,3.38438674 0.0995432192,3.54843088 0.0294749646,3.77301511 C-0.0405932899,3.99759934 0.0162188084,4.24561845 0.179080157,4.41161549 L2.1523537,6.42506196 L1.6864945,9.27044655 C1.64861977,9.50479531 1.7433066,9.74304989 1.93078652,9.88170624 C2.11826645,10.0203626 2.36634594,10.0379388 2.5708695,9.92662309 L5.00053357,8.58888222 L7.43019764,9.92662309 C7.63472119,10.0379388 7.88280069,10.0223155 8.07028061,9.88170624 C8.25776054,9.74109698 8.35244737,9.50479531 8.31457263,9.27044655 L7.84681969,6.42506196 L9.82009324,4.41161549 C9.98295459,4.24561845 10.0416604,3.99759934 9.96969843,3.77301511 C9.89773644,3.54843088 9.71025652,3.38438674 9.48300812,3.34923443 L6.76170861,2.93521828 L5.54403597,0.351523147 Z" fill="#FFBE19"></path>
    <path d="M20.544036,0.351523147 C20.4436679,0.136703446 20.2315694,0 19.9986398,0 C19.7657102,0 19.5555055,0.136703446 19.4532437,0.351523147 L18.235571,2.93521828 L15.5161653,3.34923443 C15.2889169,3.38438674 15.0995432,3.54843088 15.029475,3.77301511 C14.9594067,3.99759934 15.0162188,4.24561845 15.1790802,4.41161549 L17.1523537,6.42506196 L16.6864945,9.27044655 C16.6486198,9.50479531 16.7433066,9.74304989 16.9307865,9.88170624 C17.1182664,10.0203626 17.3663459,10.0379388 17.5708695,9.92662309 L20.0005336,8.58888222 L22.4301976,9.92662309 C22.6347212,10.0379388 22.8828007,10.0223155 23.0702806,9.88170624 C23.2577605,9.74109698 23.3524474,9.50479531 23.3145726,9.27044655 L22.8468197,6.42506196 L24.8200932,4.41161549 C24.9829546,4.24561845 25.0416604,3.99759934 24.9696984,3.77301511 C24.8977364,3.54843088 24.7102565,3.38438674 24.4830081,3.34923443 L21.7617086,2.93521828 L20.544036,0.351523147 Z" fill="#FFBE19"></path>
    <path d="M35.544036,0.351523147 C35.4436679,0.136703446 35.2315694,0 34.9986398,0 C34.7657102,0 34.5555055,0.136703446 34.4532437,0.351523147 L33.235571,2.93521828 L30.5161653,3.34923443 C30.2889169,3.38438674 30.0995432,3.54843088 30.029475,3.77301511 C29.9594067,3.99759934 30.0162188,4.24561845 30.1790802,4.41161549 L32.1523537,6.42506196 L31.6864945,9.27044655 C31.6486198,9.50479531 31.7433066,9.74304989 31.9307865,9.88170624 C32.1182664,10.0203626 32.3663459,10.0379388 32.5708695,9.92662309 L35.0005336,8.58888222 L37.4301976,9.92662309 C37.6347212,10.0379388 37.8828007,10.0223155 38.0702806,9.88170624 C38.2577605,9.74109698 38.3524474,9.50479531 38.3145726,9.27044655 L37.8468197,6.42506196 L39.8200932,4.41161549 C39.9829546,4.24561845 40.0416604,3.99759934 39.9696984,3.77301511 C39.8977364,3.54843088 39.7102565,3.38438674 39.4830081,3.34923443 L36.7617086,2.93521828 L35.544036,0.351523147 Z" fill="url(#floatGradient)"></path>
    <path d="M50.544036,0.351523147 C50.4436679,0.136703446 50.2315694,0 49.9986398,0 C49.7657102,0 49.5555055,0.136703446 49.4532437,0.351523147 L48.235571,2.93521828 L45.5161653,3.34923443 C45.2889169,3.38438674 45.0995432,3.54843088 45.029475,3.77301511 C44.9594067,3.99759934 45.0162188,4.24561845 45.1790802,4.41161549 L47.1523537,6.42506196 L46.6864945,9.27044655 C46.6486198,9.50479531 46.7433066,9.74304989 46.9307865,9.88170624 C47.1182664,10.0203626 47.3663459,10.0379388 47.5708695,9.92662309 L50.0005336,8.58888222 L52.4301976,9.92662309 C52.6347212,10.0379388 52.8828007,10.0223155 53.0702806,9.88170624 C53.2577605,9.74109698 53.3524474,9.50479531 53.3145726,9.27044655 L52.8468197,6.42506196 L54.8200932,4.41161549 C54.9829546,4.24561845 55.0416604,3.99759934 54.9696984,3.77301511 C54.8977364,3.54843088 54.7102565,3.38438674 54.4830081,3.34923443 L51.7617086,2.93521828 L50.544036,0.351523147 Z" fill="#C6C6C6"></path>
    <path d="M65.544036,0.351523147 C65.4436679,0.136703446 65.2315694,0 64.9986398,0 C64.7657102,0 64.5555055,0.136703446 64.4532437,0.351523147 L63.235571,2.93521828 L60.5161653,3.34923443 C60.2889169,3.38438674 60.0995432,3.54843088 60.029475,3.77301511 C59.9594067,3.99759934 60.0162188,4.24561845 60.1790802,4.41161549 L62.1523537,6.42506196 L61.6864945,9.27044655 C61.6486198,9.50479531 61.7433066,9.74304989 61.9307865,9.88170624 C62.1182664,10.0203626 62.3663459,10.0379388 62.5708695,9.92662309 L65.0005336,8.58888222 L67.4301976,9.92662309 C67.6347212,10.0379388 67.8828007,10.0223155 68.0702806,9.88170624 C68.2577605,9.74109698 68.3524474,9.50479531 68.3145726,9.27044655 L67.8468197,6.42506196 L69.8200932,4.41161549 C69.9829546,4.24561845 70.0416604,3.99759934 69.9696984,3.77301511 C69.8977364,3.54843088 69.7102565,3.38438674 69.4830081,3.34923443 L66.7617086,2.93521828 L65.544036,0.351523147 Z" fill="#C6C6C6"></path>
</svg>