<?xml version="1.0" encoding="UTF-8"?>
<svg width="60px" height="60px" viewBox="0 0 60 60" version="1.1" xmlns="http://www.w3.org/2000/svg">
    <g stroke="none" stroke-width="1" fill="none" fill-rule="evenodd">
        <path d="M30.0028125,0 C21.8552277,0 20.832717,0.035625 17.6326837,0.18125 C14.4389004,0.3275 12.2588777,0.833125 10.3513578,1.575 C8.37821227,2.34125 6.70444484,3.36625 5.03692747,5.034375 C3.36816009,6.701875 2.34314941,8.375625 1.5743914,10.348125 C0.830633652,12.25625 0.324378379,14.436875 0.180626882,17.629375 C0.0375003906,20.829375 0,21.8525 0,30 C0,38.1475 0.0362503776,39.166875 0.181251888,42.366875 C0.328128418,45.560625 0.833758685,47.740625 1.57501641,49.648125 C2.34189939,51.62125 3.36691007,53.295 5.03505245,54.9625 C6.70194481,56.63125 8.37571225,57.65875 10.3476078,58.425 C12.2563777,59.166875 14.4370254,59.6725 17.6301836,59.81875 C20.830217,59.964375 21.8521026,60 29.9990625,60 C38.1472724,60 39.166658,59.964375 42.3666913,59.81875 C45.5604746,59.6725 47.7429973,59.166875 49.6517672,58.425 C51.6242878,57.65875 53.2955552,56.63125 54.9624475,54.9625 C56.6312149,53.295 57.6562256,51.62125 58.4249836,49.64875 C59.1624913,47.740625 59.6687465,45.56 59.8187481,42.3675 C59.9624996,39.1675 60,38.1475 60,30 C60,21.8525 59.9624996,20.83 59.8187481,17.63 C59.6687465,14.43625 59.1624913,12.25625 58.4249836,10.34875 C57.6562256,8.375625 56.6312149,6.701875 54.9624475,5.034375 C53.2936801,3.365625 51.6249128,2.340625 49.6498922,1.575 C47.7373723,0.833125 45.5560995,0.3275 42.3623163,0.18125 C39.1622829,0.035625 38.1435223,0 29.9934374,0 L30.0028125,0 Z M27.3115345,5.40625 C28.1102928,5.405 29.0015521,5.40625 30.0028125,5.40625 C38.012896,5.40625 38.9622809,5.435 42.1254388,5.57875 C45.0504693,5.7125 46.6379858,6.20125 47.6954968,6.611875 C49.0955114,7.155625 50.0936468,7.805625 51.1430327,8.855625 C52.1930437,9.905625 52.8430504,10.905625 53.3880561,12.305625 C53.7986854,13.361875 54.2880655,14.949375 54.4211919,17.874375 C54.5649434,21.036875 54.5961937,21.986875 54.5961937,29.993125 C54.5961937,37.999375 54.5649434,38.949375 54.4211919,42.111875 C54.2874405,45.036875 53.7986854,46.624375 53.3880561,47.680625 C52.8443005,49.080625 52.1930437,50.0775 51.1430327,51.126875 C50.0930218,52.176875 49.0961364,52.826875 47.6954968,53.370625 C46.6392358,53.783125 45.0504693,54.270625 42.1254388,54.404375 C38.9629059,54.548125 38.012896,54.579375 30.0028125,54.579375 C21.9921041,54.579375 21.0427192,54.548125 17.8801863,54.404375 C14.9551558,54.269375 13.3676392,53.780625 12.3095032,53.37 C10.9094886,52.82625 9.90947822,52.17625 8.85946729,51.12625 C7.80945635,50.07625 7.15944958,49.07875 6.6144439,47.678125 C6.20381462,46.621875 5.71443453,45.034375 5.58130814,42.109375 C5.43755664,38.946875 5.40880634,37.996875 5.40880634,29.985625 C5.40880634,21.974375 5.43755664,21.029375 5.58130814,17.866875 C5.71505953,14.941875 6.20381462,13.354375 6.6144439,12.296875 C7.15819956,10.896875 7.80945635,9.896875 8.85946729,8.846875 C9.90947822,7.796875 10.9094886,7.146875 12.3095032,6.601875 C13.3670142,6.189375 14.9551558,5.701875 17.8801863,5.5675 C20.6477151,5.4425 21.7202263,5.405 27.3115345,5.39875 L27.3115345,5.40625 Z M46.0167293,10.3875 C44.0292086,10.3875 42.4166918,11.998125 42.4166918,13.98625 C42.4166918,15.97375 44.0292086,17.58625 46.0167293,17.58625 C48.00425,17.58625 49.6167668,15.97375 49.6167668,13.98625 C49.6167668,11.99875 48.00425,10.38625 46.0167293,10.38625 L46.0167293,10.3875 Z M30.0028125,14.59375 C21.4945989,14.59375 14.596402,21.491875 14.596402,30 C14.596402,38.508125 21.4945989,45.403125 30.0028125,45.403125 C38.5110262,45.403125 45.406723,38.508125 45.406723,30 C45.406723,21.491875 38.5104012,14.59375 30.0021875,14.59375 L30.0028125,14.59375 Z M30.0028125,20 C35.5253701,20 40.0029167,24.476875 40.0029167,30 C40.0029167,35.5225 35.5253701,40 30.0028125,40 C24.47963,40 20.0027084,35.5225 20.0027084,30 C20.0027084,24.476875 24.47963,20 30.0028125,20 Z" id="Shape" fill="#FFFFFF" fill-rule="nonzero"></path>
    </g>
</svg>