<?xml version="1.0" encoding="UTF-8"?>
<svg width="60px" height="60px" viewBox="0 0 60 60" version="1.1" xmlns="http://www.w3.org/2000/svg">
    <g stroke="none" stroke-width="1" fill="none" fill-rule="evenodd">
        <path d="M43.9029685,6 L0,6 L0,55 L12.2195479,55 L12.2195479,39.0585226 L35.6345273,39.0585226 L46.3169569,55 L60,55 L48.2193591,38.9850792 C51.8778612,38.3970584 54.5122469,37.0011604 56.1220445,34.7973852 C57.731842,32.5936101 58.5365048,29.0673803 58.5365048,24.3655827 L58.5365048,20.6924661 C58.5365048,17.9006701 58.2439001,15.696895 57.731842,14.0072235 C57.2193119,12.317552 56.3414979,10.8482106 55.0974562,9.52622978 C53.7802633,8.27721853 52.3172401,7.39542417 50.5611402,6.80787715 C48.8050404,6.29377351 46.6095616,6 43.9020246,6 L43.9029685,6 Z M41.9274152,28.2590293 L12.2190759,28.2590293 L12.2190759,16.7990195 L41.9278871,16.7990195 C43.6108358,16.7990195 44.7812544,17.092793 45.3669357,17.6068966 C45.9512011,18.1210003 46.3169569,19.076238 46.3169569,20.472136 L46.3169569,24.5859128 C46.3169569,26.0552542 45.9512011,27.0104919 45.3659918,27.5245956 C44.7807825,28.0386992 43.60942,28.2590293 41.9269432,28.2590293 L41.9274152,28.2590293 Z" id="Shape" fill="#FFFFFF" fill-rule="nonzero"></path>
    </g>
</svg>