<?xml version="1.0" encoding="UTF-8"?>
<svg width="60px" height="60px" viewBox="0 0 60 60" version="1.1" xmlns="http://www.w3.org/2000/svg">
    <path d="M36.1009526,43.4686158 C42.2937418,42.2005652 46.0047666,39.2528314 46.2011207,39.094631 C48.0132448,37.6338918 48.3043447,34.9731883 46.8510592,33.1515475 C45.3979951,31.3301293 42.7510896,31.0375364 40.9385227,32.4980531 C40.9002259,32.5292037 36.9421536,35.5810694 30.4297079,35.5855194 C23.9174836,35.5810694 19.875734,32.5292037 19.8374372,32.4980531 C18.0248703,31.0375364 15.3779648,31.3301293 13.9249007,33.1515475 C12.4716152,34.9731883 12.7627151,37.6338918 14.5748392,39.094631 C14.7738497,39.2550564 18.6380616,42.2795541 25.0044039,43.5177892 L16.1317252,52.8380393 C14.5192757,54.518835 14.5677554,57.1951138 16.2399745,58.8158334 C17.0561609,59.6068353 18.108105,60 19.1591635,60 C20.2611369,60 21.3620034,59.5672296 22.1872659,58.7068064 L30.4299293,49.8811828 L39.5051604,58.7639899 C41.149487,60.4140801 43.8121097,60.41141 45.4533372,58.7593174 C47.0945647,57.1070022 47.0925724,54.4302784 45.4486885,52.7806332 L36.1009526,43.4686158 Z" fill="#FFFFFF"></path>
    <path d="M30.6397868,0 C22.0965047,0 15.1709851,6.96126204 15.1709851,15.5481388 C15.1709851,24.135238 22.0965047,31.096945 30.6397868,31.096945 C39.1830689,31.096945 46.1085886,24.135238 46.1085886,15.5481388 C46.1085886,6.96126204 39.1830689,0 30.6397868,0 Z M30.6397868,21.9758361 C27.108292,21.9758361 24.2453307,19.0979685 24.2453307,15.5483613 C24.2453307,11.998754 27.108292,9.12110896 30.6397868,9.12110896 C34.1712816,9.12110896 37.034243,11.998754 37.034243,15.5483613 C37.034243,19.0979685 34.1712816,21.9758361 30.6397868,21.9758361 Z" fill="#FFFFFF"></path>
</svg>