<?xml version="1.0" encoding="UTF-8"?>
<svg width="60px" height="60px" viewBox="0 0 60 60" version="1.1" xmlns="http://www.w3.org/2000/svg">
    <path d="M52.6283746,5.86789018 C51.1287487,4.52948083 45.1302452,0.120602961 31.6336122,0.0418729991 C31.6336122,0.0418729991 15.7691488,-0.902886544 8.03423635,6.18281003 C3.69321404,10.5129579 2.19358815,16.7326249 2.03573279,24.5268912 C1.87787743,32.3211574 1.6410944,46.8862003 15.7691488,50.9014284 L15.7691488,56.9636355 C15.7691488,56.9636355 15.6902211,59.4042643 17.2687747,59.8766441 C19.2419667,60.5064838 20.3469542,58.6169647 22.2412185,56.6487156 C23.2672783,55.5464962 24.6879765,53.9718969 25.7140363,52.7122175 C35.3432131,53.4995171 42.7624148,51.688728 43.6306193,51.3738082 C45.6038112,50.7439685 56.5747585,49.3268292 58.3900951,34.7617862 C60.2843594,19.6456335 57.6008184,10.1193081 52.6283746,5.86789018 L52.6283746,5.86789018 Z M54.2858559,33.5808368 C52.78623,45.7839809 43.8674023,46.5712805 42.2099211,47.0436603 C41.499572,47.2798502 35.0275023,48.8544494 26.8190238,48.3820696 C26.8190238,48.3820696 20.7415926,55.7039561 18.7684006,57.6722051 C18.4526899,57.987125 18.1369792,58.0658549 17.9001961,58.0658549 C17.5844854,57.987125 17.5055578,57.5934752 17.5055578,57.0423654 C17.5055578,56.2550658 17.5844854,46.9649303 17.5844854,46.9649303 C5.666406,43.6582719 6.3767551,31.2189379 6.45568278,24.6843511 C6.61353814,18.1497642 7.79745331,12.8748568 11.4281265,9.25327854 C17.9791238,3.3485314 31.4757568,4.21456098 31.4757568,4.21456098 C42.8413425,4.29329094 48.2873523,7.67867931 49.5501952,8.85962873 C53.6544344,12.481207 55.7854818,21.0627728 54.2858559,33.5808368 L54.2858559,33.5808368 Z" fill="#FFFFFF"></path>
    <path d="M37.1585497,24.2119713 C37.0006943,21.2202328 35.5010684,19.6456335 32.5807443,19.4881736" stroke="#FFFFFF" stroke-width="1.927" stroke-linecap="round" stroke-linejoin="round"></path>
    <path d="M41.1049336,25.4716507 C41.1838613,22.716102 40.3156568,20.3542032 38.6581756,18.5434141 C36.9217666,16.653895 34.5539363,15.6304055 31.5546845,15.3942156" stroke="#FFFFFF" stroke-width="1.927" stroke-linecap="round" stroke-linejoin="round"></path>
    <path d="M45.0513175,27.0462499 C45.0513175,22.2437223 43.5516916,18.4646841 40.7102952,15.7091354 C37.8688988,12.9535868 34.3171532,11.5364474 30.0550586,11.5364474" stroke="#FFFFFF" stroke-width="1.927" stroke-linecap="round" stroke-linejoin="round"></path>
    <path d="M32.7385997,34.3681364 C32.7385997,34.3681364 33.8435872,34.4468664 34.3960809,33.7382967 L35.5010684,32.3211574 C36.0535622,31.6125877 37.316405,31.140208 38.6581756,31.8487776 C39.3685247,32.2424274 40.6313675,33.029727 41.4206443,33.6595667 C42.2888488,34.2894064 44.0252577,35.7065457 44.0252577,35.7065457 C44.8934621,36.4151154 45.0513175,37.4386049 44.4988237,38.5408244 C43.94633,39.5643139 43.1570532,40.5090734 42.1309934,41.375103 C41.3417166,42.0836727 40.5524398,42.3985925 39.763163,42.5560524 L39.4474523,42.5560524 C39.1317416,42.5560524 38.7371032,42.4773225 38.4213925,42.3985925 C37.2374773,42.0836727 35.2642854,41.2176431 31.8703952,39.406854 C29.7393479,38.2259045 27.9240113,36.9662251 26.4243854,35.7852757 C25.6351086,35.155436 24.7669042,34.4468664 23.9776274,33.5808368 L23.6619167,33.2659169 C22.7937122,32.3998873 22.0833631,31.6125877 21.4519417,30.8252881 C20.2680265,29.3294188 19.0051836,27.5186297 17.8212685,25.3929207 C16.0059319,22.0862623 15.1377274,20.1180133 14.8220167,18.8583339 C14.743089,18.5434141 14.6641613,18.2284942 14.6641613,17.8348444 L14.6641613,17.5199245 C14.743089,16.7326249 15.1377274,15.9453253 15.8480765,15.1580257 C16.716281,14.2132661 17.6634131,13.4259665 18.6894729,12.7961268 C19.7944604,12.2450171 20.8205202,12.402477 21.5308693,13.2685066 C21.5308693,13.2685066 22.9515676,15.0005658 23.582989,15.8665953 C24.1354827,16.653895 24.9247595,17.9135744 25.3983256,18.622144 C26.1086747,19.8818234 25.6351086,21.2202328 25.0036872,21.7713425 L23.582989,22.873562 C22.8726399,23.4246717 22.9515676,24.5268912 22.9515676,24.5268912 C22.9515676,24.5268912 24.9247595,32.3211574 32.7385997,34.3681364 L32.7385997,34.3681364 Z" fill="#FFFFFF"></path>
</svg>