<?xml version="1.0" encoding="UTF-8"?>
<svg width="60px" height="60px" viewBox="0 0 60 60" version="1.1" xmlns="http://www.w3.org/2000/svg">
    <path d="M59.971 16.0134C59.7048 21.8546 55.6229 29.8564 47.733 40.0111C39.5769 50.6171 32.6746 55.9221 27.0263 55.9221C23.5308 55.9221 20.5716 52.6928 18.1526 46.2304C16.5399 40.3081 14.9233 34.3898 13.3106 28.4675C11.5166 22.009 9.59135 18.7758 7.5311 18.7758C7.08356 18.7758 5.50943 19.7211 2.8203 21.6039L0 17.9656C2.9592 15.3652 5.87981 12.761 8.75413 10.1529C12.7049 6.74228 15.6679 4.94438 17.6472 4.76305C22.3155 4.3155 25.1898 7.51005 26.2701 14.3428C27.4353 21.7196 28.2416 26.3069 28.693 28.101C30.0395 34.22 31.5211 37.2756 33.1376 37.2756C34.3954 37.2756 36.282 35.2887 38.7975 31.3225C41.3092 27.3525 42.6557 24.3316 42.837 22.2597C43.1958 18.8337 41.8493 17.1168 38.7975 17.1168C37.3584 17.1168 35.8769 17.4448 34.3568 18.1007C37.3044 8.43986 42.9373 3.7445 51.2555 4.01071C57.4208 4.19205 60.326 8.19294 59.971 16.0134Z" fill="#FFFFFF"/>
</svg>
