<?xml version="1.0" encoding="UTF-8"?>
<svg width="60px" height="60px" viewBox="0 0 60 60" version="1.1" xmlns="http://www.w3.org/2000/svg">
    <path d="M0,29.988213 C-0.00808758048,35.6345699 1.58193917,41.1679446 4.58632495,45.9486432 L5.30009245,47.0833127 L2.26891071,58.1494072 L13.6234556,55.1721873 L14.7198613,55.8216912 C19.3247655,58.5546113 24.6046828,59.9998065 29.9890898,60.0027499 L30.0003727,60.0027499 C46.5357414,60.0027499 59.9933249,46.5486003 60,30.0122505 C60.024924,22.0511711 56.8637998,14.4109487 51.2210977,8.79495948 C45.6096952,3.14825571 37.9723558,-0.018674372 30.0116556,0 C13.4635324,0 0.00594884837,13.4528444 0,29.988213 Z" fill="#FFFFFF"></path>
    <path d="M18.9499762,13.3434491 L17.2212362,13.3223549 C16.6198074,13.3223549 15.6426082,13.5480134 14.816502,14.4506472 C13.9903958,15.353281 11.6597364,17.5348096 11.6597364,21.9719416 C11.6597364,26.4090737 14.891558,30.6965843 15.3418937,31.2989943 C15.7922295,31.9014043 21.5808595,41.2971356 30.747989,44.9120859 C38.3659241,47.9162868 39.9160996,47.3187824 41.5702742,47.1686705 C43.2244488,47.0185586 46.9061156,44.9871419 47.6571658,42.8811598 C48.408216,40.7751778 48.4087066,38.9708912 48.1835387,38.5936492 C47.9583708,38.2164071 47.3569419,37.9922203 46.4543081,37.5409034 C45.5516743,37.0895865 41.1184667,34.9080579 40.29187,34.6068529 C39.4652733,34.3056479 38.864335,34.1560266 38.2624156,35.0586604 C37.6604962,35.9612942 35.934209,37.9917298 35.4078361,38.5936492 C34.8814632,39.1955686 34.3560715,39.2711151 33.4534377,38.8202888 C32.5508038,38.3694624 29.6466776,37.4167913 26.2009711,34.3444023 C23.5200505,31.9538944 21.7103678,29.0016931 21.1835044,28.0995498 C20.656641,27.1974066 21.1275803,26.708807 21.5798784,26.2594523 C21.9845919,25.8552293 22.4815311,25.206216 22.9333386,24.6798431 C23.385146,24.1534702 23.5337863,23.7772093 23.8340101,23.176271 C24.134234,22.5753327 23.9846126,22.0474882 23.7589542,21.5966618 C23.5332957,21.1458355 21.7810087,16.685647 20.9794307,14.9019641 C20.3034364,13.3998637 19.5921217,13.3694488 18.9499762,13.3434491 Z" fill="#23B33A"></path>
</svg>