<?xml version="1.0" encoding="UTF-8"?>
<svg width="60px" height="60px" viewBox="0 0 60 60" version="1.1" xmlns="http://www.w3.org/2000/svg">
    <path d="M58.7454017,15.559109 C58.0540495,12.9759679 56.0238851,10.9459988 53.440765,10.2545269 C48.7636375,9 29.999895,9 29.999895,9 C29.999895,9 11.2364045,9 6.559088,10.2545269 C3.97596788,10.9459988 1.94599879,12.9759679 1.25452694,15.559109 C0,20.2364045 0,30.0009765 0,30.0009765 C0,30.0009765 0,39.7655906 1.25452694,44.4429281 C1.94599879,47.0260482 3.97596788,49.0560026 6.559088,49.7473548 C11.2364045,51.0019531 29.999895,51.0019531 29.999895,51.0019531 C29.999895,51.0019531 48.7636375,51.0019531 53.440765,49.7473548 C56.0238851,49.0560026 58.0540495,47.0260482 58.7454017,44.4429281 C60,39.7655906 60,30.0009765 60,30.0009765 C60,30.0009765 59.9949598,20.2364045 58.7454017,15.559109 Z" fill="#FFFFFF"></path>
    <polygon fill="#FF0000" points="23.9942457 39.000735 39.5820106 30.0018166 23.9942457 21.0027511"></polygon>
</svg>