<?xml version="1.0" encoding="UTF-8"?>
<svg width="100px" height="12px" viewBox="0 0 100 12" version="1.1" xmlns="http://www.w3.org/2000/svg" xmlns:xlink="http://www.w3.org/1999/xlink">
    <defs>
        <path d="M2.33649262,11.5270996 C2.47741262,11.6336263 2.63328623,11.671669 2.80411346,11.6412277 C2.97494069,11.6107864 3.15776642,11.5226135 3.35259064,11.376709 L6.0921994,9.36405945 L8.83618744,11.376709 C9.03186615,11.5226135 9.21511912,11.6107864 9.38594635,11.6412277 C9.55677358,11.671669 9.7107958,11.6336263 9.848013,11.5270996 C9.98530141,11.4213562 10.067208,11.2842102 10.0937329,11.1156616 C10.1202578,10.947113 10.0945696,10.7490489 10.0166684,10.5214691 L8.93231781,7.29971313 L11.6980954,5.31568909 C11.8937029,5.17804464 12.031828,5.03242493 12.1124707,4.87882996 C12.1931134,4.72523499 12.2054501,4.56530253 12.1494809,4.39903259 C12.0935117,4.23561096 11.9893348,4.11555481 11.8369504,4.03886414 C11.6845659,3.96217346 11.486929,3.92421977 11.2440396,3.92500305 L7.85384186,3.9523468 L6.82428558,0.70880127 C6.75087046,0.47958374 6.65363637,0.304145813 6.53258331,0.182487488 C6.41153025,0.0608291626 6.26473562,2.66453526e-15 6.0921994,2.66453526e-15 C5.9197344,2.66453526e-15 5.77390106,0.0608291626 5.6546994,0.182487488 C5.53549774,0.304145813 5.43733795,0.47958374 5.36022003,0.70880127 L4.33055695,3.9523468 L0.939184265,3.92500305 C0.700852153,3.92421977 0.504568177,3.96217346 0.350332337,4.03886414 C0.196096497,4.11555481 0.0909939578,4.23518372 0.0350247196,4.39775085 C-0.0217990109,4.56487528 -0.00948008188,4.72523499 0.0719815067,4.87882996 C0.153443095,5.03242493 0.291585999,5.17804464 0.486410218,5.31568909 L3.25208099,7.29971313 L2.16783722,10.5214691 C2.08993602,10.7490489 2.06446147,10.947113 2.09141357,11.1156616 C2.11836568,11.2842102 2.2000587,11.4213562 2.33649262,11.5270996 Z" id="star_1"></path>
        <path d="M23.4275818,11.5270996 C23.5685018,11.6336263 23.7243754,11.671669 23.8952026,11.6412277 C24.0660299,11.6107864 24.2488556,11.5226135 24.4436798,11.376709 L27.1832886,9.36405945 L29.9272766,11.376709 C30.1229553,11.5226135 30.3062083,11.6107864 30.4770355,11.6412277 C30.6478628,11.671669 30.801885,11.6336263 30.9391022,11.5270996 C31.0763906,11.4213562 31.1582972,11.2842102 31.1848221,11.1156616 C31.2113469,10.947113 31.1856588,10.7490489 31.1077576,10.5214691 L30.023407,7.29971313 L32.7891846,5.31568909 C32.9847921,5.17804464 33.1229172,5.03242493 33.2035599,4.87882996 C33.2842026,4.72523499 33.2965393,4.56530253 33.2405701,4.39903259 C33.1846008,4.23561096 33.080424,4.11555481 32.9280396,4.03886414 C32.7756551,3.96217346 32.5780182,3.92421977 32.3351288,3.92500305 L28.944931,3.9523468 L27.9153748,0.70880127 C27.8419596,0.47958374 27.7447255,0.304145813 27.6236725,0.182487488 C27.5026194,0.0608291626 27.3558248,2.66453526e-15 27.1832886,2.66453526e-15 C27.0108236,2.66453526e-15 26.8649902,0.0608291626 26.7457886,0.182487488 C26.6265869,0.304145813 26.5284271,0.47958374 26.4513092,0.70880127 L25.4216461,3.9523468 L22.0302734,3.92500305 C21.7919413,3.92421977 21.5956573,3.96217346 21.4414215,4.03886414 C21.2871857,4.11555481 21.1820831,4.23518372 21.1261139,4.39775085 C21.0692902,4.56487528 21.0816091,4.72523499 21.1630707,4.87882996 C21.2445323,5.03242493 21.3826752,5.17804464 21.5774994,5.31568909 L24.3431702,7.29971313 L23.2589264,10.5214691 C23.1810252,10.7490489 23.1555506,10.947113 23.1825027,11.1156616 C23.2094549,11.2842102 23.2911479,11.4213562 23.4275818,11.5270996 Z" id="star_2"></path>
        <path d="M45.4275818,11.5270996 C45.5685018,11.6336263 45.7243754,11.671669 45.8952026,11.6412277 C46.0660299,11.6107864 46.2488556,11.5226135 46.4436798,11.376709 L49.1832886,9.36405945 L51.9272766,11.376709 C52.1229553,11.5226135 52.3062083,11.6107864 52.4770355,11.6412277 C52.6478628,11.671669 52.801885,11.6336263 52.9391022,11.5270996 C53.0763906,11.4213562 53.1582972,11.2842102 53.1848221,11.1156616 C53.2113469,10.947113 53.1856588,10.7490489 53.1077576,10.5214691 L52.023407,7.29971313 L54.7891846,5.31568909 C54.9847921,5.17804464 55.1229172,5.03242493 55.2035599,4.87882996 C55.2842026,4.72523499 55.2965393,4.56530253 55.2405701,4.39903259 C55.1846008,4.23561096 55.080424,4.11555481 54.9280396,4.03886414 C54.7756551,3.96217346 54.5780182,3.92421977 54.3351288,3.92500305 L50.944931,3.9523468 L49.9153748,0.70880127 C49.8419596,0.47958374 49.7447255,0.304145813 49.6236725,0.182487488 C49.5026194,0.0608291626 49.3558248,2.66453526e-15 49.1832886,2.66453526e-15 C49.0108236,2.66453526e-15 48.8649902,0.0608291626 48.7457886,0.182487488 C48.6265869,0.304145813 48.5284271,0.47958374 48.4513092,0.70880127 L47.4216461,3.9523468 L44.0302734,3.92500305 C43.7919413,3.92421977 43.5956573,3.96217346 43.4414215,4.03886414 C43.2871857,4.11555481 43.1820831,4.23518372 43.1261139,4.39775085 C43.0692902,4.56487528 43.0816091,4.72523499 43.1630707,4.87882996 C43.2445323,5.03242493 43.3826752,5.17804464 43.5774994,5.31568909 L46.3431702,7.29971313 L45.2589264,10.5214691 C45.1810252,10.7490489 45.1555506,10.947113 45.1825027,11.1156616 C45.2094549,11.2842102 45.2911479,11.4213562 45.4275818,11.5270996 Z" id="star_3"></path>
        <path d="M67.4275818,11.5270996 C67.5685018,11.6336263 67.7243754,11.671669 67.8952026,11.6412277 C68.0660299,11.6107864 68.2488556,11.5226135 68.4436798,11.376709 L71.1832886,9.36405945 L73.9272766,11.376709 C74.1229553,11.5226135 74.3062083,11.6107864 74.4770355,11.6412277 C74.6478628,11.671669 74.801885,11.6336263 74.9391022,11.5270996 C75.0763906,11.4213562 75.1582972,11.2842102 75.1848221,11.1156616 C75.2113469,10.947113 75.1856588,10.7490489 75.1077576,10.5214691 L74.023407,7.29971313 L76.7891846,5.31568909 C76.9847921,5.17804464 77.1229172,5.03242493 77.2035599,4.87882996 C77.2842026,4.72523499 77.2965393,4.56530253 77.2405701,4.39903259 C77.1846008,4.23561096 77.080424,4.11555481 76.9280396,4.03886414 C76.7756551,3.96217346 76.5780182,3.92421977 76.3351288,3.92500305 L72.944931,3.9523468 L71.9153748,0.70880127 C71.8419596,0.47958374 71.7447255,0.304145813 71.6236725,0.182487488 C71.5026194,0.0608291626 71.3558248,2.66453526e-15 71.1832886,2.66453526e-15 C71.0108236,2.66453526e-15 70.8649902,0.0608291626 70.7457886,0.182487488 C70.6265869,0.304145813 70.5284271,0.47958374 70.4513092,0.70880127 L69.4216461,3.9523468 L66.0302734,3.92500305 C65.7919413,3.92421977 65.5956573,3.96217346 65.4414215,4.03886414 C65.2871857,4.11555481 65.1820831,4.23518372 65.1261139,4.39775085 C65.0692902,4.56487528 65.0816091,4.72523499 65.1630707,4.87882996 C65.2445323,5.03242493 65.3826752,5.17804464 65.5774994,5.31568909 L68.3431702,7.29971313 L67.2589264,10.5214691 C67.1810252,10.7490489 67.1555506,10.947113 67.1825027,11.1156616 C67.2094549,11.2842102 67.2911479,11.4213562 67.4275818,11.5270996 Z" id="star_4"></path>
        <path d="M89.4275818,11.5270996 C89.5685018,11.6336263 89.7243754,11.671669 89.8952026,11.6412277 C90.0660299,11.6107864 90.2488556,11.5226135 90.4436798,11.376709 L93.1832886,9.36405945 L95.9272766,11.376709 C96.1229553,11.5226135 96.3062083,11.6107864 96.4770355,11.6412277 C96.6478628,11.671669 96.801885,11.6336263 96.9391022,11.5270996 C97.0763906,11.4213562 97.1582972,11.2842102 97.1848221,11.1156616 C97.2113469,10.947113 97.1856588,10.7490489 97.1077576,10.5214691 L96.023407,7.29971313 L98.7891846,5.31568909 C98.9847921,5.17804464 99.1229172,5.03242493 99.2035599,4.87882996 C99.2842026,4.72523499 99.2965393,4.56530253 99.2405701,4.39903259 C99.1846008,4.23561096 99.080424,4.11555481 98.9280396,4.03886414 C98.7756551,3.96217346 98.5780182,3.92421977 98.3351288,3.92500305 L94.944931,3.9523468 L93.9153748,0.70880127 C93.8419596,0.47958374 93.7447255,0.304145813 93.6236725,0.182487488 C93.5026194,0.0608291626 93.3558248,2.66453526e-15 93.1832886,2.66453526e-15 C93.0108236,2.66453526e-15 92.8649902,0.0608291626 92.7457886,0.182487488 C92.6265869,0.304145813 92.5284271,0.47958374 92.4513092,0.70880127 L91.4216461,3.9523468 L88.0302734,3.92500305 C87.7919413,3.92421977 87.5956573,3.96217346 87.4414215,4.03886414 C87.2871857,4.11555481 87.1820831,4.23518372 87.1261139,4.39775085 C87.0692902,4.56487528 87.0816091,4.72523499 87.1630707,4.87882996 C87.2445323,5.03242493 87.3826752,5.17804464 87.5774994,5.31568909 L90.3431702,7.29971313 L89.2589264,10.5214691 C89.1810252,10.7490489 89.1555506,10.947113 89.1825027,11.1156616 C89.2094549,11.2842102 89.2911479,11.4213562 89.4275818,11.5270996 Z" id="star_5"></path>
    </defs>
    <g stroke="none" fill="none" fill-rule="evenodd">
        <g fill-rule="nonzero"><use fill="#cccccc" xlink:href="#star_1"></use></g>
        <g fill-rule="nonzero"><use fill="#cccccc" xlink:href="#star_2"></use></g>
        <g fill-rule="nonzero"><use fill="#cccccc" xlink:href="#star_3"></use></g>
        <g fill-rule="nonzero"><use fill="#cccccc" xlink:href="#star_4"></use></g>
        <g fill-rule="nonzero"><use fill="#cccccc" xlink:href="#star_5"></use></g>
    </g>
</svg>