<?xml version="1.0" encoding="UTF-8"?>
<svg width="713px" height="713px" viewBox="0 0 713 713" version="1.1" xmlns="http://www.w3.org/2000/svg" xmlns:xlink="http://www.w3.org/1999/xlink">
    <title>Artboard</title>
    <g id="Artboard" stroke="none" stroke-width="1" fill="none" fill-rule="evenodd">
        <g id="TripAdvisor_Logo" transform="translate(0.001, 0)" fill-rule="nonzero">
            <circle id="Oval" fill="#34E0A1" cx="356.748" cy="356.748" r="356.748"></circle>
            <path d="M577.094,287.152 L620.143,240.316 L524.678,240.316 C476.886,207.67 419.168,188.657 356.747,188.657 C294.405,188.657 236.848,207.711 189.135,240.316 L93.431,240.316 L136.48,287.152 C110.093,311.227 93.551,345.906 93.551,384.411 C93.551,457.076 152.465,515.989 225.13,515.989 C259.649,515.989 291.098,502.676 314.576,480.912 L356.748,526.831 L398.92,480.952 C422.398,502.716 453.807,515.989 488.326,515.989 C560.991,515.989 619.984,457.076 619.984,384.411 C620.023,345.866 603.482,311.188 577.094,287.152 Z M225.169,473.458 C175.981,473.458 136.122,433.599 136.122,384.411 C136.122,335.223 175.982,295.363 225.169,295.363 C274.356,295.363 314.216,335.223 314.216,384.411 C314.216,433.599 274.356,473.458 225.169,473.458 Z M356.787,381.82 C356.787,323.225 314.177,272.922 257.934,251.437 C288.347,238.721 321.71,231.666 356.747,231.666 C391.784,231.666 425.186,238.721 455.6,251.437 C399.398,272.962 356.787,323.226 356.787,381.82 Z M488.366,473.458 C439.178,473.458 399.318,433.599 399.318,384.411 C399.318,335.223 439.178,295.363 488.366,295.363 C537.554,295.363 577.413,335.223 577.413,384.411 C577.413,433.599 537.553,473.458 488.366,473.458 Z M488.366,337.694 C462.576,337.694 441.689,358.581 441.689,384.371 C441.689,410.16 462.576,431.047 488.366,431.047 C514.155,431.047 535.042,410.16 535.042,384.371 C535.041,358.621 514.155,337.694 488.366,337.694 Z M271.845,384.411 C271.845,410.2 250.958,431.087 225.169,431.087 C199.38,431.087 178.493,410.2 178.493,384.411 C178.493,358.621 199.38,337.733943 225.169,337.733943 C250.958,337.694 271.845,358.621 271.845,384.411 Z" id="Shape" fill="#000000"></path>
        </g>
    </g>
</svg>