<?xml version="1.0" encoding="UTF-8"?>
<svg width="16px" height="16px" viewBox="0 0 16 16" version="1.1" xmlns="http://www.w3.org/2000/svg" xmlns:xlink="http://www.w3.org/1999/xlink">
	<path fill="#A3C626" fill-rule="nonzero" d="M16,8.00006701 C16,7.01591809 15.8135281,6.07723266 15.4884586,5.2065582 C15.402459,8.07239986 12.4896646,10.2912327 10.7795571,11.7595661 L15.060069,11.7595661 C15.658414,10.6384237 16,9.35938187 16,8.00006701 Z M12.9055245,1.68975438 C11.5502362,0.634545721 9.85094978,0 8.00016751,0 C3.58182854,0 0,3.58193354 0,8.00006701 C0,12.418167 3.58182854,16 8.00016751,16 C10.0233844,16 11.8656236,15.243001 13.2744481,14.0041627 L7.48259573,14.0041627 L7.4649402,12.3032519 C10.9547389,9.26939297 13.09404,7.2176393 13.09404,5.23583977 C13.09404,4.4993111 12.8134946,3.56987248 11.5510067,3.56987248 C10.5513083,3.56987248 9.58692083,4.14897083 9.76220309,6.56875432 L7.7281651,6.56875432 C7.21950484,3.76315095 8.74518409,1.53577486 11.6559349,1.53577486 C12.1072063,1.53577486 12.5246407,1.58964759 12.9055245,1.68975438 Z" id="Shape"></path>
</svg>