<?xml version="1.0" encoding="UTF-8"?>
<svg width="16px" height="16px" viewBox="0 0 16 16" version="1.1" xmlns="http://www.w3.org/2000/svg" xmlns:xlink="http://www.w3.org/1999/xlink">
    <path d="M16,8.18 C16,7.65333333 15.9523201,7.15333333 15.8705832,6.66666667 L8.17369093,6.66666667 L8.17369093,9.67333333 L12.5806726,9.67333333 C12.3831418,10.66 11.804172,11.4933333 10.9459344,12.06 L10.9459344,14.06 L13.5751384,14.06 C15.1145168,12.6666667 16,10.6133333 16,8.18 Z" fill="#4285F4" fill-rule="nonzero"></path>
    <path d="M8.17369093,16 C10.3805875,16 12.2264794,15.28 13.5751384,14.06 L10.9459344,12.06 C10.2103023,12.54 9.27713921,12.8333333 8.17369093,12.8333333 C6.04171988,12.8333333 4.23669647,11.4266667 3.5896126,9.52666667 L0.878671775,9.52666667 L0.878671775,11.5866667 C2.22051937,14.2 4.97914006,16 8.17369093,16 Z" fill="#34A853" fill-rule="nonzero"></path>
    <path d="M3.5896126,9.52666667 C3.41932737,9.04666667 3.33077905,8.53333333 3.33077905,8 C3.33077905,7.46666667 3.42613878,6.95333333 3.5896126,6.47333333 L3.5896126,4.41333333 L0.878671775,4.41333333 C0.320136228,5.49333333 0,6.70666667 0,8 C0,9.29333333 0.320136228,10.5066667 0.878671775,11.5866667 L3.5896126,9.52666667 Z" fill="#FBBC05" fill-rule="nonzero"></path>
    <path d="M8.17369093,3.16666667 C9.37931034,3.16666667 10.455513,3.57333333 11.3069391,4.36666667 L13.636441,2.08666667 C12.2264794,0.793333333 10.3805875,0 8.17369093,0 C4.97914006,0 2.22051937,1.8 0.878671775,4.41333333 L3.5896126,6.47333333 C4.23669647,4.57333333 6.04171988,3.16666667 8.17369093,3.16666667 Z" fill="#EA4335" fill-rule="nonzero"></path>
</svg>