<?xml version="1.0" encoding="UTF-8"?>
<svg width="240px" height="80px" viewBox="0 0 240 80" version="1.1" xmlns="http://www.w3.org/2000/svg">
    <g stroke="none" stroke-width="1" fill="none" fill-rule="evenodd">
        <path d="M12.819426,-3.45280103e-16 L227.180574,5.17920154e-16 C231.638168,-3.00926524e-16 233.254599,0.464128056 234.884229,1.33566352 C236.513858,2.20719898 237.792801,3.48614185 238.664336,5.11577148 C239.535872,6.74540111 240,8.3618323 240,12.819426 L240,67.180574 C240,71.6381677 239.535872,73.2545989 238.664336,74.8842285 C237.792801,76.5138581 236.513858,77.792801 234.884229,78.6643365 C233.254599,79.5358719 231.638168,80 227.180574,80 L12.819426,80 C8.3618323,80 6.74540111,79.5358719 5.11577148,78.6643365 C3.48614185,77.792801 2.20719898,76.5138581 1.33566352,74.8842285 C0.464128056,73.2545989 1.00308841e-16,71.6381677 -1.72640051e-16,67.180574 L3.45280103e-16,12.819426 C-2.00617683e-16,8.3618323 0.464128056,6.74540111 1.33566352,5.11577148 C2.20719898,3.48614185 3.48614185,2.20719898 5.11577148,1.33566352 C6.74540111,0.464128056 8.3618323,2.00617683e-16 12.819426,-3.45280103e-16 Z" id="Rectangle" fill="#2B2B2B"></path>
        <rect fill="#929292" x="103" y="42" width="115" height="13" rx="2"></rect>
        <g transform="translate(103, 25)" fill="#FFBE19" fill-rule="nonzero">
            <path d="M6.09843957,0.386675462 C5.98803473,0.150373791 5.75472638,0 5.49850381,0 C5.24228125,0 5.01105601,0.150373791 4.89856805,0.386675462 L3.55912815,3.2287401 L0.567781801,3.68415787 C0.317808568,3.72282542 0.109497541,3.90327397 0.0324224611,4.15031662 C-0.0446526189,4.39735928 0.0178406892,4.6701803 0.196988173,4.85277704 L2.36758907,7.06756816 L1.85514395,10.1974912 C1.81348174,10.4552748 1.91763726,10.7173549 2.12386517,10.8698769 C2.33009309,11.0223989 2.60298054,11.0417326 2.82795644,10.9192854 L5.50058692,9.44777045 L8.1732174,10.9192854 C8.39819331,11.0417326 8.67108076,11.0245471 8.87730867,10.8698769 C9.08353659,10.7152067 9.1876921,10.4552748 9.1460299,10.1974912 L8.63150166,7.06756816 L10.8021026,4.85277704 C10.98125,4.6701803 11.0458265,4.39735928 10.9666683,4.15031662 C10.8875101,3.90327397 10.6812822,3.72282542 10.4313089,3.68415787 L7.43787947,3.2287401 L6.09843957,0.386675462 Z"></path>
            <path d="M21.0984396,0.386675462 C20.9880347,0.150373791 20.7547264,0 20.4985038,0 C20.2422812,0 20.011056,0.150373791 19.8985681,0.386675462 L18.5591281,3.2287401 L15.5677818,3.68415787 C15.3178086,3.72282542 15.1094975,3.90327397 15.0324225,4.15031662 C14.9553474,4.39735928 15.0178407,4.6701803 15.1969882,4.85277704 L17.3675891,7.06756816 L16.8551439,10.1974912 C16.8134817,10.4552748 16.9176373,10.7173549 17.1238652,10.8698769 C17.3300931,11.0223989 17.6029805,11.0417326 17.8279564,10.9192854 L20.5005869,9.44777045 L23.1732174,10.9192854 C23.3981933,11.0417326 23.6710808,11.0245471 23.8773087,10.8698769 C24.0835366,10.7152067 24.1876921,10.4552748 24.1460299,10.1974912 L23.6315017,7.06756816 L25.8021026,4.85277704 C25.98125,4.6701803 26.0458265,4.39735928 25.9666683,4.15031662 C25.8875101,3.90327397 25.6812822,3.72282542 25.4313089,3.68415787 L22.4378795,3.2287401 L21.0984396,0.386675462 Z"></path>
            <path d="M36.0984396,0.386675462 C35.9880347,0.150373791 35.7547264,0 35.4985038,0 C35.2422812,0 35.011056,0.150373791 34.8985681,0.386675462 L33.5591281,3.2287401 L30.5677818,3.68415787 C30.3178086,3.72282542 30.1094975,3.90327397 30.0324225,4.15031662 C29.9553474,4.39735928 30.0178407,4.6701803 30.1969882,4.85277704 L32.3675891,7.06756816 L31.8551439,10.1974912 C31.8134817,10.4552748 31.9176373,10.7173549 32.1238652,10.8698769 C32.3300931,11.0223989 32.6029805,11.0417326 32.8279564,10.9192854 L35.5005869,9.44777045 L38.1732174,10.9192854 C38.3981933,11.0417326 38.6710808,11.0245471 38.8773087,10.8698769 C39.0835366,10.7152067 39.1876921,10.4552748 39.1460299,10.1974912 L38.6315017,7.06756816 L40.8021026,4.85277704 C40.98125,4.6701803 41.0458265,4.39735928 40.9666683,4.15031662 C40.8875101,3.90327397 40.6812822,3.72282542 40.4313089,3.68415787 L37.4378795,3.2287401 L36.0984396,0.386675462 Z"></path>
            <path d="M51.0984396,0.386675462 C50.9880347,0.150373791 50.7547264,0 50.4985038,0 C50.2422812,0 50.011056,0.150373791 49.8985681,0.386675462 L48.5591281,3.2287401 L45.5677818,3.68415787 C45.3178086,3.72282542 45.1094975,3.90327397 45.0324225,4.15031662 C44.9553474,4.39735928 45.0178407,4.6701803 45.1969882,4.85277704 L47.3675891,7.06756816 L46.8551439,10.1974912 C46.8134817,10.4552748 46.9176373,10.7173549 47.1238652,10.8698769 C47.3300931,11.0223989 47.6029805,11.0417326 47.8279564,10.9192854 L50.5005869,9.44777045 L53.1732174,10.9192854 C53.3981933,11.0417326 53.6710808,11.0245471 53.8773087,10.8698769 C54.0835366,10.7152067 54.1876921,10.4552748 54.1460299,10.1974912 L53.6315017,7.06756816 L55.8021026,4.85277704 C55.98125,4.6701803 56.0458265,4.39735928 55.9666683,4.15031662 C55.8875101,3.90327397 55.6812822,3.72282542 55.4313089,3.68415787 L52.4378795,3.2287401 L51.0984396,0.386675462 Z"></path>
            <path d="M66.0984396,0.386675462 C65.9880347,0.150373791 65.7547264,0 65.4985038,0 C65.2422812,0 65.011056,0.150373791 64.8985681,0.386675462 L63.5591281,3.2287401 L60.5677818,3.68415787 C60.3178086,3.72282542 60.1094975,3.90327397 60.0324225,4.15031662 C59.9553474,4.39735928 60.0178407,4.6701803 60.1969882,4.85277704 L62.3675891,7.06756816 L61.8551439,10.1974912 C61.8134817,10.4552748 61.9176373,10.7173549 62.1238652,10.8698769 C62.3300931,11.0223989 62.6029805,11.0417326 62.8279564,10.9192854 L65.5005869,9.44777045 L68.1732174,10.9192854 C68.3981933,11.0417326 68.6710808,11.0245471 68.8773087,10.8698769 C69.0835366,10.7152067 69.1876921,10.4552748 69.1460299,10.1974912 L68.6315017,7.06756816 L70.8021026,4.85277704 C70.98125,4.6701803 71.0458265,4.39735928 70.9666683,4.15031662 C70.8875101,3.90327397 70.6812822,3.72282542 70.4313089,3.68415787 L67.4378795,3.2287401 L66.0984396,0.386675462 Z"></path>
        </g>
        <g transform="translate(26, 24)" fill="#F6F6F6" fill-rule="nonzero">
            <path d="M10.057259,31 C12.0890284,31 13.8905307,30.5668455 15.4617658,29.7005366 C17.0330009,28.8342276 18.2656077,27.6317907 19.1595863,26.093226 C20.0535648,24.5546613 20.5005541,22.787391 20.5005541,20.7914152 L20.5005541,20.7498323 C20.5005541,18.8231612 20.0840414,17.1147999 19.2510159,15.6247485 C18.4179904,14.1346971 17.2734269,12.9599821 15.8173255,12.1006036 C14.361224,11.2412251 12.6917867,10.8115359 10.8090137,10.8115359 C9.86085457,10.8115359 8.966876,10.9293539 8.12707795,11.1649899 C7.28727989,11.400626 6.52875262,11.7471496 5.85149612,12.2045607 C5.17423963,12.6619718 4.60534417,13.2302705 4.14480975,13.9094567 L4.06353897,13.9094567 L5.05910602,3.82562039 L18.8345031,3.82562039 L18.8345031,0.498993964 L2.05208718,0.498993964 L0.548577761,17.6103286 L3.77909124,17.6103286 C3.96872306,17.2638051 4.18205886,16.9450034 4.41909863,16.6539235 C4.65613841,16.3628437 4.90333703,16.0925553 5.1606945,15.8430584 C5.81086073,15.2331768 6.55922916,14.7792309 7.40579978,14.4812207 C8.2523704,14.1832104 9.17005295,14.0342052 10.1588474,14.0342052 C11.4591799,14.0342052 12.6105159,14.325285 13.6128556,14.9074447 C14.6151952,15.4896043 15.404199,16.2900738 15.979867,17.3088531 C16.555535,18.3276325 16.843369,19.4954169 16.843369,20.8122066 L16.843369,20.8537894 C16.843369,22.1983009 16.5589213,23.3868768 15.9900259,24.4195171 C15.4211304,25.4521574 14.6287403,26.2595573 13.6128556,26.841717 C12.5969708,27.4238766 11.4253171,27.7149564 10.0978943,27.7149564 C8.93301318,27.7149564 7.88326561,27.4862508 6.94865164,27.0288397 C6.01403768,26.5714286 5.25551041,25.9442209 4.67306982,25.1472166 C4.09062923,24.3502124 3.73845586,23.4596468 3.61654969,22.4755198 L3.59623199,22.3091885 L0,22.3091885 L0.0203176949,22.537894 C0.169314124,24.1596244 0.68402906,25.608093 1.5644625,26.8832998 C2.44489595,28.1585066 3.6131634,29.163425 5.06926487,29.898055 C6.52536633,30.632685 8.18803103,31 10.057259,31 Z"></path>
            <path d="M26.7787218,30.7920858 C27.4288881,30.7920858 27.9774658,30.5633803 28.4244551,30.1059691 C28.8714444,29.648558 29.094939,29.0871898 29.094939,28.4218645 C29.094939,27.7565392 28.8714444,27.195171 28.4244551,26.7377599 C27.9774658,26.2803488 27.4288881,26.0516432 26.7787218,26.0516432 C26.1285556,26.0516432 25.5799778,26.2803488 25.1329885,26.7377599 C24.6859993,27.195171 24.4625046,27.7565392 24.4625046,28.4218645 C24.4625046,29.0871898 24.6859993,29.648558 25.1329885,30.1059691 C25.5799778,30.5633803 26.1285556,30.7920858 26.7787218,30.7920858 Z"></path>
            <path d="M44.211304,31 C46.4597956,31 48.3899766,30.3693271 50.0018471,29.1079812 C51.6137175,27.8466354 52.8497106,26.0585737 53.7098264,23.7437961 C54.5699421,21.4290186 55,18.6845518 55,15.5103957 L55,15.4688129 C55,12.2946568 54.5699421,9.55019003 53.7098264,7.23541247 C52.8497106,4.92063492 51.6137175,3.13603845 50.0018471,1.88162307 C48.3899766,0.627207691 46.4597956,0 44.211304,0 C41.9628125,0 40.0360177,0.627207691 38.4309198,1.88162307 C36.8258219,3.13603845 35.5966014,4.92063492 34.7432582,7.23541247 C33.889915,9.55019003 33.4632434,12.2946568 33.4632434,15.4688129 L33.4632434,15.5103957 C33.4632434,18.6845518 33.889915,21.4290186 34.7432582,23.7437961 C35.5966014,26.0585737 36.8258219,27.8466354 38.4309198,29.1079812 C40.0360177,30.3693271 41.9628125,31 44.211304,31 Z M44.211304,27.7357478 C42.7213397,27.7357478 41.4480975,27.2402191 40.3915774,26.2491616 C39.3350573,25.2581042 38.529122,23.8477532 37.9737717,22.0181087 C37.4184214,20.1884641 37.1407462,18.0192265 37.1407462,15.5103957 L37.1407462,15.4688129 C37.1407462,12.9599821 37.4184214,10.7942097 37.9737717,8.97149564 C38.529122,7.14878158 39.3350573,5.74536106 40.3915774,4.76123407 C41.4480975,3.77710709 42.7213397,3.28504359 44.211304,3.28504359 C45.7012683,3.28504359 46.9778968,3.77710709 48.0411895,4.76123407 C49.1044822,5.74536106 49.91719,7.14878158 50.4793129,8.97149564 C51.0414358,10.7942097 51.3224972,12.9599821 51.3224972,15.4688129 L51.3224972,15.5103957 C51.3224972,18.0192265 51.0414358,20.1884641 50.4793129,22.0181087 C49.91719,23.8477532 49.1044822,25.2581042 48.0411895,26.2491616 C46.9778968,27.2402191 45.7012683,27.7357478 44.211304,27.7357478 Z"></path>
        </g>
    </g>
</svg>