<?xml version="1.0" encoding="UTF-8"?>
<svg width="570px" height="312px" viewBox="0 0 570 312" version="1.1" xmlns="http://www.w3.org/2000/svg">
    <title>Reviews Light</title>
    <g id="Reviews-Light" stroke="none" stroke-width="1" fill="none" fill-rule="evenodd">
        <rect fill="#FFFFFF" x="0" y="0" width="570" height="312" rx="10"></rect>
        <g transform="translate(285, 98)">
            <rect fill="#4E4E4E" x="0" y="148" width="63" height="16" rx="2"></rect>
            <rect fill="#4E4E4E" x="0" y="128" width="212" height="16" rx="2"></rect>
            <rect fill="#4E4E4E" x="0" y="108" width="212" height="16" rx="2"></rect>
            <rect fill="#4E4E4E" x="0" y="88" width="212" height="16" rx="2"></rect>
            <rect fill="#4E4E4E" x="0" y="68" width="212" height="16" rx="2"></rect>
            <rect fill="#E2E2E2" x="0" y="37" width="115" height="13" rx="2"></rect>
            <g transform="translate(0, 21)" fill="#FFBE19" fill-rule="nonzero">
                <path d="M6.09843957,0.386675462 C5.98803473,0.150373791 5.75472638,0 5.49850381,0 C5.24228125,0 5.01105601,0.150373791 4.89856805,0.386675462 L3.55912815,3.2287401 L0.567781801,3.68415787 C0.317808568,3.72282542 0.109497541,3.90327397 0.0324224611,4.15031662 C-0.0446526189,4.39735928 0.0178406892,4.6701803 0.196988173,4.85277704 L2.36758907,7.06756816 L1.85514395,10.1974912 C1.81348174,10.4552748 1.91763726,10.7173549 2.12386517,10.8698769 C2.33009309,11.0223989 2.60298054,11.0417326 2.82795644,10.9192854 L5.50058692,9.44777045 L8.1732174,10.9192854 C8.39819331,11.0417326 8.67108076,11.0245471 8.87730867,10.8698769 C9.08353659,10.7152067 9.1876921,10.4552748 9.1460299,10.1974912 L8.63150166,7.06756816 L10.8021026,4.85277704 C10.98125,4.6701803 11.0458265,4.39735928 10.9666683,4.15031662 C10.8875101,3.90327397 10.6812822,3.72282542 10.4313089,3.68415787 L7.43787947,3.2287401 L6.09843957,0.386675462 Z" id="star"></path>
                <path d="M21.0984396,0.386675462 C20.9880347,0.150373791 20.7547264,0 20.4985038,0 C20.2422812,0 20.011056,0.150373791 19.8985681,0.386675462 L18.5591281,3.2287401 L15.5677818,3.68415787 C15.3178086,3.72282542 15.1094975,3.90327397 15.0324225,4.15031662 C14.9553474,4.39735928 15.0178407,4.6701803 15.1969882,4.85277704 L17.3675891,7.06756816 L16.8551439,10.1974912 C16.8134817,10.4552748 16.9176373,10.7173549 17.1238652,10.8698769 C17.3300931,11.0223989 17.6029805,11.0417326 17.8279564,10.9192854 L20.5005869,9.44777045 L23.1732174,10.9192854 C23.3981933,11.0417326 23.6710808,11.0245471 23.8773087,10.8698769 C24.0835366,10.7152067 24.1876921,10.4552748 24.1460299,10.1974912 L23.6315017,7.06756816 L25.8021026,4.85277704 C25.98125,4.6701803 26.0458265,4.39735928 25.9666683,4.15031662 C25.8875101,3.90327397 25.6812822,3.72282542 25.4313089,3.68415787 L22.4378795,3.2287401 L21.0984396,0.386675462 Z" id="star"></path>
                <path d="M36.0984396,0.386675462 C35.9880347,0.150373791 35.7547264,0 35.4985038,0 C35.2422812,0 35.011056,0.150373791 34.8985681,0.386675462 L33.5591281,3.2287401 L30.5677818,3.68415787 C30.3178086,3.72282542 30.1094975,3.90327397 30.0324225,4.15031662 C29.9553474,4.39735928 30.0178407,4.6701803 30.1969882,4.85277704 L32.3675891,7.06756816 L31.8551439,10.1974912 C31.8134817,10.4552748 31.9176373,10.7173549 32.1238652,10.8698769 C32.3300931,11.0223989 32.6029805,11.0417326 32.8279564,10.9192854 L35.5005869,9.44777045 L38.1732174,10.9192854 C38.3981933,11.0417326 38.6710808,11.0245471 38.8773087,10.8698769 C39.0835366,10.7152067 39.1876921,10.4552748 39.1460299,10.1974912 L38.6315017,7.06756816 L40.8021026,4.85277704 C40.98125,4.6701803 41.0458265,4.39735928 40.9666683,4.15031662 C40.8875101,3.90327397 40.6812822,3.72282542 40.4313089,3.68415787 L37.4378795,3.2287401 L36.0984396,0.386675462 Z" id="star"></path>
                <path d="M51.0984396,0.386675462 C50.9880347,0.150373791 50.7547264,0 50.4985038,0 C50.2422812,0 50.011056,0.150373791 49.8985681,0.386675462 L48.5591281,3.2287401 L45.5677818,3.68415787 C45.3178086,3.72282542 45.1094975,3.90327397 45.0324225,4.15031662 C44.9553474,4.39735928 45.0178407,4.6701803 45.1969882,4.85277704 L47.3675891,7.06756816 L46.8551439,10.1974912 C46.8134817,10.4552748 46.9176373,10.7173549 47.1238652,10.8698769 C47.3300931,11.0223989 47.6029805,11.0417326 47.8279564,10.9192854 L50.5005869,9.44777045 L53.1732174,10.9192854 C53.3981933,11.0417326 53.6710808,11.0245471 53.8773087,10.8698769 C54.0835366,10.7152067 54.1876921,10.4552748 54.1460299,10.1974912 L53.6315017,7.06756816 L55.8021026,4.85277704 C55.98125,4.6701803 56.0458265,4.39735928 55.9666683,4.15031662 C55.8875101,3.90327397 55.6812822,3.72282542 55.4313089,3.68415787 L52.4378795,3.2287401 L51.0984396,0.386675462 Z" id="star"></path>
                <path d="M66.0984396,0.386675462 C65.9880347,0.150373791 65.7547264,0 65.4985038,0 C65.2422812,0 65.011056,0.150373791 64.8985681,0.386675462 L63.5591281,3.2287401 L60.5677818,3.68415787 C60.3178086,3.72282542 60.1094975,3.90327397 60.0324225,4.15031662 C59.9553474,4.39735928 60.0178407,4.6701803 60.1969882,4.85277704 L62.3675891,7.06756816 L61.8551439,10.1974912 C61.8134817,10.4552748 61.9176373,10.7173549 62.1238652,10.8698769 C62.3300931,11.0223989 62.6029805,11.0417326 62.8279564,10.9192854 L65.5005869,9.44777045 L68.1732174,10.9192854 C68.3981933,11.0417326 68.6710808,11.0245471 68.8773087,10.8698769 C69.0835366,10.7152067 69.1876921,10.4552748 69.1460299,10.1974912 L68.6315017,7.06756816 L70.8021026,4.85277704 C70.98125,4.6701803 71.0458265,4.39735928 70.9666683,4.15031662 C70.8875101,3.90327397 70.6812822,3.72282542 70.4313089,3.68415787 L67.4378795,3.2287401 L66.0984396,0.386675462 Z" id="star"></path>
            </g>
            <rect fill="#4E4E4E" x="0" y="0" width="77" height="16" rx="2"></rect>
            <g id="gis" transform="translate(82, 0)" fill="#A3C626" fill-rule="nonzero">
                <path d="M16,8.00006701 C16,7.01591809 15.8135281,6.07723266 15.4884586,5.2065582 C15.402459,8.07239986 12.4896646,10.2912327 10.7795571,11.7595661 L15.060069,11.7595661 C15.658414,10.6384237 16,9.35938187 16,8.00006701 Z M12.9055245,1.68975438 C11.5502362,0.634545721 9.85094978,0 8.00016751,0 C3.58182854,0 0,3.58193354 0,8.00006701 C0,12.418167 3.58182854,16 8.00016751,16 C10.0233844,16 11.8656236,15.243001 13.2744481,14.0041627 L7.48259573,14.0041627 L7.4649402,12.3032519 C10.9547389,9.26939297 13.09404,7.2176393 13.09404,5.23583977 C13.09404,4.4993111 12.8134946,3.56987248 11.5510067,3.56987248 C10.5513083,3.56987248 9.58692083,4.14897083 9.76220309,6.56875432 L7.7281651,6.56875432 C7.21950484,3.76315095 8.74518409,1.53577486 11.6559349,1.53577486 C12.1072063,1.53577486 12.5246407,1.58964759 12.9055245,1.68975438 Z" id="Shape"></path>
            </g>
        </g>
        <g transform="translate(25, 98)">
            <rect fill="#4E4E4E" x="0" y="148" width="125" height="16" rx="2"></rect>
            <rect fill="#4E4E4E" x="0" y="128" width="212" height="16" rx="2"></rect>
            <rect fill="#4E4E4E" x="0" y="108" width="212" height="16" rx="2"></rect>
            <rect fill="#4E4E4E" x="0" y="88" width="212" height="16" rx="2"></rect>
            <rect fill="#4E4E4E" x="0" y="68" width="212" height="16" rx="2"></rect>
            <rect fill="#E2E2E2" x="0" y="37" width="115" height="13" rx="2"></rect>
            <g transform="translate(0, 21)" fill="#FFBE19" fill-rule="nonzero">
                <path d="M6.09843957,0.386675462 C5.98803473,0.150373791 5.75472638,0 5.49850381,0 C5.24228125,0 5.01105601,0.150373791 4.89856805,0.386675462 L3.55912815,3.2287401 L0.567781801,3.68415787 C0.317808568,3.72282542 0.109497541,3.90327397 0.0324224611,4.15031662 C-0.0446526189,4.39735928 0.0178406892,4.6701803 0.196988173,4.85277704 L2.36758907,7.06756816 L1.85514395,10.1974912 C1.81348174,10.4552748 1.91763726,10.7173549 2.12386517,10.8698769 C2.33009309,11.0223989 2.60298054,11.0417326 2.82795644,10.9192854 L5.50058692,9.44777045 L8.1732174,10.9192854 C8.39819331,11.0417326 8.67108076,11.0245471 8.87730867,10.8698769 C9.08353659,10.7152067 9.1876921,10.4552748 9.1460299,10.1974912 L8.63150166,7.06756816 L10.8021026,4.85277704 C10.98125,4.6701803 11.0458265,4.39735928 10.9666683,4.15031662 C10.8875101,3.90327397 10.6812822,3.72282542 10.4313089,3.68415787 L7.43787947,3.2287401 L6.09843957,0.386675462 Z" id="star"></path>
                <path d="M21.0984396,0.386675462 C20.9880347,0.150373791 20.7547264,0 20.4985038,0 C20.2422812,0 20.011056,0.150373791 19.8985681,0.386675462 L18.5591281,3.2287401 L15.5677818,3.68415787 C15.3178086,3.72282542 15.1094975,3.90327397 15.0324225,4.15031662 C14.9553474,4.39735928 15.0178407,4.6701803 15.1969882,4.85277704 L17.3675891,7.06756816 L16.8551439,10.1974912 C16.8134817,10.4552748 16.9176373,10.7173549 17.1238652,10.8698769 C17.3300931,11.0223989 17.6029805,11.0417326 17.8279564,10.9192854 L20.5005869,9.44777045 L23.1732174,10.9192854 C23.3981933,11.0417326 23.6710808,11.0245471 23.8773087,10.8698769 C24.0835366,10.7152067 24.1876921,10.4552748 24.1460299,10.1974912 L23.6315017,7.06756816 L25.8021026,4.85277704 C25.98125,4.6701803 26.0458265,4.39735928 25.9666683,4.15031662 C25.8875101,3.90327397 25.6812822,3.72282542 25.4313089,3.68415787 L22.4378795,3.2287401 L21.0984396,0.386675462 Z" id="star"></path>
                <path d="M36.0984396,0.386675462 C35.9880347,0.150373791 35.7547264,0 35.4985038,0 C35.2422812,0 35.011056,0.150373791 34.8985681,0.386675462 L33.5591281,3.2287401 L30.5677818,3.68415787 C30.3178086,3.72282542 30.1094975,3.90327397 30.0324225,4.15031662 C29.9553474,4.39735928 30.0178407,4.6701803 30.1969882,4.85277704 L32.3675891,7.06756816 L31.8551439,10.1974912 C31.8134817,10.4552748 31.9176373,10.7173549 32.1238652,10.8698769 C32.3300931,11.0223989 32.6029805,11.0417326 32.8279564,10.9192854 L35.5005869,9.44777045 L38.1732174,10.9192854 C38.3981933,11.0417326 38.6710808,11.0245471 38.8773087,10.8698769 C39.0835366,10.7152067 39.1876921,10.4552748 39.1460299,10.1974912 L38.6315017,7.06756816 L40.8021026,4.85277704 C40.98125,4.6701803 41.0458265,4.39735928 40.9666683,4.15031662 C40.8875101,3.90327397 40.6812822,3.72282542 40.4313089,3.68415787 L37.4378795,3.2287401 L36.0984396,0.386675462 Z" id="star"></path>
                <path d="M51.0984396,0.386675462 C50.9880347,0.150373791 50.7547264,0 50.4985038,0 C50.2422812,0 50.011056,0.150373791 49.8985681,0.386675462 L48.5591281,3.2287401 L45.5677818,3.68415787 C45.3178086,3.72282542 45.1094975,3.90327397 45.0324225,4.15031662 C44.9553474,4.39735928 45.0178407,4.6701803 45.1969882,4.85277704 L47.3675891,7.06756816 L46.8551439,10.1974912 C46.8134817,10.4552748 46.9176373,10.7173549 47.1238652,10.8698769 C47.3300931,11.0223989 47.6029805,11.0417326 47.8279564,10.9192854 L50.5005869,9.44777045 L53.1732174,10.9192854 C53.3981933,11.0417326 53.6710808,11.0245471 53.8773087,10.8698769 C54.0835366,10.7152067 54.1876921,10.4552748 54.1460299,10.1974912 L53.6315017,7.06756816 L55.8021026,4.85277704 C55.98125,4.6701803 56.0458265,4.39735928 55.9666683,4.15031662 C55.8875101,3.90327397 55.6812822,3.72282542 55.4313089,3.68415787 L52.4378795,3.2287401 L51.0984396,0.386675462 Z" id="star"></path>
                <path d="M66.0984396,0.386675462 C65.9880347,0.150373791 65.7547264,0 65.4985038,0 C65.2422812,0 65.011056,0.150373791 64.8985681,0.386675462 L63.5591281,3.2287401 L60.5677818,3.68415787 C60.3178086,3.72282542 60.1094975,3.90327397 60.0324225,4.15031662 C59.9553474,4.39735928 60.0178407,4.6701803 60.1969882,4.85277704 L62.3675891,7.06756816 L61.8551439,10.1974912 C61.8134817,10.4552748 61.9176373,10.7173549 62.1238652,10.8698769 C62.3300931,11.0223989 62.6029805,11.0417326 62.8279564,10.9192854 L65.5005869,9.44777045 L68.1732174,10.9192854 C68.3981933,11.0417326 68.6710808,11.0245471 68.8773087,10.8698769 C69.0835366,10.7152067 69.1876921,10.4552748 69.1460299,10.1974912 L68.6315017,7.06756816 L70.8021026,4.85277704 C70.98125,4.6701803 71.0458265,4.39735928 70.9666683,4.15031662 C70.8875101,3.90327397 70.6812822,3.72282542 70.4313089,3.68415787 L67.4378795,3.2287401 L66.0984396,0.386675462 Z" id="star"></path>
            </g>
            <rect fill="#4E4E4E" x="0" y="0" width="111" height="16" rx="2"></rect>
            <g id="yandex" transform="translate(116, 0)" fill-rule="nonzero">
                <path d="M6,0 C2.6862,0 0,2.6862 0,6 C0,7.6563 0.6711,9.156 1.7565,10.2417 C2.8422,11.328 5.4,12.9 5.55,14.55 C5.57249,14.7974 5.7516,15 6,15 C6.2484,15 6.42751,14.7974 6.45,14.55 C6.6,12.9 9.1578,11.328 10.2435,10.2417 C11.3289,9.156 12,7.6563 12,6 C12,2.6862 9.3138,0 6,0 Z" id="Path" fill="#FF4433"></path>
                <path d="M6.00002,8.10015 C7.15982,8.10015 8.1,7.15994 8.1,6.00015 C8.1,4.84035 7.15982,3.90015 6.00002,3.90015 C4.84023,3.90015 3.90002,4.84035 3.90002,6.00015 C3.90002,7.15994 4.84023,8.10015 6.00002,8.10015 Z" id="Path" fill="#FFFFFF"></path>
            </g>
        </g>
        <rect fill-opacity="0.1" fill="#000000" x="0" y="78" width="570" height="1"></rect>
        <rect fill="#E2E2E2" x="92" y="43" width="115" height="13" rx="2"></rect>
        <g transform="translate(92, 26)" fill="#FFBE19" fill-rule="nonzero">
            <path d="M6.09843957,0.386675462 C5.98803473,0.150373791 5.75472638,0 5.49850381,0 C5.24228125,0 5.01105601,0.150373791 4.89856805,0.386675462 L3.55912815,3.2287401 L0.567781801,3.68415787 C0.317808568,3.72282542 0.109497541,3.90327397 0.0324224611,4.15031662 C-0.0446526189,4.39735928 0.0178406892,4.6701803 0.196988173,4.85277704 L2.36758907,7.06756816 L1.85514395,10.1974912 C1.81348174,10.4552748 1.91763726,10.7173549 2.12386517,10.8698769 C2.33009309,11.0223989 2.60298054,11.0417326 2.82795644,10.9192854 L5.50058692,9.44777045 L8.1732174,10.9192854 C8.39819331,11.0417326 8.67108076,11.0245471 8.87730867,10.8698769 C9.08353659,10.7152067 9.1876921,10.4552748 9.1460299,10.1974912 L8.63150166,7.06756816 L10.8021026,4.85277704 C10.98125,4.6701803 11.0458265,4.39735928 10.9666683,4.15031662 C10.8875101,3.90327397 10.6812822,3.72282542 10.4313089,3.68415787 L7.43787947,3.2287401 L6.09843957,0.386675462 Z" id="star"></path>
            <path d="M21.0984396,0.386675462 C20.9880347,0.150373791 20.7547264,0 20.4985038,0 C20.2422812,0 20.011056,0.150373791 19.8985681,0.386675462 L18.5591281,3.2287401 L15.5677818,3.68415787 C15.3178086,3.72282542 15.1094975,3.90327397 15.0324225,4.15031662 C14.9553474,4.39735928 15.0178407,4.6701803 15.1969882,4.85277704 L17.3675891,7.06756816 L16.8551439,10.1974912 C16.8134817,10.4552748 16.9176373,10.7173549 17.1238652,10.8698769 C17.3300931,11.0223989 17.6029805,11.0417326 17.8279564,10.9192854 L20.5005869,9.44777045 L23.1732174,10.9192854 C23.3981933,11.0417326 23.6710808,11.0245471 23.8773087,10.8698769 C24.0835366,10.7152067 24.1876921,10.4552748 24.1460299,10.1974912 L23.6315017,7.06756816 L25.8021026,4.85277704 C25.98125,4.6701803 26.0458265,4.39735928 25.9666683,4.15031662 C25.8875101,3.90327397 25.6812822,3.72282542 25.4313089,3.68415787 L22.4378795,3.2287401 L21.0984396,0.386675462 Z" id="star"></path>
            <path d="M36.0984396,0.386675462 C35.9880347,0.150373791 35.7547264,0 35.4985038,0 C35.2422812,0 35.011056,0.150373791 34.8985681,0.386675462 L33.5591281,3.2287401 L30.5677818,3.68415787 C30.3178086,3.72282542 30.1094975,3.90327397 30.0324225,4.15031662 C29.9553474,4.39735928 30.0178407,4.6701803 30.1969882,4.85277704 L32.3675891,7.06756816 L31.8551439,10.1974912 C31.8134817,10.4552748 31.9176373,10.7173549 32.1238652,10.8698769 C32.3300931,11.0223989 32.6029805,11.0417326 32.8279564,10.9192854 L35.5005869,9.44777045 L38.1732174,10.9192854 C38.3981933,11.0417326 38.6710808,11.0245471 38.8773087,10.8698769 C39.0835366,10.7152067 39.1876921,10.4552748 39.1460299,10.1974912 L38.6315017,7.06756816 L40.8021026,4.85277704 C40.98125,4.6701803 41.0458265,4.39735928 40.9666683,4.15031662 C40.8875101,3.90327397 40.6812822,3.72282542 40.4313089,3.68415787 L37.4378795,3.2287401 L36.0984396,0.386675462 Z" id="star"></path>
            <path d="M51.0984396,0.386675462 C50.9880347,0.150373791 50.7547264,0 50.4985038,0 C50.2422812,0 50.011056,0.150373791 49.8985681,0.386675462 L48.5591281,3.2287401 L45.5677818,3.68415787 C45.3178086,3.72282542 45.1094975,3.90327397 45.0324225,4.15031662 C44.9553474,4.39735928 45.0178407,4.6701803 45.1969882,4.85277704 L47.3675891,7.06756816 L46.8551439,10.1974912 C46.8134817,10.4552748 46.9176373,10.7173549 47.1238652,10.8698769 C47.3300931,11.0223989 47.6029805,11.0417326 47.8279564,10.9192854 L50.5005869,9.44777045 L53.1732174,10.9192854 C53.3981933,11.0417326 53.6710808,11.0245471 53.8773087,10.8698769 C54.0835366,10.7152067 54.1876921,10.4552748 54.1460299,10.1974912 L53.6315017,7.06756816 L55.8021026,4.85277704 C55.98125,4.6701803 56.0458265,4.39735928 55.9666683,4.15031662 C55.8875101,3.90327397 55.6812822,3.72282542 55.4313089,3.68415787 L52.4378795,3.2287401 L51.0984396,0.386675462 Z" id="star"></path>
            <path d="M66.0984396,0.386675462 C65.9880347,0.150373791 65.7547264,0 65.4985038,0 C65.2422812,0 65.011056,0.150373791 64.8985681,0.386675462 L63.5591281,3.2287401 L60.5677818,3.68415787 C60.3178086,3.72282542 60.1094975,3.90327397 60.0324225,4.15031662 C59.9553474,4.39735928 60.0178407,4.6701803 60.1969882,4.85277704 L62.3675891,7.06756816 L61.8551439,10.1974912 C61.8134817,10.4552748 61.9176373,10.7173549 62.1238652,10.8698769 C62.3300931,11.0223989 62.6029805,11.0417326 62.8279564,10.9192854 L65.5005869,9.44777045 L68.1732174,10.9192854 C68.3981933,11.0417326 68.6710808,11.0245471 68.8773087,10.8698769 C69.0835366,10.7152067 69.1876921,10.4552748 69.1460299,10.1974912 L68.6315017,7.06756816 L70.8021026,4.85277704 C70.98125,4.6701803 71.0458265,4.39735928 70.9666683,4.15031662 C70.8875101,3.90327397 70.6812822,3.72282542 70.4313089,3.68415787 L67.4378795,3.2287401 L66.0984396,0.386675462 Z" id="star"></path>
        </g>
        <g id="5.0" transform="translate(25.4199, 24.915)" fill="#000000" fill-rule="nonzero">
            <path d="M10.1513672,30.5771484 C12.2021484,30.5771484 14.0205078,30.1499023 15.6064453,29.2954102 C17.1923828,28.440918 18.4365234,27.2548828 19.3388672,25.7373047 C20.2412109,24.2197266 20.6923828,22.4765625 20.6923828,20.5078125 L20.6923828,20.4667969 C20.6923828,18.5664062 20.2719727,16.8813477 19.4311523,15.4116211 C18.590332,13.9418945 17.4350586,12.7832031 15.965332,11.9355469 C14.4956055,11.0878906 12.8105469,10.6640625 10.9101562,10.6640625 C9.953125,10.6640625 9.05078125,10.7802734 8.203125,11.0126953 C7.35546875,11.2451172 6.58984375,11.5869141 5.90625,12.0380859 C5.22265625,12.4892578 4.6484375,13.0498047 4.18359375,13.7197266 L4.1015625,13.7197266 L5.10644531,3.7734375 L19.0107422,3.7734375 L19.0107422,0.4921875 L2.07128906,0.4921875 L0.553710938,17.3701172 L3.81445312,17.3701172 C4.00585938,17.0283203 4.22119141,16.7138672 4.46044922,16.4267578 C4.69970703,16.1396484 4.94921875,15.8730469 5.20898438,15.6269531 C5.86523438,15.0253906 6.62060547,14.5776367 7.47509766,14.2836914 C8.32958984,13.9897461 9.25585938,13.8427734 10.2539062,13.8427734 C11.5664062,13.8427734 12.7285156,14.1298828 13.7402344,14.7041016 C14.7519531,15.2783203 15.5483398,16.0678711 16.1293945,17.0727539 C16.7104492,18.0776367 17.0009766,19.2294922 17.0009766,20.5283203 L17.0009766,20.5693359 C17.0009766,21.8955078 16.7138672,23.0678711 16.1396484,24.0864258 C15.5654297,25.1049805 14.765625,25.9013672 13.7402344,26.4755859 C12.7148438,27.0498047 11.5322266,27.3369141 10.1923828,27.3369141 C9.01660156,27.3369141 7.95703125,27.1113281 7.01367188,26.6601562 C6.0703125,26.2089844 5.3046875,25.590332 4.71679688,24.8041992 C4.12890625,24.0180664 3.7734375,23.1396484 3.65039062,22.1689453 L3.62988281,22.0048828 L0,22.0048828 L0.0205078125,22.2304688 C0.170898438,23.8300781 0.690429687,25.2587891 1.57910156,26.5166016 C2.46777344,27.7744141 3.64697266,28.765625 5.11669922,29.4902344 C6.58642578,30.2148438 8.26464844,30.5771484 10.1513672,30.5771484 Z" id="Path"></path>
            <path d="M27.0292969,30.3720703 C27.6855469,30.3720703 28.2392578,30.1464844 28.6904297,29.6953125 C29.1416016,29.2441406 29.3671875,28.6904297 29.3671875,28.0341797 C29.3671875,27.3779297 29.1416016,26.8242188 28.6904297,26.3730469 C28.2392578,25.921875 27.6855469,25.6962891 27.0292969,25.6962891 C26.3730469,25.6962891 25.8193359,25.921875 25.3681641,26.3730469 C24.9169922,26.8242188 24.6914062,27.3779297 24.6914062,28.0341797 C24.6914062,28.6904297 24.9169922,29.2441406 25.3681641,29.6953125 C25.8193359,30.1464844 26.3730469,30.3720703 27.0292969,30.3720703 Z" id="Path"></path>
            <path d="M44.625,30.5771484 C46.8945312,30.5771484 48.8427734,29.9550781 50.4697266,28.7109375 C52.0966797,27.4667969 53.3442383,25.703125 54.2124023,23.4199219 C55.0805664,21.1367188 55.5146484,18.4296875 55.5146484,15.2988281 L55.5146484,15.2578125 C55.5146484,12.1269531 55.0805664,9.41992188 54.2124023,7.13671875 C53.3442383,4.85351562 52.0966797,3.09326172 50.4697266,1.85595703 C48.8427734,0.618652344 46.8945312,0 44.625,0 C42.3554688,0 40.4106445,0.618652344 38.7905273,1.85595703 C37.1704102,3.09326172 35.9296875,4.85351562 35.0683594,7.13671875 C34.2070312,9.41992188 33.7763672,12.1269531 33.7763672,15.2578125 L33.7763672,15.2988281 C33.7763672,18.4296875 34.2070312,21.1367188 35.0683594,23.4199219 C35.9296875,25.703125 37.1704102,27.4667969 38.7905273,28.7109375 C40.4106445,29.9550781 42.3554688,30.5771484 44.625,30.5771484 Z M44.625,27.3574219 C43.1210938,27.3574219 41.8359375,26.8686523 40.7695312,25.8911133 C39.703125,24.9135742 38.8896484,23.5224609 38.3291016,21.7177734 C37.7685547,19.9130859 37.4882812,17.7734375 37.4882812,15.2988281 L37.4882812,15.2578125 C37.4882812,12.7832031 37.7685547,10.6469727 38.3291016,8.84912109 C38.8896484,7.05126953 39.703125,5.66699219 40.7695312,4.69628906 C41.8359375,3.72558594 43.1210938,3.24023438 44.625,3.24023438 C46.1289062,3.24023438 47.4174805,3.72558594 48.4907227,4.69628906 C49.5639648,5.66699219 50.3842773,7.05126953 50.9516602,8.84912109 C51.519043,10.6469727 51.8027344,12.7832031 51.8027344,15.2578125 L51.8027344,15.2988281 C51.8027344,17.7734375 51.519043,19.9130859 50.9516602,21.7177734 C50.3842773,23.5224609 49.5639648,24.9135742 48.4907227,25.8911133 C47.4174805,26.8686523 46.1289062,27.3574219 44.625,27.3574219 Z" id="Shape"></path>
        </g>
    </g>
</svg>